{
.appVersion = "3306";
.formatVersion = 3;
DisplayStrings = (
"/.notdef ABCDEFGHIJKLMNOPQRSTUVWXYZabcdefghijklmnopqrstuvwxyzÁĂǍÂÄÀĀĄÅÃÆĆČÇĊÐĎĐÉĚÊËĖÈĒĘĞĢĠĦĲÍÎÏİÌĪĮĶĹĽĻŁŃŇŅÑŊÓÔÖÒŐŌØÕŒÞŔŘŖŚŠŞȘẞŤȚÚŬÛÜÙŰŪŲŮẂŴẄẀÝŶŸỲŹŽŻáăǎâäàāąåãæćčçċðďđéěêëėèēęğģġħıíîï/idotaccent ìĳīįȷķĺľļłńňņñŋóôöòőōøõœþŕřŗśšşșßťțúŭûüùűūųůẃŵẅẁýŷÿỳźžż̧̨̦̈̇̀́̋̂̌̆̊̃̄̒/caroncomb.alt ̵̶̷̸/y.ss01 ªºАБВГЃҐДЕЀЁЖЗИЙЍКЌЛМНОПРСТУЎФХЧЦШЩЏЬЫЪЉЊЅЄЭІЇЈЋЮЯЂ/U-cy.ss01 абвгѓґдеѐёжзийѝкќлмнопрстуўфхчцшщџьыъљњѕєэіїјћюяђ/be-cy.ss01/u-cy.ss01 0123456789/zero.ss01/one.ss01/four.ss01  /nbspace/.null .,:;…!¡?¿·•*#///backslash/periodcentered.loclCAT/periodcentered.loclCAT.case -–—_(){}[]‚„“”‘’«»‹›\"'@&¶§©®™°|№¢$€₽£¥+−×÷=><~^%΄¨˙`´˝ˆˇ˘˚˜¯¸˛ʼ",
"̣IỊ",
"Ị",
"ị",
"i̊j́ị́į́ḭ́ɨ́ɉ́і́ј́/nbspace",
"i̋ ɨ̋
i̒ i̦̒ ì̧̒ i̵̒ i̶̒ i̷̒ i̸̒ j̒ j̣̒ j̦̒ j̧̒ j̨̒ j̵̒ j̶̒ ȷj̷̒ j̸̒ į̒ į̣̒ į̦̒ į̧̒",
"EĘ",
m,
"XХ",
"њ",
"dďlľ :;
Ł",
"̧ÇŞcçş",
"ń",
"΄
ÁĂǍÂÄÀĀÅÃĆČĊĎÉĚÊËĖÈĒĞĠÍÎÏİÌĹŃŇÑÓÔÖÒŐŌÕŔŘŚŠŤÚŬÛÜÙŰŪŮẂŴẄẀÝŶŸỲŹŽŻ. ЃЀЁЙЍЌЎ",
"Ł",
"áăǎâäàāåãćčċðďđéěêëėèēğģġħíîïìīľńňnñóôöòőōõŕřśšťúŭûüùűūůẃŵẅẁýŷÿỳźžż
иѝгѓґeеѐёйѝкќўіїј",
"ГЃEЕЀЁИЙЍKКЌУЎ",
"eеéěêëėèē",
"̧̨̦̈̇̀́̋̂̌̆̊̃̄̒/caroncomb.alt ̵̶̷̸̣

abcdefghijklmnopqrstuvwxyz
aабвгѓґдеѐёжзийѝкќлмнoопрстуўфхчцшщџьыъљњѕєэіїјћюяђ/be-cy.ss01/u-cy.ss01 

ABCDEFGHIJKLMNOPQRSTUVWXYZ
АБВЃҐДЕЀЁЖЗИЙЍЌЛМНOОПРСТУЎФХЧЦШЩЏЬЫЪЉЊЅЄЭІЇЈЋЮЯЂ/U-cy.ss01"
);
customParameters = (
{
name = fsType;
value = (
);
},
{
name = "Use Typo Metrics";
value = 1;
},
{
name = blueShift;
value = 0;
},
{
name = panose;
value = (
2,
0,
0,
0,
0,
0,
0,
0,
0,
0
);
},
{
name = blueScale;
value = 0;
},
{
name = "Enforce Compatibility Check";
value = 1;
},
{
name = glyphOrder;
value = (
"** Latin Basic **",
.notdef,
A,
B,
C,
D,
E,
F,
G,
H,
I,
J,
K,
L,
M,
N,
O,
P,
Q,
R,
S,
T,
U,
V,
W,
X,
Y,
Z,
a,
b,
c,
d,
e,
f,
g,
h,
i,
j,
k,
l,
m,
n,
o,
p,
q,
r,
s,
t,
u,
v,
w,
x,
y,
z,
"**Accented Letters**",
Aacute,
Abreve,
Abreveacute,
Abrevedotbelow,
Abrevegrave,
Abrevehookabove,
Abrevetilde,
Acaron,
Acircumflex,
Acircumflexacute,
Acircumflexdotbelow,
Acircumflexgrave,

glyphs = (
{
glyphname = .notdef;
lastChange = "2024-12-11 03:28:41 +0000";
layers = (
{
background = {
shapes = (
{
closed = 1;
nodes = (
(563,705,l),
(563,124,l),
(680,124,l),
(680,705,l)
);
},
{
closed = 1;
nodes = (
(796,476,l),
(912,476,l),
(912,592,l),
(796,592,l)
);
},
{
closed = 1;
nodes = (
(911,591,l),
(1027,591,l),
(1027,707,l),
(911,707,l)
);
},
{
closed = 1;
nodes = (
(911,124,l),
(1027,124,l),
(1027,243,l),
(911,243,l)
);
},
{
closed = 1;
nodes = (
(624,360,l),
(796,360,l),
(796,476,l),
(624,476,l)
);
},
{
closed = 1;
nodes = (
(117,591,l),
(464,591,l),
(464,707,l),
(117,707,l)
);
},
{
closed = 1;
nodes = (
(69,123,l),
(185,123,l),
(185,707,l),
(69,707,l)
);
},
{
closed = 1;
nodes = (
(117,124,l),
(464,124,l),
(464,240,l),
(117,240,l)
);
},
{
closed = 1;
nodes = (
(796,243,l),
(912,243,l),
(912,361,l),
(796,361,l)
);
}
);
};
layerId = "1C9972D2-AAA2-4EE5-9F28-188B121D2056";
shapes = (
{
closed = 1;
nodes = (
(563,705,l),
(563,124,l),
(680,124,l),
(680,705,l)
);
},
{
closed = 1;
nodes = (
(796,476,l),
(912,476,l),
(912,592,l),
(796,592,l)
);
},
{
closed = 1;
nodes = (
(911,591,l),
(1027,591,l),
(1027,707,l),
(911,707,l)
);
},
{
closed = 1;
nodes = (
(911,124,l),
(1027,124,l),
(1027,243,l),
(911,243,l)
);
},
{
closed = 1;
nodes = (
(624,360,l),
(796,360,l),
(796,476,l),
(624,476,l)
);
},
{
closed = 1;
nodes = (
(117,591,l),
(464,591,l),
(464,707,l),
(117,707,l)
);
},
{
closed = 1;
nodes = (
(69,123,l),
(185,123,l),
(185,707,l),
(69,707,l)
);
},
{
closed = 1;
nodes = (
(117,124,l),
(464,124,l),
(464,240,l),
(117,240,l)
);
},
{
closed = 1;
nodes = (
(796,243,l),
(912,243,l),
(912,361,l),
(796,361,l)
);
}
);
width = 1078;
}
);
note = .notdef;
},
{
glyphname = A;
kernLeft = A;
kernRight = A;
lastChange = "2025-01-08 14:24:24 +0000";
layers = (
{
anchors = (
{
name = ogonek;
pos = (644,0);
},
{
name = top;
pos = (333,688);
}
);
background = {
anchors = (
{
name = top;
pos = (332,700);
}
);
shapes = (
{
closed = 1;
nodes = (
(118,0,l),
(187,192,l),
(481,192,l),
(550,0,l),
(646,0,l),
(380,700,l),
(288,700,l),
(22,0,l)
);
},
{
closed = 1;
nodes = (
(282,446,ls),
(299,493,o),
(316,545,o),
(332,602,c),
(336,602,l),
(353,543,o),
(369,491,o),
(386,446,cs),
(452,274,l),
(216,274,l)
);
}
);
};
guides = (
{
name = "UC mark bottom";
pos = (0,775);
},
{
name = "UC mark top";
pos = (0,926);
}
);
layerId = "1C9972D2-AAA2-4EE5-9F28-188B121D2056";
shapes = (
{
closed = 1;
nodes = (
(118,0,l),
(187,192,l),
(481,192,l),
(550,0,l),
(646,0,l),
(380,700,l),
(288,700,l),
(22,0,l)
);
},
{
closed = 1;
nodes = (
(282,446,ls),
(299,493,o),
(316,545,o),
(332,602,c),
(336,602,l),
(353,543,o),
(369,491,o),
(386,446,cs),
(452,274,l),
(216,274,l)
);
}
);
width = 668;
}
);
note = A;
unicode = 65;
},
{
glyphname = B;
kernLeft = B;
kernRight = B;
lastChange = "2024-12-11 03:28:41 +0000";
layers = (
{
background = {
shapes = (
{
closed = 1;
nodes = (
(366,0,ls),
(467,0,o),
(574,73,o),
(574,200,cs),
(574,281,o),
(542,333,o),
(463,361,c),
(463,364,l),
(524,391,o),
(572,443,o),
(572,518,cs),
(572,641,o),
(488,700,o),
(364,700,cs),
(86,700,l),
(86,0,l)
);
},
{
closed = 1;
nodes = (
(174,322,l),
(358,322,ls),
(436,322,o),
(486,266,o),
(486,200,cs),
(486,120,o),
(430,80,o),
(334,80,cs),
(174,80,l)
);
},
{
closed = 1;
nodes = (
(174,620,l),
(354,620,ls),
(414,620,o),
(484,595,o),
(484,510,cs),
(484,413,o),
(399,400,o),
(356,400,cs),
(174,400,l)
);
}
);
};
layerId = "1C9972D2-AAA2-4EE5-9F28-188B121D2056";
shapes = (
{
closed = 1;
nodes = (
(366,0,ls),
(467,0,o),
(574,73,o),
(574,200,cs),
(574,281,o),
(542,333,o),
(463,361,c),
(463,364,l),
(524,391,o),
(572,443,o),
(572,518,cs),
(572,641,o),
(488,700,o),
(364,700,cs),
(86,700,l),
(86,0,l)
);
},
{
closed = 1;
nodes = (
(174,322,l),
(358,322,ls),
(436,322,o),
(486,266,o),
(486,200,cs),
(486,120,o),
(430,80,o),
(334,80,cs),
(174,80,l)
);
},
{
closed = 1;
nodes = (
(174,620,l),
(354,620,ls),
(414,620,o),
(484,595,o),
(484,510,cs),
(484,413,o),
(399,400,o),
(356,400,cs),
(174,400,l)
);
}
);
width = 622;
}
);
metricLeft = H;
unicode = 66;
},
{
glyphname = C;
kernLeft = C;
kernRight = C;
lastChange = "2025-01-08 14:24:41 +0000";
layers = (
{
anchors = (
{
name = bottom;
pos = (367,0);
},
{
name = top;
pos = (356,688);
}
);
background = {
shapes = (
{
closed = 1;
nodes = (
(533,-12,o),
(631,106,o),
(650,220,c),
(560,220,l),
(541,145,o),
(473,72,o),
(358,72,cs),
(226,72,o),
(134,183,o),
(134,352,cs),
(134,510,o),
(214,630,o),
(360,630,cs),
(473,630,o),
(531,572,o),
(558,486,c),
(648,486,l),
(624,614,o),
(526,712,o),
(360,712,cs),
(169,712,o),
(42,567,o),
(42,352,cs),
(42,137,o),
(170,-12,o),
(360,-12,cs)
);
}
);
};
guides = (
{
name = "UC mark bottom";
pos = (0,775);
},
{
name = "UC mark top";
pos = (0,926);
}
);
layerId = "1C9972D2-AAA2-4EE5-9F28-188B121D2056";
shapes = (
{
closed = 1;
nodes = (
(533,-12,o),
(631,106,o),
(650,220,c),
(560,220,l),
(541,145,o),
(473,72,o),
(358,72,cs),
(226,72,o),
(134,183,o),
(134,352,cs),
(134,510,o),
(214,630,o),
(360,630,cs),
(473,630,o),
(531,572,o),
(558,486,c),
(648,486,l),
(624,614,o),
(526,712,o),
(360,712,cs),
(169,712,o),
(42,567,o),
(42,352,cs),
(42,137,o),
(170,-12,o),
(360,-12,cs)
);
}
);
width = 694;
}
);
metricLeft = O;
unicode = 67;
},
{
glyphname = D;
kernLeft = D;
kernRight = D;
lastChange = "2025-01-08 14:24:54 +0000";
layers = (
{
anchors = (
{
name = top;
pos = (306,700);
}
);
background = {
anchors = (
{
name = top;
pos = (306,700);
}
);
shapes = (
{
closed = 1;
nodes = (
(306,0,ls),
(520,0,o),
(654,129,o),
(654,352,cs),
(654,572,o),
(520,700,o),
(306,700,cs),
(86,700,l),
(86,0,l)
);
},
{
closed = 1;
nodes = (
(176,658,l),
(138,620,l),
(294,620,ls),
(473,620,o),
(564,523,o),
(564,352,cs),
(564,179,o),
(471,82,o),
(294,82,cs),
(138,82,l),
(176,42,l)
);
}
);
};
guides = (
{
name = "UC mark bottom";
pos = (0,775);
},
{
name = "UC mark top";
pos = (0,926);
}
);
layerId = "1C9972D2-AAA2-4EE5-9F28-188B121D2056";
shapes = (
{
closed = 1;
nodes = (
(306,0,ls),
(520,0,o),
(654,129,o),
(654,352,cs),
(654,572,o),
(520,700,o),
(306,700,cs),
(86,700,l),
(86,0,l)
);
},
{
closed = 1;
nodes = (
(176,658,l),
(138,620,l),
(294,620,ls),
(473,620,o),
(564,523,o),
(564,352,cs),
(564,179,o),
(471,82,o),
(294,82,cs),
(138,82,l),
(176,42,l)
);
}
);
width = 696;
}
);
metricLeft = H;
metricRight = O;
unicode = 68;
},
{
glyphname = E;
kernLeft = E;
kernRight = E;
lastChange = "2025-01-08 14:26:03 +0000";
layers = (
{
anchors = (
{
name = ogonek;
pos = (534,0);
},
{
name = top;
pos = (314,689);
}
);
background = {
shapes = (
{
closed = 1;
nodes = (
(532,0,l),
(532,82,l),
(176,82,l),
(176,618,l),
(532,618,l),
(532,700,l),
(86,700,l),
(86,0,l)
);
},
{
closed = 1;
nodes = (
(513,322,l),
(513,402,l),
(160,402,l),
(160,322,l)
);
}
);
};
guides = (
{
name = "UC mark bottom";
pos = (0,775);
},
{
name = "UC mark top";
pos = (0,926);
}
);
layerId = "1C9972D2-AAA2-4EE5-9F28-188B121D2056";
shapes = (
{
closed = 1;
nodes = (
(532,0,l),
(532,82,l),
(176,82,l),
(176,618,l),
(532,618,l),
(532,700,l),
(86,700,l),
(86,0,l)
);
},
{
closed = 1;
nodes = (
(513,322,l),
(513,402,l),
(160,402,l),
(160,322,l)
);
}
);
width = 592;
}
);
metricLeft = H;
unicode = 69;
},
{
glyphname = F;
kernLeft = F;
kernRight = F;
lastChange = "2025-01-08 14:24:57 +0000";
layers = (
{
background = {
shapes = (
{
closed = 1;
nodes = (
(176,0,l),
(176,652,l),
(140,618,l),
(524,618,l),
(524,700,l),
(86,700,l),
(86,0,l)
);
},
{
closed = 1;
nodes = (
(497,308,l),
(497,390,l),
(160,390,l),
(160,308,l)
);
}
);
};
guides = (
{
name = "UC mark bottom";
pos = (0,775);
},
{
name = "UC mark top";
pos = (0,926);
}
);
layerId = "1C9972D2-AAA2-4EE5-9F28-188B121D2056";
shapes = (
{
closed = 1;
nodes = (
(176,0,l),
(176,652,l),
(140,618,l),
(524,618,l),
(524,700,l),
(86,700,l),
(86,0,l)
);
},
{
closed = 1;
nodes = (
(497,308,l),
(497,390,l),
(160,390,l),
(160,308,l)
);
}
);
width = 566;
}
);
metricLeft = H;
unicode = 70;
},
{
glyphname = G;
kernLeft = C;
kernRight = C;
lastChange = "2025-01-08 14:26:27 +0000";
layers = (
{
anchors = (
{
name = bottom;
pos = (367,0);
},
{
name = top;
pos = (356,688);
}
);
background = {
shapes = (
{
closed = 1;
nodes = (
(540,-12,o),
(656,108,o),
(656,290,cs),
(656,362,l),
(369,362,l),
(369,282,l),
(594,282,l),
(568,312,l),
(568,278,ls),
(568,153,o),
(488,72,o),
(364,72,cs),
(228,72,o),
(134,182,o),
(134,352,cs),
(134,512,o),
(215,630,o),
(364,630,cs),
(468,630,o),
(530,579,o),
(558,492,c),
(650,492,l),
(621,630,o),
(511,712,o),
(364,712,cs),
(162,712,o),
(42,558,o),
(42,352,cs),
(42,148,o),
(166,-12,o),
(362,-12,cs)
);
}
);
};
guides = (
{
name = "UC mark bottom";
pos = (0,775);
},
{
name = "UC mark top";
pos = (0,926);
}
);
layerId = "1C9972D2-AAA2-4EE5-9F28-188B121D2056";
shapes = (
{
closed = 1;
nodes = (
(540,-12,o),
(656,108,o),
(656,290,cs),
(656,362,l),
(369,362,l),
(369,282,l),
(594,282,l),
(568,312,l),
(568,278,ls),
(568,153,o),
(488,72,o),
(364,72,cs),
(228,72,o),
(134,182,o),
(134,352,cs),
(134,512,o),
(215,630,o),
(364,630,cs),
(468,630,o),
(530,579,o),
(558,492,c),
(650,492,l),
(621,630,o),
(511,712,o),
(364,712,cs),
(162,712,o),
(42,558,o),
(42,352,cs),
(42,148,o),
(166,-12,o),
(362,-12,cs)
);
}
);
width = 698;
}
);
metricLeft = O;
unicode = 71;
},
{
glyphname = H;
kernLeft = H;
kernRight = H;
lastChange = "2025-01-08 14:26:51 +0000";
layers = (
{
anchors = (
{
name = top;
pos = (356,688);
}
);
background = {
shapes = (
{
closed = 1;
nodes = (
(646,0,l),
(646,700,l),
(558,700,l),
(558,0,l)
);
},
{
closed = 1;
nodes = (
(174,0,l),
(174,700,l),
(86,700,l),
(86,0,l)
);
},
{
closed = 1;
nodes = (
(574,318,l),
(574,400,l),
(160,400,l),
(160,318,l)
);
}
);
};
guides = (
{
name = "UC mark bottom";
pos = (0,775);
},
{
name = "UC mark top";
pos = (0,926);
}
);
layerId = "1C9972D2-AAA2-4EE5-9F28-188B121D2056";
shapes = (
{
closed = 1;
nodes = (
(646,0,l),
(646,700,l),
(558,700,l),
(558,0,l)
);
},
{
closed = 1;
nodes = (
(174,0,l),
(174,700,l),
(86,700,l),
(86,0,l)
);
},
{
closed = 1;
nodes = (
(574,318,l),
(574,400,l),
(160,400,l),
(160,318,l)
);
}
);
width = 732;
}
);
unicode = 72;
},
{
glyphname = I;
kernLeft = I;
kernRight = I;
lastChange = "2025-01-08 14:25:00 +0000";
layers = (
{
anchors = (
{
name = bottom;
pos = (130,0);
},
{
name = top;
pos = (128,700);
}
);
background = {
anchors = (
{
name = bottom;
pos = (130,0);
},
{
name = top;
pos = (128,700);
}
);
shapes = (
{
closed = 1;
nodes = (
(174,0,l),
(174,700,l),
(86,700,l),
(86,0,l)
);
}
);
};
guides = (
{
name = "UC mark bottom";
pos = (0,775);
},
{
name = "UC mark top";
pos = (0,926);
}
);
layerId = "1C9972D2-AAA2-4EE5-9F28-188B121D2056";
shapes = (
{
closed = 1;
nodes = (
(174,0,l),
(174,700,l),
(86,700,l),
(86,0,l)
);
}
);
width = 260;
}
);
metricLeft = H;
metricRight = H;
unicode = 73;
},
{
glyphname = J;
kernLeft = J;
kernRight = J;
lastChange = "2025-01-08 14:27:14 +0000";
layers = (
{
anchors = (
{
name = top;
pos = (394,688);
}
);
background = {
anchors = (
{
name = top;
pos = (394,700);
}
);
shapes = (
{
closed = 1;
nodes = (
(359,-12,o),
(438,76,o),
(438,228,cs),
(438,700,l),
(350,700,l),
(350,228,ls),
(350,133,o),
(307,72,o),
(224,72,cs),
(141,72,o),
(104,137,o),
(104,186,c),
(16,186,l),
(16,69,o),
(106,-12,o),
(222,-12,cs)
);
}
);
};
guides = (
{
name = "UC mark bottom";
pos = (0,775);
},
{
name = "UC mark top";
pos = (0,926);
}
);
layerId = "1C9972D2-AAA2-4EE5-9F28-188B121D2056";
shapes = (
{
closed = 1;
nodes = (
(359,-12,o),
(438,76,o),
(438,228,cs),
(438,700,l),
(350,700,l),
(350,228,ls),
(350,133,o),
(307,72,o),
(224,72,cs),
(141,72,o),
(104,137,o),
(104,186,c),
(16,186,l),
(16,69,o),
(106,-12,o),
(222,-12,cs)
);
}
);
width = 524;
}
);
metricRight = H;
unicode = 74;
},
{
glyphname = K;
kernLeft = B;
kernRight = K;
lastChange = "2025-01-08 14:27:36 +0000";
layers = (
{
anchors = (
{
name = bottom;
pos = (317,0);
},
{
name = top;
pos = (306,688);
}
);
background = {
shapes = (
{
closed = 1;
nodes = (
(608,0,l),
(281,416,l),
(281,362,l),
(587,700,l),
(475,700,l),
(140,320,l),
(140,201,l),
(248,325,l),
(492,0,l)
);
},
{
closed = 1;
nodes = (
(176,0,l),
(176,700,l),
(86,700,l),
(86,0,l)
);
}
);
};
guides = (
{
name = "UC mark bottom";
pos = (0,775);
},
{
name = "UC mark top";
pos = (0,926);
}
);
layerId = "1C9972D2-AAA2-4EE5-9F28-188B121D2056";
shapes = (
{
closed = 1;
nodes = (
(608,0,l),
(281,416,l),
(281,362,l),
(587,700,l),
(475,700,l),
(140,320,l),
(140,201,l),
(248,325,l),
(492,0,l)
);
},
{
closed = 1;
nodes = (
(176,0,l),
(176,700,l),
(86,700,l),
(86,0,l)
);
}
);
width = 610;
}
);
metricLeft = H;
unicode = 75;
},
{
glyphname = L;
kernLeft = B;
kernRight = L;
lastChange = "2025-01-08 14:28:20 +0000";
layers = (
{
anchors = (
{
name = bottom;
pos = (317,0);
},
{
name = top;
pos = (130,688);
}
);
background = {
shapes = (
{
closed = 1;
nodes = (
(532,0,l),
(532,82,l),
(140,82,l),
(176,50,l),
(176,700,l),
(86,700,l),
(86,0,l)
);
}
);
};
guides = (
{
name = "UC mark bottom";
pos = (0,775);
},
{
name = "UC mark top";
pos = (0,926);
}
);
layerId = "1C9972D2-AAA2-4EE5-9F28-188B121D2056";
shapes = (
{
closed = 1;
nodes = (
(532,0,l),
(532,82,l),
(140,82,l),
(176,50,l),
(176,700,l),
(86,700,l),
(86,0,l)
);
}
);
width = 554;
}
);
metricLeft = H;
unicode = 76;
},
{
glyphname = M;
kernLeft = B;
kernRight = H;
lastChange = "2025-01-08 14:25:05 +0000";
layers = (
{
background = {
shapes = (
{
closed = 1;
nodes = (
(174,0,l),
(174,331,ls),
(174,368,o),
(174,516,o),
(170,544,c),
(174,544,l),
(405,0,l),
(489,0,l),
(724,544,l),
(728,544,l),
(720,488,o),
(720,369,o),
(720,332,cs),
(720,0,l),
(806,0,l),
(806,700,l),
(702,700,l),
(449,118,l),
(446,118,l),
(194,700,l),
(86,700,l),
(86,0,l)
);
}
);
};
guides = (
{
name = "UC mark bottom";
pos = (0,775);
},
{
name = "UC mark top";
pos = (0,926);
}
);
layerId = "1C9972D2-AAA2-4EE5-9F28-188B121D2056";
shapes = (
{
closed = 1;
nodes = (
(174,0,l),
(174,331,ls),
(174,368,o),
(174,516,o),
(170,544,c),
(174,544,l),
(405,0,l),
(489,0,l),
(724,544,l),
(728,544,l),
(720,488,o),
(720,369,o),
(720,332,cs),
(720,0,l),
(806,0,l),
(806,700,l),
(702,700,l),
(449,118,l),
(446,118,l),
(194,700,l),
(86,700,l),
(86,0,l)
);
}
);
width = 892;
}
);
metricLeft = H;
metricRight = H;
unicode = 77;
},
{
glyphname = N;
kernLeft = N;
kernRight = N;
lastChange = "2025-01-08 14:28:38 +0000";
layers = (
{
anchors = (
{
name = bottom;
pos = (367,0);
},
{
name = top;
pos = (356,688);
}
);
background = {
shapes = (
{
closed = 1;
nodes = (
(175,0,l),
(175,370,ls),
(175,469,o),
(173,539,o),
(173,586,c),
(177,586,l),
(200,539,o),
(235,479,o),
(283,408,cs),
(559,0,l),
(645,0,l),
(645,700,l),
(559,700,l),
(559,132,l),
(557,132,l),
(534,176,o),
(500,231,o),
(455,298,cs),
(185,700,l),
(86,700,l),
(86,0,l)
);
}
);
};
guides = (
{
name = "UC mark bottom";
pos = (0,775);
},
{
name = "UC mark top";
pos = (0,926);
}
);
layerId = "1C9972D2-AAA2-4EE5-9F28-188B121D2056";
shapes = (
{
closed = 1;
nodes = (
(175,0,l),
(175,370,ls),
(175,469,o),
(173,539,o),
(173,586,c),
(177,586,l),
(200,539,o),
(235,479,o),
(283,408,cs),
(559,0,l),
(645,0,l),
(645,700,l),
(559,700,l),
(559,132,l),
(557,132,l),
(534,176,o),
(500,231,o),
(455,298,cs),
(185,700,l),
(86,700,l),
(86,0,l)
);
}
);
width = 731;
}
);
metricLeft = H;
metricRight = H;
unicode = 78;
},
{
glyphname = O;
kernLeft = at;
kernRight = D;
lastChange = "2025-01-08 14:43:45 +0000";
layers = (
{
anchors = (
{
name = bottom;
pos = (370,0);
},
{
name = top;
pos = (356,688);
}
);
background = {
shapes = (
{
closed = 1;
nodes = (
(568,-12,o),
(688,148,o),
(688,352,cs),
(688,555,o),
(569,712,o),
(366,712,cs),
(158,712,o),
(42,550,o),
(42,352,cs),
(42,149,o),
(163,-12,o),
(366,-12,cs)
);
},
{
closed = 1;
nodes = (
(224,70,o),
(132,186,o),
(132,352,cs),
(132,511,o),
(218,630,o),
(366,630,cs),
(504,630,o),
(598,523,o),
(598,352,cs),
(598,180,o),
(504,70,o),
(366,70,cs)
);
}
);
};
guides = (
{
name = "UC mark bottom";
pos = (0,775);
},
{
name = "UC mark top";
pos = (0,926);
}
);
layerId = "1C9972D2-AAA2-4EE5-9F28-188B121D2056";
shapes = (
{
closed = 1;
nodes = (
(568,-12,o),
(688,148,o),
(688,352,cs),
(688,555,o),
(569,712,o),
(366,712,cs),
(158,712,o),
(42,550,o),
(42,352,cs),
(42,149,o),
(163,-12,o),
(366,-12,cs)
);
},
{
closed = 1;
nodes = (
(224,70,o),
(132,186,o),
(132,352,cs),
(132,511,o),
(218,630,o),
(366,630,cs),
(504,630,o),
(598,523,o),
(598,352,cs),
(598,180,o),
(504,70,o),
(366,70,cs)
);
}
);
width = 730;
}
);
unicode = 79;
},
{
glyphname = P;
kernLeft = B;
kernRight = P;
lastChange = "2025-01-08 14:25:09 +0000";
layers = (
{
background = {
shapes = (
{
closed = 1;
nodes = (
(176,0,l),
(176,640,l),
(156,620,l),
(322,620,ls),
(418,620,o),
(474,563,o),
(474,476,cs),
(474,389,o),
(417,332,o),
(322,332,cs),
(158,332,l),
(158,252,l),
(334,252,ls),
(470,252,o),
(566,347,o),
(566,476,cs),
(566,600,o),
(480,700,o),
(332,700,cs),
(86,700,l),
(86,0,l)
);
}
);
};
guides = (
{
name = "UC mark bottom";
pos = (0,775);
},
{
name = "UC mark top";
pos = (0,926);
}
);
layerId = "1C9972D2-AAA2-4EE5-9F28-188B121D2056";
shapes = (
{
closed = 1;
nodes = (
(176,0,l),
(176,640,l),
(156,620,l),
(322,620,ls),
(418,620,o),
(474,563,o),
(474,476,cs),
(474,389,o),
(417,332,o),
(322,332,cs),
(158,332,l),
(158,252,l),
(334,252,ls),
(470,252,o),
(566,347,o),
(566,476,cs),
(566,600,o),
(480,700,o),
(332,700,cs),
(86,700,l),
(86,0,l)
);
}
);
width = 610;
}
);
metricLeft = H;
unicode = 80;
},
{
glyphname = Q;
kernLeft = C;
kernRight = D;
lastChange = "2025-01-08 14:25:10 +0000";
layers = (
{
background = {
shapes = (
{
closed = 1;
nodes = (
(568,-12,o),
(688,148,o),
(688,352,cs),
(688,555,o),
(569,712,o),
(366,712,cs),
(158,712,o),
(42,550,o),
(42,352,cs),
(42,149,o),
(163,-12,o),
(366,-12,cs)
);
},
{
closed = 1;
nodes = (
(224,70,o),
(132,186,o),
(132,352,cs),
(132,511,o),
(218,630,o),
(366,630,cs),
(504,630,o),
(598,523,o),
(598,352,cs),
(598,180,o),
(504,70,o),
(366,70,cs)
);
},
{
closed = 1;
nodes = (
(659,-31,l),
(475,243,l),
(376,243,l),
(560,-31,l)
);
}
);
};
guides = (
{
name = "UC mark bottom";
pos = (0,775);
},
{
name = "UC mark top";
pos = (0,926);
}
);
layerId = "1C9972D2-AAA2-4EE5-9F28-188B121D2056";
shapes = (
{
closed = 1;
nodes = (
(568,-12,o),
(688,148,o),
(688,352,cs),
(688,555,o),
(569,712,o),
(366,712,cs),
(158,712,o),
(42,550,o),
(42,352,cs),
(42,149,o),
(163,-12,o),
(366,-12,cs)
);
},
{
closed = 1;
nodes = (
(224,70,o),
(132,186,o),
(132,352,cs),
(132,511,o),
(218,630,o),
(366,630,cs),
(504,630,o),
(598,523,o),
(598,352,cs),
(598,180,o),
(504,70,o),
(366,70,cs)
);
},
{
closed = 1;
nodes = (
(659,-31,l),
(475,243,l),
(376,243,l),
(560,-31,l)
);
}
);
width = 730;
}
);
metricLeft = O;
metricRight = O;
unicode = 81;
},
{
glyphname = R;
kernLeft = H;
kernRight = R;
lastChange = "2025-01-08 14:29:08 +0000";
layers = (
{
anchors = (
{
name = bottom;
pos = (310,0);
},
{
name = top;
pos = (299,688);
}
);
background = {
shapes = (
{
closed = 1;
nodes = (
(176,0,l),
(176,646,l),
(148,620,l),
(328,620,ls),
(432,620,o),
(480,564,o),
(480,488,cs),
(480,406,o),
(425,354,o),
(328,354,cs),
(160,354,l),
(160,272,l),
(338,272,ls),
(499,272,o),
(570,374,o),
(570,488,cs),
(570,608,o),
(480,700,o),
(338,700,cs),
(86,700,l),
(86,0,l)
);
},
{
closed = 1;
nodes = (
(592,0,l),
(430,290,l),
(324,290,l),
(488,0,l)
);
}
);
};
guides = (
{
name = "UC mark bottom";
pos = (0,775);
},
{
name = "UC mark top";
pos = (0,926);
}
);
layerId = "1C9972D2-AAA2-4EE5-9F28-188B121D2056";
shapes = (
{
closed = 1;
nodes = (
(176,0,l),
(176,646,l),
(148,620,l),
(328,620,ls),
(432,620,o),
(480,564,o),
(480,488,cs),
(480,406,o),
(425,354,o),
(328,354,cs),
(160,354,l),
(160,272,l),
(338,272,ls),
(499,272,o),
(570,374,o),
(570,488,cs),
(570,608,o),
(480,700,o),
(338,700,cs),
(86,700,l),
(86,0,l)
);
},
{
closed = 1;
nodes = (
(592,0,l),
(430,290,l),
(324,290,l),
(488,0,l)
);
}
);
width = 618;
}
);
metricLeft = H;
unicode = 82;
},
{
glyphname = S;
kernLeft = S;
kernRight = S;
lastChange = "2025-01-08 14:29:24 +0000";
layers = (
{
anchors = (
{
name = bottom;
pos = (309,0);
},
{
name = top;
pos = (298,688);
}
);
background = {
shapes = (
{
closed = 1;
nodes = (
(453,-12,o),
(568,62,o),
(568,202,cs),
(568,315,o),
(501,362,o),
(376,388,cs),
(244,416,ls),
(186,428,o),
(156,460,o),
(156,520,cs),
(156,611,o),
(229,630,o),
(302,630,cs),
(387,630,o),
(443,599,o),
(466,528,c),
(558,528,l),
(533,654,o),
(432,712,o),
(302,712,cs),
(143,712,o),
(66,636,o),
(66,514,cs),
(66,417,o),
(114,356,o),
(226,332,cs),
(356,304,ls),
(428,289,o),
(478,257,o),
(478,196,cs),
(478,125,o),
(415,70,o),
(312,70,cs),
(222,70,o),
(153,113,o),
(132,184,c),
(40,184,l),
(59,61,o),
(158,-12,o),
(310,-12,cs)
);
}
);
};
guides = (
{
angle = 180;
pos = (512,1129);
},
{
name = "UC mark bottom";
pos = (0,775);
},
{
name = "UC mark top";
pos = (0,926);
}
);
layerId = "1C9972D2-AAA2-4EE5-9F28-188B121D2056";
shapes = (
{
closed = 1;
nodes = (
(453,-12,o),
(568,62,o),
(568,202,cs),
(568,315,o),
(501,362,o),
(376,388,cs),
(244,416,ls),
(186,428,o),
(156,460,o),
(156,520,cs),
(156,611,o),
(229,630,o),
(302,630,cs),
(387,630,o),
(443,599,o),
(466,528,c),
(558,528,l),
(533,654,o),
(432,712,o),
(302,712,cs),
(143,712,o),
(66,636,o),
(66,514,cs),
(66,417,o),
(114,356,o),
(226,332,cs),
(356,304,ls),
(428,289,o),
(478,257,o),
(478,196,cs),
(478,125,o),
(415,70,o),
(312,70,cs),
(222,70,o),
(153,113,o),
(132,184,c),
(40,184,l),
(59,61,o),
(158,-12,o),
(310,-12,cs)
);
}
);
width = 614;
}
);
unicode = 83;
},
{
glyphname = T;
kernLeft = T;
kernRight = T;
lastChange = "2025-01-08 14:29:46 +0000";
layers = (
{
anchors = (
{
name = bottom;
pos = (312,0);
},
{
name = top;
pos = (301,688);
}
);
background = {
shapes = (
{
closed = 1;
nodes = (
(345,0,l),
(345,632,l),
(257,632,l),
(257,0,l)
);
},
{
closed = 1;
nodes = (
(578,618,l),
(578,700,l),
(24,700,l),
(24,618,l)
);
}
);
};
guides = (
{
name = "UC mark bottom";
pos = (0,775);
},
{
name = "UC mark top";
pos = (0,926);
}
);
layerId = "1C9972D2-AAA2-4EE5-9F28-188B121D2056";
shapes = (
{
closed = 1;
nodes = (
(345,0,l),
(345,632,l),
(257,632,l),
(257,0,l)
);
},
{
closed = 1;
nodes = (
(578,618,l),
(578,700,l),
(24,700,l),
(24,618,l)
);
}
);
width = 602;
}
);
unicode = 84;
},
{
glyphname = U;
kernLeft = U;
kernRight = U;
lastChange = "2025-01-08 14:29:59 +0000";
layers = (
{
anchors = (
{
name = top;
pos = (343,688);
}
);
background = {
shapes = (
{
closed = 1;
nodes = (
(519,-12,o),
(630,95,o),
(630,276,cs),
(630,700,l),
(542,700,l),
(542,280,ls),
(542,144,o),
(463,72,o),
(354,72,cs),
(239,72,o),
(166,147,o),
(166,280,cs),
(166,700,l),
(76,700,l),
(76,276,ls),
(76,94,o),
(185,-12,o),
(354,-12,cs)
);
}
);
};
guides = (
{
name = "UC mark bottom";
pos = (0,775);
},
{
name = "UC mark top";
pos = (0,926);
}
);
layerId = "1C9972D2-AAA2-4EE5-9F28-188B121D2056";
shapes = (
{
closed = 1;
nodes = (
(519,-12,o),
(630,95,o),
(630,276,cs),
(630,700,l),
(542,700,l),
(542,280,ls),
(542,144,o),
(463,72,o),
(354,72,cs),
(239,72,o),
(166,147,o),
(166,280,cs),
(166,700,l),
(76,700,l),
(76,276,ls),
(76,94,o),
(185,-12,o),
(354,-12,cs)
);
}
);
width = 706;
}
);
unicode = 85;
},
{
glyphname = V;
kernLeft = V;
kernRight = V;
lastChange = "2025-01-08 14:25:16 +0000";
layers = (
{
background = {
shapes = (
{
closed = 1;
nodes = (
(380,0,l),
(644,700,l),
(548,700,l),
(390,266,ls),
(371,213,o),
(353,160,o),
(338,108,c),
(332,108,l),
(317,161,o),
(299,213,o),
(280,266,cs),
(120,700,l),
(24,700,l),
(288,0,l)
);
}
);
};
guides = (
{
name = "UC mark bottom";
pos = (0,775);
},
{
name = "UC mark top";
pos = (0,926);
}
);
layerId = "1C9972D2-AAA2-4EE5-9F28-188B121D2056";
shapes = (
{
closed = 1;
nodes = (
(380,0,l),
(644,700,l),
(548,700,l),
(390,266,ls),
(371,213,o),
(353,160,o),
(338,108,c),
(332,108,l),
(317,161,o),
(299,213,o),
(280,266,cs),
(120,700,l),
(24,700,l),
(288,0,l)
);
}
);
width = 668;
}
);
unicode = 86;
},
{
glyphname = W;
kernLeft = W;
kernRight = W;
lastChange = "2025-01-08 14:30:13 +0000";
layers = (
{
anchors = (
{
name = top;
pos = (488,688);
}
);
background = {
shapes = (
{
closed = 1;
nodes = (
(328,0,l),
(438,378,ls),
(456,441,o),
(473,503,o),
(488,564,c),
(492,564,l),
(503,517,o),
(519,457,o),
(540,384,cs),
(650,0,l),
(734,0,l),
(948,700,l),
(854,700,l),
(746,332,ls),
(724,257,o),
(707,198,o),
(696,154,c),
(692,154,l),
(678,207,o),
(662,265,o),
(644,326,cs),
(534,700,l),
(448,700,l),
(332,310,ls),
(311,239,o),
(297,185,o),
(290,150,c),
(286,150,l),
(274,200,o),
(258,255,o),
(240,316,cs),
(126,700,l),
(36,700,l),
(246,0,l)
);
}
);
};
guides = (
{
name = "UC mark bottom";
pos = (0,775);
},
{
name = "UC mark top";
pos = (0,926);
}
);
layerId = "1C9972D2-AAA2-4EE5-9F28-188B121D2056";
shapes = (
{
closed = 1;
nodes = (
(328,0,l),
(438,378,ls),
(456,441,o),
(473,503,o),
(488,564,c),
(492,564,l),
(503,517,o),
(519,457,o),
(540,384,cs),
(650,0,l),
(734,0,l),
(948,700,l),
(854,700,l),
(746,332,ls),
(724,257,o),
(707,198,o),
(696,154,c),
(692,154,l),
(678,207,o),
(662,265,o),
(644,326,cs),
(534,700,l),
(448,700,l),
(332,310,ls),
(311,239,o),
(297,185,o),
(290,150,c),
(286,150,l),
(274,200,o),
(258,255,o),
(240,316,cs),
(126,700,l),
(36,700,l),
(246,0,l)
);
}
);
width = 984;
}
);
unicode = 87;
},
{
glyphname = X;
kernLeft = X;
kernRight = X;
lastChange = "2025-01-08 14:25:19 +0000";
layers = (
{
background = {
shapes = (
{
closed = 1;
nodes = (
(624,0,l),
(132,700,l),
(26,700,l),
(520,0,l)
);
},
{
closed = 1;
nodes = (
(126,0,l),
(318,283,l),
(320,283,l),
(356,336,l),
(278,374,l),
(22,0,l)
);
},
{
closed = 1;
nodes = (
(618,700,l),
(516,700,l),
(327,426,l),
(325,426,l),
(294,376,l),
(370,336,l)
);
}
);
};
guides = (
{
name = "UC mark bottom";
pos = (0,775);
},
{
name = "UC mark top";
pos = (0,926);
}
);
layerId = "1C9972D2-AAA2-4EE5-9F28-188B121D2056";
shapes = (
{
closed = 1;
nodes = (
(624,0,l),
(379,349,l),
(618,700,l),
(516,700,l),
(327,426,l),
(325,426,l),
(132,700,l),
(26,700,l),
(267,358,l),
(22,0,l),
(126,0,l),
(318,283,l),
(320,283,l),
(520,0,l)
);
}
);
width = 646;
}
);
unicode = 88;
},
{
glyphname = Y;
kernLeft = Y;
kernRight = Y;
lastChange = "2025-01-08 14:30:20 +0000";
layers = (
{
anchors = (
{
name = top;
pos = (301,688);
}
);
background = {
shapes = (
{
closed = 1;
nodes = (
(346,279,l),
(612,700,l),
(512,700,l),
(310,377,l),
(308,377,l),
(106,700,l),
(6,700,l),
(272,279,l)
);
},
{
closed = 1;
nodes = (
(354,0,l),
(354,306,l),
(264,306,l),
(264,0,l)
);
}
);
};
guides = (
{
name = "UC mark bottom";
pos = (0,775);
},
{
name = "UC mark top";
pos = (0,926);
}
);
layerId = "1C9972D2-AAA2-4EE5-9F28-188B121D2056";
shapes = (
{
closed = 1;
nodes = (
(346,279,l),
(612,700,l),
(512,700,l),
(310,377,l),
(308,377,l),
(106,700,l),
(6,700,l),
(272,279,l)
);
},
{
closed = 1;
nodes = (
(354,0,l),
(354,306,l),
(264,306,l),
(264,0,l)
);
}
);
width = 618;
}
);
unicode = 89;
},
{
glyphname = Z;
kernLeft = Z;
kernRight = Z;
lastChange = "2025-01-08 14:30:26 +0000";
layers = (
{
anchors = (
{
name = top;
pos = (302,688);
}
);
background = {
shapes = (
{
closed = 1;
nodes = (
(551,82,l),
(157,82,l),
(157,84,l),
(548,626,l),
(548,700,l),
(48,700,l),
(48,618,l),
(441,618,l),
(441,615,l),
(48,76,l),
(48,0,l),
(551,0,l)
);
}
);
};
guides = (
{
name = "UC mark bottom";
pos = (0,775);
},
{
name = "UC mark top";
pos = (0,926);
}
);
layerId = "1C9972D2-AAA2-4EE5-9F28-188B121D2056";
shapes = (
{
closed = 1;
nodes = (
(551,82,l),
(157,82,l),
(157,84,l),
(548,626,l),
(548,700,l),
(48,700,l),
(48,618,l),
(441,618,l),
(441,615,l),
(48,76,l),
(48,0,l),
(551,0,l)
);
}
);
width = 588;
}
);
unicode = 90;
},
{
glyphname = a;
kernLeft = a;
kernRight = a;
lastChange = "2025-01-08 19:28:54 +0000";
layers = (
{
anchors = (
{
name = ogonek;
pos = (456,0);
},
{
name = top;
pos = (240,532);
}
);
background = {
shapes = (
{
closed = 1;
nodes = (
(293,-12,o),
(347,32,o),
(372,63,c),
(374,63,l),
(374,0,l),
(456,0,l),
(456,334,ls),
(456,382,o),
(448,420,o),
(431,447,cs),
(398,502,o),
(328,532,o),
(248,532,cs),
(139,532,o),
(54,467,o),
(38,384,c),
(120,384,l),
(136,424,o),
(187,456,o),
(248,456,cs),
(290,456,o),
(370,446,o),
(370,346,cs),
(370,190,ls),
(370,117,o),
(307,64,o),
(230,64,cs),
(171,64,o),
(130,109,o),
(130,162,cs),
(130,215,o),
(155,248,o),
(248,248,cs),
(390,248,l),
(390,322,l),
(242,322,ls),
(119,322,o),
(44,259,o),
(44,160,cs),
(44,63,o),
(115,-12,o),
(218,-12,cs)
);
}
);
};
layerId = "1C9972D2-AAA2-4EE5-9F28-188B121D2056";
shapes = (
{
closed = 1;
nodes = (
(293,-12,o),
(347,32,o),
(372,63,c),
(374,63,l),
(374,0,l),
(456,0,l),
(456,334,ls),
(456,382,o),
(448,420,o),
(431,447,cs),
(398,502,o),
(328,532,o),
(248,532,cs),
(139,532,o),
(54,467,o),
(38,384,c),
(120,384,l),
(136,424,o),
(187,456,o),
(248,456,cs),
(290,456,o),
(370,446,o),
(370,346,cs),
(370,190,ls),
(370,117,o),
(307,64,o),
(230,64,cs),
(171,64,o),
(130,109,o),
(130,162,cs),
(130,215,o),
(155,248,o),
(248,248,cs),
(390,248,l),
(390,322,l),
(242,322,ls),
(119,322,o),
(44,259,o),
(44,160,cs),
(44,63,o),
(115,-12,o),
(218,-12,cs)
);
}
);
width = 512;
}
);
metricLeft = o;
unicode = 97;
},
{
glyphname = b;
kernLeft = b;
kernRight = b;
lastChange = "2025-01-08 14:11:07 +0000";
layers = (
{
background = {
shapes = (
{
closed = 1;
nodes = (
(439,-12,o),
(538,89,o),
(538,258,cs),
(538,401,o),
(448,530,o),
(308,530,cs),
(243,530,o),
(190,504,o),
(150,452,c),
(148,452,l),
(148,738,l),
(62,738,l),
(62,0,l),
(144,0,l),
(144,66,l),
(146,66,l),
(186,14,o),
(239,-12,o),
(304,-12,cs)
);
},
{
closed = 1;
nodes = (
(204,66,o),
(144,142,o),
(144,257,cs),
(144,372,o),
(206,447,o),
(299,447,cs),
(394,447,o),
(449,358,o),
(449,259,cs),
(449,142,o),
(391,66,o),
(298,66,cs)
);
}
);
};
layerId = "1C9972D2-AAA2-4EE5-9F28-188B121D2056";
shapes = (
{
closed = 1;
nodes = (
(439,-12,o),
(538,89,o),
(538,258,cs),
(538,401,o),
(448,530,o),
(308,530,cs),
(243,530,o),
(190,504,o),
(150,452,c),
(148,452,l),
(148,738,l),
(62,738,l),
(62,0,l),
(144,0,l),
(144,66,l),
(146,66,l),
(186,14,o),
(239,-12,o),
(304,-12,cs)
);
},
{
closed = 1;
nodes = (
(204,66,o),
(144,142,o),
(144,257,cs),
(144,372,o),
(206,447,o),
(299,447,cs),
(394,447,o),
(449,358,o),
(449,259,cs),
(449,142,o),
(391,66,o),
(298,66,cs)
);
}
);
width = 576;
}
);
metricRight = o;
unicode = 98;
},
{
glyphname = c;
kernLeft = c;
kernRight = c;
lastChange = "2025-01-08 13:57:27 +0000";
layers = (
{
anchors = (
{
name = bottom;
pos = (277,-13);
},
{
name = top;
pos = (276,530);
}
);
background = {
shapes = (
{
closed = 1;
nodes = (
(395,-10,o),
(477,68,o),
(492,168,c),
(406,168,l),
(393,113,o),
(351,70,o),
(278,70,cs),
(186,70,o),
(126,146,o),
(126,260,cs),
(126,374,o),
(188,450,o),
(276,450,cs),
(348,450,o),
(390,404,o),
(406,352,c),
(492,352,l),
(475,459,o),
(385,530,o),
(276,530,cs),
(132,530,o),
(38,416,o),
(38,260,cs),
(38,95,o),
(139,-10,o),
(276,-10,cs)
);
}
);
};
guides = (
{
name = "UC mark bottom";
pos = (0,607);
},
{
name = "UC mark top";
pos = (0,758);
}
);
layerId = "1C9972D2-AAA2-4EE5-9F28-188B121D2056";
shapes = (
{
closed = 1;
nodes = (
(395,-12,o),
(477,68,o),
(492,168,c),
(406,168,l),
(393,113,o),
(351,70,o),
(278,70,cs),
(186,70,o),
(126,146,o),
(126,260,cs),
(126,374,o),
(188,450,o),
(276,450,cs),
(348,450,o),
(390,404,o),
(406,352,c),
(492,352,l),
(475,459,o),
(385,530,o),
(276,530,cs),
(132,530,o),
(38,416,o),
(38,260,cs),
(38,95,o),
(139,-12,o),
(276,-12,cs)
);
}
);
width = 530;
}
);
metricLeft = o;
metricRight = o;
unicode = 99;
},
{
glyphname = d;
kernLeft = c;
lastChange = "2024-12-11 03:28:41 +0000";
layers = (
{
background = {
shapes = (
{
closed = 1;
nodes = (
(337,-12,o),
(390,14,o),
(430,66,c),
(432,66,l),
(432,0,l),
(514,0,l),
(514,738,l),
(428,738,l),
(428,452,l),
(426,452,l),
(386,504,o),
(333,530,o),
(268,530,cs),
(128,530,o),
(38,401,o),
(38,258,cs),
(38,89,o),
(137,-12,o),
(272,-12,cs)
);
},
{
closed = 1;
nodes = (
(185,66,o),
(127,142,o),
(127,259,cs),
(127,358,o),
(182,447,o),
(277,447,cs),
(370,447,o),
(432,372,o),
(432,257,cs),
(432,142,o),
(372,66,o),
(278,66,cs)
);
}
);
};
layerId = "1C9972D2-AAA2-4EE5-9F28-188B121D2056";
shapes = (
{
closed = 1;
nodes = (
(337,-12,o),
(390,14,o),
(430,66,c),
(432,66,l),
(432,0,l),
(514,0,l),
(514,738,l),
(428,738,l),
(428,452,l),
(426,452,l),
(386,504,o),
(333,530,o),
(268,530,cs),
(128,530,o),
(38,401,o),
(38,258,cs),
(38,89,o),
(137,-12,o),
(272,-12,cs)
);
},
{
closed = 1;
nodes = (
(185,66,o),
(127,142,o),
(127,259,cs),
(127,358,o),
(182,447,o),
(277,447,cs),
(370,447,o),
(432,372,o),
(432,257,cs),
(432,142,o),
(372,66,o),
(278,66,cs)
);
}
);
width = 576;
}
);
unicode = 100;
},
{
glyphname = e;
kernLeft = c;
kernRight = b;
lastChange = "2025-01-08 14:21:46 +0000";
layers = (
{
anchors = (
{
name = top;
pos = (276,532);
}
);
background = {
shapes = (
{
closed = 1;
nodes = (
(378,-12,o),
(468,39,o),
(490,130,c),
(402,130,l),
(391,96,o),
(347,64,o),
(284,64,cs),
(193,64,o),
(128,129,o),
(128,234,cs),
(128,300,ls),
(128,389,o),
(187,454,o),
(274,454,cs),
(357,454,o),
(408,392,o),
(408,300,cs),
(408,293,l),
(423,313,l),
(88,313,l),
(88,239,l),
(496,239,l),
(496,283,ls),
(496,440,o),
(404,532,o),
(276,532,cs),
(138,532,o),
(38,431,o),
(38,262,cs),
(38,112,o),
(119,-12,o),
(282,-12,cs)
);
}
);
};
guides = (
{
name = "UC mark bottom";
pos = (0,607);
},
{
name = "UC mark top";
pos = (0,758);
}
);
layerId = "1C9972D2-AAA2-4EE5-9F28-188B121D2056";
shapes = (
{
closed = 1;
nodes = (
(378,-12,o),
(468,39,o),
(490,130,c),
(402,130,l),
(391,96,o),
(347,64,o),
(284,64,cs),
(193,64,o),
(128,129,o),
(128,234,cs),
(128,300,ls),
(128,389,o),
(187,454,o),
(274,454,cs),
(357,454,o),
(408,392,o),
(408,300,cs),
(408,293,l),
(423,313,l),
(88,313,l),
(88,239,l),
(496,239,l),
(496,283,ls),
(496,440,o),
(404,532,o),
(276,532,cs),
(138,532,o),
(38,431,o),
(38,262,cs),
(38,112,o),
(119,-12,o),
(282,-12,cs)
);
}
);
width = 534;
}
);
metricLeft = o;
metricRight = o;
unicode = 101;
},
{
glyphname = f;
kernLeft = f;
kernRight = f;
lastChange = "2024-12-11 03:28:41 +0000";
layers = (
{
background = {
shapes = (
{
closed = 1;
nodes = (
(206,0,l),
(206,566,ls),
(206,626,o),
(233,650,o),
(286,650,cs),
(354,650,l),
(354,728,l),
(280,728,ls),
(176,728,o),
(120,672,o),
(120,568,cs),
(120,0,l)
);
},
{
closed = 1;
nodes = (
(314,444,l),
(314,520,l),
(34,520,l),
(34,444,l)
);
}
);
};
layerId = "1C9972D2-AAA2-4EE5-9F28-188B121D2056";
shapes = (
{
closed = 1;
nodes = (
(206,0,l),
(206,566,ls),
(206,626,o),
(233,650,o),
(286,650,cs),
(354,650,l),
(354,728,l),
(280,728,ls),
(176,728,o),
(120,672,o),
(120,568,cs),
(120,0,l)
);
},
{
closed = 1;
nodes = (
(314,444,l),
(314,520,l),
(34,520,l),
(34,444,l)
);
}
);
width = 354;
}
);
unicode = 102;
},
{
glyphname = g;
kernLeft = c;
lastChange = "2025-01-08 13:58:06 +0000";
layers = (
{
anchors = (
{
name = top;
pos = (268,532);
}
);
background = {
shapes = (
{
closed = 1;
nodes = (
(415,-202,o),
(514,-117,o),
(514,26,cs),
(514,520,l),
(430,520,l),
(430,454,l),
(426,454,l),
(398,501,o),
(339,532,o),
(268,532,cs),
(128,532,o),
(38,414,o),
(38,262,cs),
(38,105,o),
(133,-12,o),
(266,-12,cs),
(337,-12,o),
(392,24,o),
(424,72,c),
(428,72,l),
(428,26,ls),
(428,-72,o),
(372,-124,o),
(280,-124,cs),
(200,-124,o),
(163,-87,o),
(148,-42,c),
(62,-42,l),
(74,-127,o),
(150,-202,o),
(278,-202,cs)
);
},
{
closed = 1;
nodes = (
(191,70,o),
(126,152,o),
(126,262,cs),
(126,376,o),
(191,450,o),
(276,450,cs),
(366,450,o),
(430,378,o),
(430,264,cs),
(430,260,ls),
(430,150,o),
(366,70,o),
(276,70,cs)
);
}
);
};
guides = (
{
name = "UC mark bottom";
pos = (0,607);
},
{
name = "UC mark top";
pos = (0,758);
}
);
layerId = "1C9972D2-AAA2-4EE5-9F28-188B121D2056";
shapes = (
{
closed = 1;
nodes = (
(415,-202,o),
(514,-117,o),
(514,26,cs),
(514,520,l),
(430,520,l),
(430,454,l),
(426,454,l),
(398,501,o),
(339,532,o),
(268,532,cs),
(128,532,o),
(38,414,o),
(38,262,cs),
(38,105,o),
(133,-12,o),
(266,-12,cs),
(337,-12,o),
(392,24,o),
(424,72,c),
(428,72,l),
(428,26,ls),
(428,-72,o),
(372,-124,o),
(280,-124,cs),
(200,-124,o),
(163,-87,o),
(148,-42,c),
(62,-42,l),
(74,-127,o),
(150,-202,o),
(278,-202,cs)
);
},
{
closed = 1;
nodes = (
(191,70,o),
(126,152,o),
(126,262,cs),
(126,376,o),
(191,450,o),
(276,450,cs),
(366,450,o),
(430,378,o),
(430,264,cs),
(430,260,ls),
(430,150,o),
(366,70,o),
(276,70,cs)
);
}
);
width = 578;
}
);
unicode = 103;
},
{
glyphname = h;
kernLeft = b;
kernRight = h;
lastChange = "2025-01-08 13:59:35 +0000";
layers = (
{
background = {
shapes = (
{
closed = 1;
nodes = (
(150,0,l),
(150,246,ls),
(150,317,o),
(153,360,o),
(160,376,cs),
(182,428,o),
(225,454,o),
(288,454,cs),
(340,454,o),
(376,424,o),
(392,384,cs),
(399,363,o),
(402,330,o),
(402,286,cs),
(402,0,l),
(488,0,l),
(488,292,ls),
(488,433,o),
(443,532,o),
(302,532,cs),
(246,532,o),
(184,513,o),
(152,464,c),
(150,464,l),
(150,740,l),
(64,740,l),
(64,0,l)
);
}
);
};
guides = (
{
name = "UC mark bottom";
pos = (0,607);
},
{
name = "UC mark top";
pos = (0,758);
}
);
layerId = "1C9972D2-AAA2-4EE5-9F28-188B121D2056";
shapes = (
{
closed = 1;
nodes = (
(150,0,l),
(150,246,ls),
(150,317,o),
(153,360,o),
(160,376,cs),
(182,428,o),
(225,454,o),
(288,454,cs),
(340,454,o),
(376,424,o),
(392,384,cs),
(399,363,o),
(402,330,o),
(402,286,cs),
(402,0,l),
(488,0,l),
(488,292,ls),
(488,433,o),
(443,532,o),
(302,532,cs),
(246,532,o),
(184,513,o),
(152,464,c),
(150,464,l),
(150,740,l),
(64,740,l),
(64,0,l)
);
}
);
width = 548;
}
);
unicode = 104;
},
{
glyphname = i;
kernLeft = i;
kernRight = i;
lastChange = "2025-01-08 13:59:38 +0000";
layers = (
{
anchors = (
{
name = bottom;
pos = (119,0);
},
{
name = ogonek;
pos = (162,0);
},
{
name = top;
pos = (119,520);
}
);
background = {
anchors = (
{
name = bottom;
pos = (122,0);
},
{
name = ogonek;
pos = (162,0);
},
{
name = top;
pos = (120,520);
}
);
shapes = (
{
closed = 1;
nodes = (
(162,0,l),
(162,520,l),
(77,520,l),
(77,0,l)
);
},
{
pos = (49,-3);
ref = dotaccentcomb;
}
);
};
guides = (
{
pos = (66,607);
},
{
pos = (52,758);
},
{
name = "UC mark bottom";
pos = (0,607);
},
{
name = "UC mark top";
pos = (0,758);
}
);
layerId = "1C9972D2-AAA2-4EE5-9F28-188B121D2056";
shapes = (
{
closed = 1;
nodes = (
(162,0,l),
(162,520,l),
(77,520,l),
(77,0,l)
);
},
{
pos = (53,-3);
ref = dotaccentcomb;
}
);
width = 238;
}
);
unicode = 105;
},
{
glyphname = k;
kernLeft = b;
kernRight = k;
lastChange = "2025-01-08 13:59:43 +0000";
layers = (
{
background = {
shapes = (
{
closed = 1;
nodes = (
(500,0,l),
(249,310,l),
(249,286,l),
(486,520,l),
(376,520,l),
(128,278,l),
(128,179,l),
(199,242,l),
(388,0,l)
);
},
{
closed = 1;
nodes = (
(150,0,l),
(150,728,l),
(64,728,l),
(64,0,l)
);
}
);
};
guides = (
{
name = "UC mark bottom";
pos = (0,607);
},
{
name = "UC mark top";
pos = (0,758);
}
);
layerId = "1C9972D2-AAA2-4EE5-9F28-188B121D2056";
shapes = (
{
closed = 1;
nodes = (
(500,0,l),
(249,310,l),
(249,286,l),
(486,520,l),
(376,520,l),
(128,278,l),
(128,179,l),
(199,242,l),
(388,0,l)
);
},
{
closed = 1;
nodes = (
(150,0,l),
(150,728,l),
(64,728,l),
(64,0,l)
);
}
);
width = 506;
}
);
unicode = 107;
},
{
glyphname = l;
kernLeft = b;
kernRight = d;
lastChange = "2025-01-08 13:59:44 +0000";
layers = (
{
anchors = (
{
name = top;
pos = (120,741);
}
);
background = {
shapes = (
{
closed = 1;
nodes = (
(161,0,l),
(161,733,l),
(75,733,l),
(75,0,l)
);
}
);
};
guides = (
{
name = "UC mark bottom";
pos = (0,607);
},
{
name = "UC mark top";
pos = (0,758);
}
);
layerId = "1C9972D2-AAA2-4EE5-9F28-188B121D2056";
shapes = (
{
closed = 1;
nodes = (
(161,0,l),
(161,740,l),
(75,740,l),
(75,0,l)
);
}
);
width = 236;
}
);
unicode = 108;
},
{
glyphname = m;
kernLeft = m;
kernRight = h;
lastChange = "2025-01-08 13:59:46 +0000";
layers = (
{
background = {
shapes = (
{
closed = 1;
nodes = (
(786,0,l),
(786,336,ls),
(786,469,o),
(709,532,o),
(602,532,cs),
(516,532,o),
(441,478,o),
(418,398,c),
(468,334,l),
(468,400,o),
(514,455,o),
(594,455,cs),
(657,455,o),
(700,410,o),
(700,328,cs),
(700,0,l)
);
},
{
closed = 1;
nodes = (
(150,0,l),
(150,520,l),
(64,520,l),
(64,0,l)
);
},
{
closed = 1;
nodes = (
(468,0,l),
(468,330,ls),
(468,453,o),
(403,532,o),
(290,532,cs),
(199,532,o),
(135,473,o),
(114,392,c),
(150,314,l),
(150,399,o),
(191,455,o),
(274,455,cs),
(335,455,o),
(382,413,o),
(382,330,cs),
(382,0,l)
);
},
{
closed = 1;
nodes = (
(154,464,l),
(154,469,l),
(148,469,l),
(148,464,l)
);
},
{
closed = 1;
nodes = (
(444,446,l),
(444,451,l),
(438,451,l),
(438,446,l)
);
}
);
};
guides = (
{
name = "UC mark bottom";
pos = (0,607);
},
{
name = "UC mark top";
pos = (0,758);
}
);
layerId = "1C9972D2-AAA2-4EE5-9F28-188B121D2056";
shapes = (
{
closed = 1;
nodes = (
(786,0,l),
(786,336,ls),
(786,469,o),
(709,532,o),
(602,532,cs),
(537,532,o),
(478,501,o),
(443,451,c),
(440,451,l),
(411,502,o),
(359,532,o),
(290,532,cs),
(232,532,o),
(184,508,o),
(152,469,c),
(150,469,l),
(150,520,l),
(64,520,l),
(64,0,l),
(150,0,l),
(150,314,ls),
(150,399,o),
(191,455,o),
(274,455,cs),
(335,455,o),
(382,413,o),
(382,330,cs),
(382,0,l),
(468,0,l),
(468,330,l),
(468,334,ls),
(468,400,o),
(514,455,o),
(594,455,cs),
(657,455,o),
(700,410,o),
(700,328,cs),
(700,0,l)
);
}
);
width = 850;
}
);
unicode = 109;
},
{
glyphname = n;
kernLeft = m;
kernRight = h;
lastChange = "2025-01-08 14:09:21 +0000";
layers = (
{
anchors = (
{
name = bottom;
pos = (287,0);
},
{
name = top;
pos = (289,532);
}
);
background = {
shapes = (
{
closed = 1;
nodes = (
(150,0,l),
(150,246,ls),
(150,320,o),
(153,359,o),
(160,376,cs),
(182,429,o),
(229,454,o),
(284,454,cs),
(336,454,o),
(376,428,o),
(392,388,cs),
(399,367,o),
(403,332,o),
(403,283,cs),
(403,0,l),
(489,0,l),
(489,289,ls),
(489,438,o),
(439,532,o),
(302,532,cs),
(246,532,o),
(184,513,o),
(152,464,c),
(150,464,l),
(150,520,l),
(64,520,l),
(64,0,l)
);
}
);
};
guides = (
{
name = "UC mark bottom";
pos = (0,607);
},
{
name = "UC mark top";
pos = (0,758);
}
);
layerId = "1C9972D2-AAA2-4EE5-9F28-188B121D2056";
shapes = (
{
closed = 1;
nodes = (
(150,0,l),
(150,246,ls),
(150,320,o),
(153,359,o),
(160,376,cs),
(182,429,o),
(229,454,o),
(284,454,cs),
(336,454,o),
(376,428,o),
(392,388,cs),
(399,367,o),
(403,332,o),
(403,283,cs),
(403,0,l),
(489,0,l),
(489,289,ls),
(489,438,o),
(439,532,o),
(302,532,cs),
(246,532,o),
(184,513,o),
(152,464,c),
(150,464,l),
(150,520,l),
(64,520,l),
(64,0,l)
);
}
);
width = 548;
}
);
unicode = 110;
},
{
glyphname = o;
kernLeft = c;
kernRight = b;
lastChange = "2025-01-08 14:01:01 +0000";
layers = (
{
anchors = (
{
name = top;
pos = (278,532);
}
);
background = {
shapes = (
{
closed = 1;
nodes = (
(439,-12,o),
(518,106,o),
(518,260,cs),
(518,402,o),
(447,532,o),
(278,532,cs),
(110,532,o),
(38,406,o),
(38,260,cs),
(38,118,o),
(107,-12,o),
(278,-12,cs)
);
},
{
closed = 1;
nodes = (
(157,64,o),
(124,167,o),
(124,260,cs),
(124,346,o),
(153,456,o),
(278,456,cs),
(398,456,o),
(432,349,o),
(432,260,cs),
(432,170,o),
(399,64,o),
(278,64,cs)
);
}
);
};
guides = (
{
name = "UC mark bottom";
pos = (0,607);
},
{
name = "UC mark top";
pos = (0,758);
}
);
layerId = "1C9972D2-AAA2-4EE5-9F28-188B121D2056";
shapes = (
{
closed = 1;
nodes = (
(439,-12,o),
(518,106,o),
(518,260,cs),
(518,402,o),
(447,532,o),
(278,532,cs),
(110,532,o),
(38,406,o),
(38,260,cs),
(38,118,o),
(107,-12,o),
(278,-12,cs)
);
},
{
closed = 1;
nodes = (
(157,64,o),
(124,167,o),
(124,260,cs),
(124,346,o),
(153,456,o),
(278,456,cs),
(398,456,o),
(432,349,o),
(432,260,cs),
(432,170,o),
(399,64,o),
(278,64,cs)
);
}
);
width = 556;
}
);
unicode = 111;
},
{
glyphname = p;
kernLeft = m;
kernRight = b;
lastChange = "2025-01-08 14:01:00 +0000";
layers = (
{
background = {
shapes = (
{
closed = 1;
nodes = (
(148,-186,l),
(148,68,l),
(150,68,l),
(183,15,o),
(235,-12,o),
(306,-12,cs),
(443,-12,o),
(539,89,o),
(539,258,cs),
(539,426,o),
(438,532,o),
(311,532,cs),
(249,532,o),
(195,508,o),
(148,453,c),
(146,453,l),
(146,520,l),
(64,520,l),
(64,-186,l)
);
},
{
closed = 1;
nodes = (
(193,66,o),
(147,149,o),
(147,262,cs),
(147,389,o),
(212,454,o),
(301,454,cs),
(397,454,o),
(451,366,o),
(451,262,cs),
(451,148,o),
(401,66,o),
(301,66,cs)
);
}
);
};
guides = (
{
pos = (198,-186);
},
{
name = "UC mark bottom";
pos = (0,607);
},
{
name = "UC mark top";
pos = (0,758);
}
);
layerId = "1C9972D2-AAA2-4EE5-9F28-188B121D2056";
shapes = (
{
closed = 1;
nodes = (
(148,-186,l),
(148,68,l),
(150,68,l),
(183,15,o),
(235,-12,o),
(306,-12,cs),
(443,-12,o),
(539,89,o),
(539,258,cs),
(539,426,o),
(438,532,o),
(311,532,cs),
(249,532,o),
(195,508,o),
(148,453,c),
(146,453,l),
(146,520,l),
(64,520,l),
(64,-186,l)
);
},
{
closed = 1;
nodes = (
(193,66,o),
(147,149,o),
(147,262,cs),
(147,389,o),
(212,454,o),
(301,454,cs),
(397,454,o),
(451,366,o),
(451,262,cs),
(451,148,o),
(401,66,o),
(301,66,cs)
);
}
);
width = 577;
}
);
metricLeft = n;
metricRight = o;
unicode = 112;
},
{
glyphname = q;
kernLeft = c;
kernRight = q;
lastChange = "2025-01-08 14:01:02 +0000";
layers = (
{
background = {
shapes = (
{
closed = 1;
nodes = (
(513,520,l),
(431,520,l),
(431,453,l),
(429,453,l),
(382,508,o),
(328,532,o),
(266,532,cs),
(139,532,o),
(38,426,o),
(38,258,cs),
(38,89,o),
(134,-12,o),
(271,-12,cs),
(342,-12,o),
(394,15,o),
(427,68,c),
(429,68,l),
(429,-186,l),
(513,-186,l)
);
},
{
closed = 1;
nodes = (
(176,66,o),
(126,148,o),
(126,262,cs),
(126,366,o),
(180,454,o),
(276,454,cs),
(365,454,o),
(430,389,o),
(430,262,cs),
(430,149,o),
(384,66,o),
(276,66,cs)
);
}
);
};
guides = (
{
name = "UC mark bottom";
pos = (0,607);
},
{
name = "UC mark top";
pos = (0,758);
}
);
layerId = "1C9972D2-AAA2-4EE5-9F28-188B121D2056";
shapes = (
{
closed = 1;
nodes = (
(513,520,l),
(431,520,l),
(431,453,l),
(429,453,l),
(382,508,o),
(328,532,o),
(266,532,cs),
(139,532,o),
(38,426,o),
(38,258,cs),
(38,89,o),
(134,-12,o),
(271,-12,cs),
(342,-12,o),
(394,15,o),
(427,68,c),
(429,68,l),
(429,-186,l),
(513,-186,l)
);
},
{
closed = 1;
nodes = (
(176,66,o),
(126,148,o),
(126,262,cs),
(126,366,o),
(180,454,o),
(276,454,cs),
(365,454,o),
(430,389,o),
(430,262,cs),
(430,149,o),
(384,66,o),
(276,66,cs)
);
}
);
width = 577;
}
);
unicode = 113;
},
{
glyphname = r;
kernLeft = m;
kernRight = r;
lastChange = "2025-01-08 14:02:58 +0000";
layers = (
{
anchors = (
{
name = top;
pos = (209,522);
}
);
background = {
shapes = (
{
closed = 1;
nodes = (
(146,0,l),
(146,267,ls),
(146,306,o),
(150,336,o),
(157,355,cs),
(178,410,o),
(220,440,o),
(293,440,cs),
(323,440,l),
(323,524,l),
(298,524,ls),
(227,524,o),
(173,488,o),
(148,433,c),
(146,433,l),
(146,520,l),
(64,520,l),
(64,0,l)
);
}
);
};
guides = (
{
name = "UC mark bottom";
pos = (0,607);
},
{
name = "UC mark top";
pos = (0,758);
},
{
name = "UC mark bottom";
pos = (0,607);
},
{
name = "UC mark top";
pos = (0,758);
}
);
layerId = "1C9972D2-AAA2-4EE5-9F28-188B121D2056";
shapes = (
{
closed = 1;
nodes = (
(146,0,l),
(146,267,ls),
(146,306,o),
(150,336,o),
(157,355,cs),
(178,410,o),
(220,440,o),
(293,440,cs),
(323,440,l),
(323,524,l),
(298,524,ls),
(227,524,o),
(173,488,o),
(148,433,c),
(146,433,l),
(146,520,l),
(64,520,l),
(64,0,l)
);
}
);
width = 343;
}
);
metricLeft = n;
unicode = 114;
},
{
glyphname = s;
kernLeft = s;
kernRight = s;
lastChange = "2025-01-08 14:09:36 +0000";
layers = (
{
anchors = (
{
name = bottom;
pos = (255,-12);
},
{
name = top;
pos = (242,520);
}
);
background = {
shapes = (
{
closed = 1;
nodes = (
(360,-12,o),
(448,45,o),
(448,150,cs),
(448,258,o),
(390,291,o),
(302,304,cs),
(210,318,ls),
(162,325,o),
(138,344,o),
(138,380,cs),
(138,423,o),
(178,456,o),
(242,456,cs),
(299,456,o),
(338,432,o),
(354,388,c),
(438,388,l),
(422,475,o),
(350,532,o),
(242,532,cs),
(128,532,o),
(52,460,o),
(52,374,cs),
(52,291,o),
(107,252,o),
(196,239,cs),
(286,226,ls),
(333,219,o),
(362,182,o),
(362,146,cs),
(362,95,o),
(320,66,o),
(252,66,cs),
(184,66,o),
(137,93,o),
(126,142,c),
(42,142,l),
(53,69,o),
(95,24,o),
(156,4,cs),
(187,-6,o),
(219,-12,o),
(254,-12,cs)
);
}
);
};
guides = (
{
name = "UC mark bottom";
pos = (0,607);
},
{
name = "UC mark top";
pos = (0,758);
}
);
layerId = "1C9972D2-AAA2-4EE5-9F28-188B121D2056";
shapes = (
{
closed = 1;
nodes = (
(360,-12,o),
(448,45,o),
(448,150,cs),
(448,258,o),
(390,291,o),
(302,304,cs),
(210,318,ls),
(162,325,o),
(138,344,o),
(138,380,cs),
(138,423,o),
(178,456,o),
(242,456,cs),
(299,456,o),
(338,432,o),
(354,388,c),
(438,388,l),
(422,475,o),
(350,532,o),
(242,532,cs),
(128,532,o),
(52,460,o),
(52,374,cs),
(52,291,o),
(107,252,o),
(196,239,cs),
(286,226,ls),
(333,219,o),
(362,182,o),
(362,146,cs),
(362,95,o),
(320,66,o),
(252,66,cs),
(184,66,o),
(137,93,o),
(126,142,c),
(42,142,l),
(53,69,o),
(95,24,o),
(156,4,cs),
(187,-6,o),
(219,-12,o),
(254,-12,cs)
);
}
);
width = 490;
}
);
unicode = 115;
},
{
glyphname = t;
kernLeft = t;
kernRight = t;
lastChange = "2025-01-08 14:09:46 +0000";
layers = (
{
anchors = (
{
name = bottom;
pos = (207,0);
}
);
background = {
shapes = (
{
closed = 1;
nodes = (
(300,-12,l),
(300,66,l),
(266,66,ls),
(218,66,o),
(190,83,o),
(190,146,cs),
(190,626,l),
(104,626,l),
(104,142,ls),
(104,37,o),
(153,-12,o),
(252,-12,cs)
);
},
{
closed = 1;
nodes = (
(300,444,l),
(300,520,l),
(20,520,l),
(20,444,l)
);
}
);
};
guides = (
{
name = "UC mark bottom";
pos = (0,607);
},
{
name = "UC mark top";
pos = (0,758);
}
);
layerId = "1C9972D2-AAA2-4EE5-9F28-188B121D2056";
shapes = (
{
closed = 1;
nodes = (
(300,-12,l),
(300,66,l),
(266,66,ls),
(218,66,o),
(190,83,o),
(190,146,cs),
(190,626,l),
(104,626,l),
(104,142,ls),
(104,37,o),
(153,-12,o),
(252,-12,cs)
);
},
{
closed = 1;
nodes = (
(300,444,l),
(300,520,l),
(20,520,l),
(20,444,l)
);
}
);
width = 340;
}
);
unicode = 116;
},
{
glyphname = u;
kernLeft = u;
kernRight = q;
lastChange = "2025-01-08 14:03:01 +0000";
layers = (
{
anchors = (
{
name = ogonek;
pos = (484,0);
},
{
name = top;
pos = (272,552);
}
);
background = {
shapes = (
{
closed = 1;
nodes = (
(398,520,l),
(398,274,ls),
(398,200,o),
(395,157,o),
(388,144,cs),
(361,92,o),
(319,66,o),
(264,66,cs),
(212,66,o),
(172,92,o),
(156,132,cs),
(149,153,o),
(145,188,o),
(145,237,cs),
(145,520,l),
(59,520,l),
(59,231,ls),
(59,82,o),
(109,-12,o),
(246,-12,cs),
(302,-12,o),
(364,7,o),
(396,56,c),
(398,56,l),
(398,0,l),
(484,0,l),
(484,520,l)
);
}
);
};
guides = (
{
name = "UC mark bottom";
pos = (0,607);
},
{
name = "UC mark top";
pos = (0,758);
}
);
layerId = "1C9972D2-AAA2-4EE5-9F28-188B121D2056";
shapes = (
{
closed = 1;
nodes = (
(398,520,l),
(398,274,ls),
(398,200,o),
(395,157,o),
(388,144,cs),
(361,92,o),
(319,66,o),
(264,66,cs),
(212,66,o),
(172,92,o),
(156,132,cs),
(149,153,o),
(145,188,o),
(145,237,cs),
(145,520,l),
(59,520,l),
(59,231,ls),
(59,82,o),
(109,-12,o),
(246,-12,cs),
(302,-12,o),
(364,7,o),
(396,56,c),
(398,56,l),
(398,0,l),
(484,0,l),
(484,520,l)
);
}
);
width = 548;
}
);
unicode = 117;
},
{
glyphname = v;
kernLeft = v;
kernRight = v;
lastChange = "2025-01-08 14:03:03 +0000";
layers = (
{
background = {
shapes = (
{
closed = 1;
nodes = (
(298,0,l),
(494,520,l),
(402,520,l),
(306,256,l),
(255,110,l),
(251,110,l),
(200,256,l),
(104,520,l),
(12,520,l),
(208,0,l)
);
}
);
};
guides = (
{
name = "UC mark bottom";
pos = (0,607);
},
{
name = "UC mark top";
pos = (0,758);
}
);
layerId = "1C9972D2-AAA2-4EE5-9F28-188B121D2056";
shapes = (
{
closed = 1;
nodes = (
(298,0,l),
(494,520,l),
(402,520,l),
(306,256,l),
(255,110,l),
(251,110,l),
(200,256,l),
(104,520,l),
(12,520,l),
(208,0,l)
);
}
);
width = 506;
}
);
unicode = 118;
},
{
glyphname = w;
kernLeft = w;
kernRight = w;
lastChange = "2025-01-08 14:03:36 +0000";
layers = (
{
anchors = (
{
name = top;
pos = (386,520);
}
);
background = {
shapes = (
{
closed = 1;
nodes = (
(263,0,l),
(342,268,ls),
(352,301,o),
(364,349,o),
(379,411,c),
(382,411,l),
(398,349,o),
(411,301,o),
(421,268,cs),
(499,0,l),
(585,0,l),
(748,520,l),
(658,520,l),
(573,241,ls),
(565,214,o),
(555,175,o),
(543,125,c),
(540,125,l),
(509,241,l),
(426,520,l),
(338,520,l),
(249,222,l),
(224,131,l),
(222,131,l),
(196,222,l),
(106,520,l),
(15,520,l),
(180,0,l)
);
}
);
};
guides = (
{
name = "UC mark bottom";
pos = (0,607);
},
{
name = "UC mark top";
pos = (0,758);
}
);
layerId = "1C9972D2-AAA2-4EE5-9F28-188B121D2056";
shapes = (
{
closed = 1;
nodes = (
(263,0,l),
(342,268,ls),
(352,301,o),
(364,349,o),
(379,411,c),
(382,411,l),
(398,349,o),
(411,301,o),
(421,268,cs),
(499,0,l),
(585,0,l),
(748,520,l),
(658,520,l),
(573,241,ls),
(565,214,o),
(555,175,o),
(543,125,c),
(540,125,l),
(509,241,l),
(426,520,l),
(338,520,l),
(249,222,l),
(224,131,l),
(222,131,l),
(196,222,l),
(106,520,l),
(15,520,l),
(180,0,l)
);
}
);
width = 762;
}
);
unicode = 119;
},
{
glyphname = x;
kernLeft = x;
kernRight = x;
lastChange = "2025-01-08 14:03:05 +0000";
layers = (
{
background = {
shapes = (
{
closed = 1;
nodes = (
(482,0,l),
(114,520,l),
(16,520,l),
(384,0,l)
);
},
{
closed = 1;
nodes = (
(112,0,l),
(260,216,l),
(204,278,l),
(14,0,l)
);
},
{
closed = 1;
nodes = (
(478,520,l),
(380,520,l),
(230,290,l),
(286,234,l)
);
}
);
};
guides = (
{
name = "UC mark bottom";
pos = (0,607);
},
{
name = "UC mark top";
pos = (0,758);
}
);
layerId = "1C9972D2-AAA2-4EE5-9F28-188B121D2056";
shapes = (
{
closed = 1;
nodes = (
(482,0,l),
(114,520,l),
(16,520,l),
(384,0,l)
);
},
{
closed = 1;
nodes = (
(112,0,l),
(260,216,l),
(204,278,l),
(14,0,l)
);
},
{
closed = 1;
nodes = (
(478,520,l),
(380,520,l),
(230,290,l),
(286,234,l)
);
}
);
width = 496;
}
);
unicode = 120;
},
{
glyphname = y;
kernLeft = v;
kernRight = y;
lastChange = "2025-01-08 20:18:57 +0000";
layers = (
{
anchors = (
{
name = top;
pos = (262,520);
}
);
background = {
shapes = (
{
closed = 1;
nodes = (
(238,-191,l),
(507,520,l),
(415,520,l),
(312,239,l),
(266,114,l),
(264,114,l),
(108,520,l),
(12,520,l),
(220,0,l),
(145,-191,l)
);
}
);
};
guides = (
{
name = "UC mark bottom";
pos = (0,607);
},
{
name = "UC mark top";
pos = (0,758);
}
);
layerId = "1C9972D2-AAA2-4EE5-9F28-188B121D2056";
shapes = (
{
closed = 1;
nodes = (
(238,-191,l),
(507,520,l),
(415,520,l),
(312,239,l),
(266,114,l),
(264,114,l),
(108,520,l),
(12,520,l),
(220,0,l),
(145,-191,l)
);
}
);
width = 519;
}
);
unicode = 121;
},
{
glyphname = z;
kernLeft = z;
kernRight = z;
lastChange = "2025-01-08 14:11:25 +0000";
layers = (
{
anchors = (
{
name = top;
pos = (224,520);
}
);
background = {
shapes = (
{
closed = 1;
nodes = (
(426,0,l),
(426,78,l),
(108,78,l),
(124,48,l),
(426,452,l),
(426,520,l),
(36,520,l),
(36,444,l),
(354,444,l),
(338,474,l),
(36,68,l),
(36,0,l)
);
}
);
};
guides = (
{
pos = (66,607);
},
{
pos = (52,758);
}
);
layerId = "1C9972D2-AAA2-4EE5-9F28-188B121D2056";
shapes = (
{
closed = 1;
nodes = (
(426,0,l),
(426,78,l),
(108,78,l),
(124,48,l),
(426,452,l),
(426,520,l),
(36,520,l),
(36,444,l),
(354,444,l),
(338,474,l),
(36,68,l),
(36,0,l)
);
}
);
width = 462;
}
);
unicode = 122;
},
{
glyphname = AE;
kernLeft = AE;
kernRight = E;
lastChange = "2024-12-11 03:28:41 +0000";
layers = (
{
background = {
shapes = (
{
closed = 1;
nodes = (
(118,0,l),
(228,186,l),
(470,186,l),
(470,0,l),
(559,0,l),
(559,700,l),
(435,700,l),
(22,0,l)
);
},
{
closed = 1;
nodes = (
(465,602,l),
(470,602,l),
(470,268,l),
(264,268,l)
);
},
{
alignment = -1;
pos = (384,0);
ref = E;
}
);
};
layerId = "1C9972D2-AAA2-4EE5-9F28-188B121D2056";
shapes = (
{
closed = 1;
nodes = (
(118,0,l),
(228,186,l),
(470,186,l),
(470,0,l),
(559,0,l),
(559,700,l),
(435,700,l),
(22,0,l)
);
},
{
closed = 1;
nodes = (
(465,602,l),
(470,602,l),
(470,268,l),
(264,268,l)
);
},
{
alignment = -1;
pos = (384,0);
ref = E;
}
);
width = 976;
}
);
metricLeft = A;
metricRight = E;
unicode = 198;
},
{
glyphname = Eng;
kernLeft = B;
kernRight = H;
lastChange = "2024-12-11 03:28:41 +0000";
layers = (
{
anchors = (
{
name = bottom;
pos = (628,-220);
},
{
name = top;
pos = (639,531);
}
);
background = {
anchors = (
{
name = bottom;
pos = (628,-220);
},
{
name = top;
pos = (639,531);
}
);
shapes = (
{
closed = 1;
nodes = (
(175,0,l),
(175,370,ls),
(175,469,o),
(173,539,o),
(173,586,c),
(177,586,l),
(200,539,o),
(235,479,o),
(283,408,cs),
(559,0,l),
(559,-15,ls),
(559,-82,o),
(530,-103,o),
(491,-103,cs),
(471,-103,l),
(471,-179,l),
(505,-179,ls),
(596,-179,o),
(645,-126,o),
(645,-19,cs),
(645,700,l),
(559,700,l),
(559,132,l),
(557,132,l),
(534,176,o),
(500,231,o),
(455,298,cs),
(185,700,l),
(86,700,l),
(86,0,l)
);
}
);
};
layerId = "1C9972D2-AAA2-4EE5-9F28-188B121D2056";
shapes = (
{
closed = 1;
nodes = (
(175,0,l),
(175,370,ls),
(175,469,o),
(173,539,o),
(173,586,c),
(177,586,l),
(200,539,o),
(235,479,o),
(283,408,cs),
(559,0,l),
(559,-15,ls),
(559,-82,o),
(530,-103,o),
(491,-103,cs),
(471,-103,l),
(471,-179,l),
(505,-179,ls),
(596,-179,o),
(645,-126,o),
(645,-19,cs),
(645,700,l),
(559,700,l),
(559,132,l),
(557,132,l),
(534,176,o),
(500,231,o),
(455,298,cs),
(185,700,l),
(86,700,l),
(86,0,l)
);
}
);
width = 731;
}
);
metricLeft = N;
metricRight = N;
unicode = 330;
},
{
glyphname = Thorn;
kernLeft = B;
kernRight = Thorn;
lastChange = "2024-12-11 03:28:41 +0000";
layers = (
{
background = {
shapes = (
{
closed = 1;
nodes = (
(176,0,l),
(176,550,l),
(156,530,l),
(322,530,ls),
(416,530,o),
(474,474,o),
(474,386,cs),
(474,299,o),
(417,242,o),
(322,242,cs),
(158,242,l),
(158,162,l),
(334,162,ls),
(426,162,o),
(500,205,o),
(537,274,cs),
(556,308,o),
(566,345,o),
(566,386,cs),
(566,469,o),
(528,540,o),
(457,580,cs),
(422,600,o),
(380,610,o),
(332,610,cs),
(176,610,l),
(176,700,l),
(86,700,l),
(86,0,l)
);
}
);
};
layerId = "1C9972D2-AAA2-4EE5-9F28-188B121D2056";
shapes = (
{
closed = 1;
nodes = (
(176,0,l),
(176,550,l),
(156,530,l),
(322,530,ls),
(416,530,o),
(474,474,o),
(474,386,cs),
(474,299,o),
(417,242,o),
(322,242,cs),
(158,242,l),
(158,162,l),
(334,162,ls),
(426,162,o),
(500,205,o),
(537,274,cs),
(556,308,o),
(566,345,o),
(566,386,cs),
(566,469,o),
(528,540,o),
(457,580,cs),
(422,600,o),
(380,610,o),
(332,610,cs),
(176,610,l),
(176,700,l),
(86,700,l),
(86,0,l)
);
}
);
width = 610;
}
);
metricLeft = P;
metricRight = P;
unicode = 222;
},
{
glyphname = Germandbls;
kernLeft = B;
kernRight = S;
lastChange = "2024-12-11 03:28:41 +0000";
layers = (
{
background = {
shapes = (
{
closed = 1;
nodes = (
(174,0,l),
(174,619,l),
(463,619,l),
(311,403,l),
(311,316,l),
(368,316,ls),
(451,316,o),
(497,278,o),
(497,201,cs),
(497,128,o),
(450,83,o),
(370,83,cs),
(277,83,l),
(277,0,l),
(374,0,ls),
(507,0,o),
(587,78,o),
(587,203,cs),
(587,318,o),
(522,381,o),
(406,398,c),
(551,608,l),
(551,700,l),
(86,700,l),
(86,0,l)
);
}
);
};
layerId = "1C9972D2-AAA2-4EE5-9F28-188B121D2056";
shapes = (
{
closed = 1;
nodes = (
(174,0,l),
(174,619,l),
(463,619,l),
(311,403,l),
(311,316,l),
(368,316,ls),
(451,316,o),
(497,278,o),
(497,201,cs),
(497,128,o),
(450,83,o),
(370,83,cs),
(277,83,l),
(277,0,l),
(374,0,ls),
(507,0,o),
(587,78,o),
(587,203,cs),
(587,318,o),
(522,381,o),
(406,398,c),
(551,608,l),
(551,700,l),
(86,700,l),
(86,0,l)
);
}
);
width = 629;
}
);
metricLeft = H;
metricRight = O;
unicode = 7838;
},
{
glyphname = ae;
kernLeft = a;
kernRight = a;
lastChange = "2024-12-11 03:28:41 +0000";
layers = (
{
background = {
shapes = (
{
closed = 1;
nodes = (
(293,-12,o),
(363,16,o),
(415,96,cs),
(456,160,l),
(456,334,ls),
(456,382,o),
(448,420,o),
(431,447,cs),
(398,502,o),
(328,532,o),
(248,532,cs),
(139,532,o),
(54,467,o),
(38,384,c),
(120,384,l),
(136,424,o),
(187,456,o),
(248,456,cs),
(290,456,o),
(370,452,o),
(370,346,cs),
(370,205,ls),
(370,125,o),
(309,64,o),
(230,64,cs),
(171,64,o),
(130,109,o),
(130,162,cs),
(130,215,o),
(155,248,o),
(248,248,cs),
(390,248,l),
(390,322,l),
(242,322,ls),
(119,322,o),
(44,259,o),
(44,160,cs),
(44,129,o),
(50,100,o),
(66,71,cs),
(98,14,o),
(154,-12,o),
(218,-12,cs)
);
},
{
alignment = -1;
pos = (331,0);
ref = e;
}
);
};
layerId = "1C9972D2-AAA2-4EE5-9F28-188B121D2056";
shapes = (
{
closed = 1;
nodes = (
(293,-12,o),
(363,16,o),
(415,96,cs),
(456,160,l),
(456,334,ls),
(456,382,o),
(448,420,o),
(431,447,cs),
(398,502,o),
(328,532,o),
(248,532,cs),
(139,532,o),
(54,467,o),
(38,384,c),
(120,384,l),
(136,424,o),
(187,456,o),
(248,456,cs),
(290,456,o),
(370,452,o),
(370,346,cs),
(370,205,ls),
(370,125,o),
(309,64,o),
(230,64,cs),
(171,64,o),
(130,109,o),
(130,162,cs),
(130,215,o),
(155,248,o),
(248,248,cs),
(390,248,l),
(390,322,l),
(242,322,ls),
(119,322,o),
(44,259,o),
(44,160,cs),
(44,129,o),
(50,100,o),
(66,71,cs),
(98,14,o),
(154,-12,o),
(218,-12,cs)
);
},
{
alignment = -1;
pos = (331,0);
ref = e;
}
);
width = 865;
}
);
metricLeft = a;
metricRight = e;
unicode = 230;
},
{
glyphname = eth;
kernLeft = c;
kernRight = b;
lastChange = "2025-01-07 18:43:04 +0000";
layers = (
{
background = {
shapes = (
{
closed = 1;
nodes = (
(365,-12,o),
(431,26,o),
(478,98,cs),
(524,169,o),
(600,464,o),
(326,738,c),
(212,738,l),
(314,642,o),
(381,560,o),
(416,450,c),
(414,450,l),
(374,489,o),
(325,510,o),
(268,510,cs),
(128,510,o),
(38,391,o),
(38,248,cs),
(38,79,o),
(137,-12,o),
(272,-12,cs)
);
},
{
closed = 1;
nodes = (
(185,66,o),
(127,132,o),
(127,249,cs),
(127,348,o),
(182,427,o),
(277,427,cs),
(370,427,o),
(432,372,o),
(432,257,cs),
(432,142,o),
(372,66,o),
(278,66,cs)
);
},
{
closed = 1;
nodes = (
(481,652,l),
(481,736,l),
(210,635,l),
(210,558,l)
);
}
);
};
guides = (
{
name = "UC mark bottom";
pos = (0,607);
},
{
name = "UC mark top";
pos = (0,758);
}
);
layerId = "1C9972D2-AAA2-4EE5-9F28-188B121D2056";
shapes = (
{
closed = 1;
nodes = (
(365,-12,o),
(431,26,o),
(478,98,cs),
(524,169,o),
(600,464,o),
(326,738,c),
(212,738,l),
(314,642,o),
(381,560,o),
(416,450,c),
(414,450,l),
(374,489,o),
(325,510,o),
(268,510,cs),
(128,510,o),
(38,391,o),
(38,248,cs),
(38,79,o),
(137,-12,o),
(272,-12,cs)
);
},
{
closed = 1;
nodes = (
(185,66,o),
(127,132,o),
(127,249,cs),
(127,348,o),
(182,427,o),
(277,427,cs),
(370,427,o),
(432,372,o),
(432,257,cs),
(432,142,o),
(372,66,o),
(278,66,cs)
);
},
{
closed = 1;
nodes = (
(481,652,l),
(481,736,l),
(210,635,l),
(210,558,l)
);
}
);
width = 562;
}
);
metricLeft = d;
metricRight = o;
unicode = 240;
},
{
glyphname = idotless;
kernLeft = i;
kernRight = i;
lastChange = "2024-12-11 03:28:41 +0000";
layers = (
{
anchors = (
{
name = bottom;
pos = (121,0);
},
{
name = ogonek;
pos = (160,0);
},
{
name = top;
pos = (118,520);
}
);
background = {
anchors = (
{
name = bottom;
pos = (121,0);
},
{
name = ogonek;
pos = (160,0);
},
{
name = top;
pos = (118,520);
}
);
shapes = (
{
closed = 1;
nodes = (
(160,0,l),
(160,520,l),
(75,520,l),
(75,0,l)
);
}
);
};
layerId = "1C9972D2-AAA2-4EE5-9F28-188B121D2056";
shapes = (
{
closed = 1;
nodes = (
(160,0,l),
(160,520,l),
(75,520,l),
(75,0,l)
);
}
);
width = 235;
}
);
metricLeft = l;
metricRight = l;
unicode = 305;
},
{
glyphname = iogonek;
kernLeft = i;
kernRight = i;
lastChange = "2025-01-08 14:05:00 +0000";
layers = (
{
anchors = (
{
name = bottom;
pos = (112,-201);
},
{
name = ogonek;
pos = (230,0);
},
{
name = top;
pos = (189,520);
}
);
background = {
anchors = (
{
name = bottom;
pos = (112,-201);
},
{
name = ogonek;
pos = (230,0);
},
{
name = top;
pos = (189,520);
}
);
shapes = (
{
closed = 1;
nodes = (
(235,-201,l),
(235,-129,l),
(221,-129,ls),
(171,-129,o),
(143,-129,o),
(143,-97,cs),
(143,-69,o),
(170,-48,o),
(232,0,c),
(146,0,l),
(108,-34,o),
(69,-74,o),
(69,-114,cs),
(69,-171,o),
(112,-201,o),
(201,-201,cs)
);
},
{
closed = 1;
nodes = (
(230,0,l),
(230,520,l),
(145,520,l),
(145,0,l)
);
},
{
pos = (121,-18);
ref = dotaccentcomb;
}
);
};
layerId = "1C9972D2-AAA2-4EE5-9F28-188B121D2056";
shapes = (
{
closed = 1;
nodes = (
(235,-201,l),
(235,-129,l),
(221,-129,ls),
(171,-129,o),
(143,-129,o),
(143,-97,cs),
(143,-69,o),
(168,-48,o),
(230,0,c),
(145,0,l),
(107,-34,o),
(69,-74,o),
(69,-114,cs),
(69,-171,o),
(112,-201,o),
(201,-201,cs)
);
},
{
closed = 1;
nodes = (
(230,0,l),
(230,520,l),
(145,520,l),
(145,0,l)
);
},
{
pos = (121,-18);
ref = dotaccentcomb;
}
);
width = 306;
}
);
metricLeft = i;
metricRight = i;
unicode = 303;
},
{
glyphname = jdotless;
kernLeft = j;
kernRight = i;
lastChange = "2025-01-07 19:03:08 +0000";
layers = (
{
anchors = (
{
name = bottom;
pos = (111,-231);
},
{
name = top;
pos = (122,520);
}
);
background = {
anchors = (
{
name = bottom;
pos = (111,-231);
},
{
name = top;
pos = (122,520);
}
);
shapes = (
{
closed = 1;
nodes = (
(24,-190,ls),
(115,-190,o),
(164,-137,o),
(164,-30,cs),
(164,520,l),
(78,520,l),
(78,-26,ls),
(78,-93,o),
(49,-114,o),
(10,-114,cs),
(-10,-114,l),
(-10,-190,l)
);
}
);
};
layerId = "1C9972D2-AAA2-4EE5-9F28-188B121D2056";
shapes = (
{
closed = 1;
nodes = (
(24,-190,ls),
(115,-190,o),
(164,-137,o),
(164,-30,cs),
(164,520,l),
(78,520,l),
(78,-26,ls),
(78,-93,o),
(49,-114,o),
(10,-114,cs),
(-10,-114,l),
(-10,-190,l)
);
}
);
width = 204;
}
);
unicode = 567;
},
{
glyphname = eng;
kernLeft = m;
kernRight = a;
lastChange = "2024-12-11 03:28:41 +0000";
layers = (
{
background = {
shapes = (
{
closed = 1;
nodes = (
(349,-190,ls),
(440,-190,o),
(489,-137,o),
(489,-30,cs),
(489,200,l),
(403,200,l),
(403,-26,ls),
(403,-93,o),
(374,-114,o),
(335,-114,cs),
(315,-114,l),
(315,-190,l)
);
},
{
alignment = -1;
ref = n;
}
);
};
layerId = "1C9972D2-AAA2-4EE5-9F28-188B121D2056";
shapes = (
{
closed = 1;
nodes = (
(349,-190,ls),
(440,-190,o),
(489,-137,o),
(489,-30,cs),
(489,200,l),
(403,200,l),
(403,-26,ls),
(403,-93,o),
(374,-114,o),
(335,-114,cs),
(315,-114,l),
(315,-190,l)
);
},
{
alignment = -1;
ref = n;
}
);
width = 548;
}
);
unicode = 331;
},
{
glyphname = oslash;
kernLeft = c;
kernRight = b;
lastChange = "2024-12-11 03:28:41 +0000";
layers = (
{
background = {
shapes = (
{
closed = 1;
nodes = (
(88,0,l),
(559,520,l),
(466,520,l),
(-9,0,l)
);
},
{
pos = (-2,0);
ref = o;
}
);
};
layerId = "1C9972D2-AAA2-4EE5-9F28-188B121D2056";
shapes = (
{
closed = 1;
nodes = (
(88,0,l),
(559,520,l),
(466,520,l),
(-9,0,l)
);
},
{
pos = (-2,0);
ref = o;
}
);
width = 554;
}
);
unicode = 248;
},
{
glyphname = oe;
kernLeft = c;
kernRight = e;
lastChange = "2024-12-11 03:28:41 +0000";
layers = (
{
background = {
shapes = (
{
closed = 1;
nodes = (
(486,419,l),
(486,432,l),
(464,432,l),
(464,419,l)
);
},
{
alignment = -1;
ref = o;
},
{
pos = (394,0);
ref = e;
},
{
closed = 1;
nodes = (
(488,86,l),
(488,99,l),
(466,99,l),
(466,86,l)
);
}
);
};
layerId = "1C9972D2-AAA2-4EE5-9F28-188B121D2056";
shapes = (
{
closed = 1;
nodes = (
(486,419,l),
(486,432,l),
(464,432,l),
(464,419,l)
);
},
{
alignment = -1;
ref = o;
},
{
pos = (394,0);
ref = e;
},
{
closed = 1;
nodes = (
(488,86,l),
(488,99,l),
(466,99,l),
(466,86,l)
);
}
);
width = 928;
}
);
metricLeft = o;
metricRight = o;
unicode = 339;
},
{
glyphname = thorn;
kernLeft = b;
kernRight = b;
lastChange = "2024-12-11 03:28:41 +0000";
layers = (
{
background = {
shapes = (
{
closed = 1;
nodes = (
(146,415,l),
(146,700,l),
(64,700,l),
(64,415,l)
);
},
{
ref = p;
}
);
};
layerId = "1C9972D2-AAA2-4EE5-9F28-188B121D2056";
shapes = (
{
closed = 1;
nodes = (
(146,415,l),
(146,700,l),
(64,700,l),
(64,415,l)
);
},
{
ref = p;
}
);
width = 577;
}
);
metricLeft = p;
metricRight = p;
unicode = 254;
},
{
glyphname = germandbls;
kernLeft = b;
kernRight = s;
lastChange = "2024-12-11 03:28:41 +0000";
layers = (
{
background = {
shapes = (
{
closed = 1;
nodes = (
(339,-10,ls),
(434,-10,o),
(507,28,o),
(548,92,cs),
(569,124,o),
(579,160,o),
(579,200,cs),
(579,267,o),
(548,314,o),
(509,341,cs),
(490,354,o),
(471,363,o),
(453,368,c),
(504,386,o),
(553,441,o),
(553,520,cs),
(553,635,o),
(460,715,o),
(322,715,cs),
(193,715,o),
(86,645,o),
(86,524,cs),
(86,0,l),
(174,0,l),
(174,524,ls),
(174,590,o),
(238,632,o),
(322,632,cs),
(408,632,o),
(462,585,o),
(462,517,cs),
(462,451,o),
(417,402,o),
(326,402,cs),
(275,402,l),
(275,321,l),
(332,321,ls),
(427,321,o),
(488,281,o),
(488,201,cs),
(488,122,o),
(427,73,o),
(339,73,cs),
(275,73,l),
(275,-10,l)
);
}
);
};
layerId = "1C9972D2-AAA2-4EE5-9F28-188B121D2056";
shapes = (
{
closed = 1;
nodes = (
(339,-10,ls),
(434,-10,o),
(507,28,o),
(548,92,cs),
(569,124,o),
(579,160,o),
(579,200,cs),
(579,267,o),
(548,314,o),
(509,341,cs),
(490,354,o),
(471,363,o),
(453,368,c),
(504,386,o),
(553,441,o),
(553,520,cs),
(553,635,o),
(460,715,o),
(322,715,cs),
(193,715,o),
(86,645,o),
(86,524,cs),
(86,0,l),
(174,0,l),
(174,524,ls),
(174,590,o),
(238,632,o),
(322,632,cs),
(408,632,o),
(462,585,o),
(462,517,cs),
(462,451,o),
(417,402,o),
(326,402,cs),
(275,402,l),
(275,321,l),
(332,321,ls),
(427,321,o),
(488,281,o),
(488,201,cs),
(488,122,o),
(427,73,o),
(339,73,cs),
(275,73,l),
(275,-10,l)
);
}
);
width = 621;
}
);
metricLeft = B;
metricRight = O;
unicode = 223;
},
{
glyphname = dieresiscomb;
lastChange = "2025-01-08 14:08:28 +0000";
layers = (
{
anchors = (
{
name = _top;
pos = (166,520);
},
{
name = top;
pos = (162,740);
}
);
background = {
anchors = (
{
name = _top;
pos = (166,520);
},
{
name = top;
pos = (162,740);
}
);
shapes = (
{
closed = 1;
nodes = (
(20,635,l),
(120,635,l),
(120,735,l),
(20,735,l)
);
},
{
closed = 1;
nodes = (
(210,635,l),
(310,635,l),
(310,735,l),
(210,735,l)
);
}
);
};
guides = (
{
name = "UC mark bottom";
pos = (20,607);
},
{
name = "UC mark top";
pos = (20,758);
}
);
layerId = "1C9972D2-AAA2-4EE5-9F28-188B121D2056";
shapes = (
{
closed = 1;
nodes = (
(20,635,l),
(120,635,l),
(120,735,l),
(20,735,l)
);
},
{
closed = 1;
nodes = (
(210,635,l),
(310,635,l),
(310,735,l),
(210,735,l)
);
}
);
width = 330;
}
);
unicode = 776;
},
{
glyphname = dotaccentcomb;
lastChange = "2025-01-08 14:13:06 +0000";
layers = (
{
anchors = (
{
name = _top;
pos = (65,520);
},
{
name = top;
pos = (61,740);
}
);
background = {
anchors = (
{
name = _top;
pos = (64,520);
},
{
name = top;
pos = (68,740);
}
);
shapes = (
{
closed = 1;
nodes = (
(16,637,l),
(116,637,l),
(116,737,l),
(16,737,l)
);
}
);
};
guides = (
{
name = "UC mark bottom";
pos = (0,607);
},
{
name = "UC mark top";
pos = (0,758);
}
);
layerId = "1C9972D2-AAA2-4EE5-9F28-188B121D2056";
shapes = (
{
closed = 1;
nodes = (
(16,637,l),
(116,637,l),
(116,737,l),
(16,737,l)
);
}
);
width = 132;
}
);
unicode = 775;
},
{
glyphname = gravecomb;
lastChange = "2025-01-08 14:31:07 +0000";
layers = (
{
anchors = (
{
name = _top;
pos = (168,520);
},
{
name = top;
pos = (131,766);
}
);
background = {
anchors = (
{
name = _top;
pos = (190,520);
},
{
name = top;
pos = (174,766);
}
);
shapes = (
{
closed = 1;
nodes = (
(144,766,l),
(48,766,l),
(154,614,l),
(228,614,l)
);
}
);
};
guides = (
{
name = "UC mark bottom";
pos = (0,607);
},
{
name = "UC mark top";
pos = (0,758);
}
);
layerId = "1C9972D2-AAA2-4EE5-9F28-188B121D2056";
shapes = (
{
closed = 1;
nodes = (
(144,757,l),
(48,757,l),
(154,605,l),
(228,605,l)
);
}
);
width = 276;
}
);
unicode = 768;
},
{
glyphname = acutecomb;
lastChange = "2025-01-08 14:31:22 +0000";
layers = (
{
anchors = (
{
name = _top;
pos = (89,520);
},
{
name = top;
pos = (114,758);
}
);
background = {
anchors = (
{
name = _top;
pos = (91,520);
},
{
name = top;
pos = (97,740);
}
);
shapes = (
{
closed = 1;
nodes = (
(124,595,l),
(230,747,l),
(137,747,l),
(50,595,l)
);
}
);
};
guides = (
{
name = "UC mark bottom";
pos = (0,607);
},
{
name = "UC mark top";
pos = (0,758);
}
);
layerId = "1C9972D2-AAA2-4EE5-9F28-188B121D2056";
shapes = (
{
closed = 1;
nodes = (
(124,606,l),
(230,758,l),
(137,758,l),
(50,606,l)
);
}
);
width = 280;
}
);
unicode = 769;
},
{
glyphname = hungarumlautcomb;
lastChange = "2025-01-08 14:12:40 +0000";
layers = (
{
anchors = (
{
name = _top;
pos = (187,523);
},
{
name = top;
pos = (198,758);
}
);
background = {
anchors = (
{
name = _top;
pos = (179,520);
},
{
name = top;
pos = (190,766);
}
);
shapes = (
{
closed = 1;
nodes = (
(273,614,l),
(379,766,l),
(283,766,l),
(199,614,l)
);
},
{
closed = 1;
nodes = (
(84,614,l),
(190,766,l),
(94,766,l),
(10,614,l)
);
}
);
};
guides = (
{
name = "UC mark bottom";
pos = (0,607);
},
{
name = "UC mark top";
pos = (0,758);
}
);
layerId = "1C9972D2-AAA2-4EE5-9F28-188B121D2056";
shapes = (
{
closed = 1;
nodes = (
(273,607,l),
(379,759,l),
(283,759,l),
(199,607,l)
);
},
{
closed = 1;
nodes = (
(84,607,l),
(190,759,l),
(94,759,l),
(10,607,l)
);
}
);
width = 389;
}
);
unicode = 779;
},
{
glyphname = circumflexcomb;
lastChange = "2025-01-08 14:12:37 +0000";
layers = (
{
anchors = (
{
name = _top;
pos = (173,520);
},
{
name = top;
pos = (173,759);
}
);
background = {
anchors = (
{
name = _top;
pos = (173,520);
},
{
name = top;
pos = (173,700);
}
);
shapes = (
{
closed = 1;
nodes = (
(336,631,l),
(248,631,l),
(173,719,l),
(99,631,l),
(10,631,l),
(134,782,l),
(213,782,l)
);
}
);
};
guides = (
{
name = "UC mark bottom";
pos = (0,607);
},
{
name = "UC mark top";
pos = (0,758);
}
);
layerId = "1C9972D2-AAA2-4EE5-9F28-188B121D2056";
shapes = (
{
closed = 1;
nodes = (
(336,607,l),
(248,607,l),
(173,695,l),
(99,607,l),
(10,607,l),
(134,758,l),
(213,758,l)
);
}
);
width = 346;
}
);
unicode = 770;
},
{
glyphname = caroncomb;
lastChange = "2025-01-08 14:12:34 +0000";
layers = (
{
anchors = (
{
name = _top;
pos = (163,520);
},
{
name = top;
pos = (163,758);
}
);
background = {
anchors = (
{
name = _top;
pos = (163,520);
},
{
name = top;
pos = (163,718);
}
);
shapes = (
{
closed = 1;
nodes = (
(124,622,l),
(0,773,l),
(89,773,l),
(163,685,l),
(238,773,l),
(326,773,l),
(203,622,l)
);
}
);
};
guides = (
{
name = "UC mark bottom";
pos = (0,607);
},
{
name = "UC mark top";
pos = (0,758);
}
);
layerId = "1C9972D2-AAA2-4EE5-9F28-188B121D2056";
shapes = (
{
closed = 1;
nodes = (
(124,607,l),
(0,758,l),
(89,758,l),
(163,670,l),
(238,758,l),
(326,758,l),
(203,607,l)
);
}
);
width = 326;
}
);
unicode = 780;
},
{
glyphname = brevecomb;
lastChange = "2025-01-08 14:12:29 +0000";
layers = (
{
anchors = (
{
name = _top;
pos = (226,520);
},
{
name = top;
pos = (226,758);
}
);
background = {
anchors = (
{
name = _top;
pos = (226,520);
},
{
name = top;
pos = (223,700);
}
);
shapes = (
{
closed = 1;
nodes = (
(316,597,o),
(371,661,o),
(371,731,cs),
(371,749,l),
(298,749,l),
(298,726,ls),
(298,694,o),
(278,665,o),
(226,665,cs),
(175,665,o),
(159,701,o),
(159,733,cs),
(159,749,l),
(85,749,l),
(85,735,ls),
(85,664,o),
(141,597,o),
(226,597,cs)
);
}
);
};
guides = (
{
name = "UC mark bottom";
pos = (0,607);
},
{
name = "UC mark top";
pos = (0,758);
}
);
layerId = "1C9972D2-AAA2-4EE5-9F28-188B121D2056";
shapes = (
{
closed = 1;
nodes = (
(316,606,o),
(371,670,o),
(371,740,cs),
(371,758,l),
(298,758,l),
(298,735,ls),
(298,703,o),
(278,674,o),
(226,674,cs),
(175,674,o),
(159,710,o),
(159,742,cs),
(159,758,l),
(85,758,l),
(85,744,ls),
(85,673,o),
(141,606,o),
(226,606,cs)
);
}
);
width = 451;
}
);
unicode = 774;
},
{
glyphname = ringcomb;
lastChange = "2025-01-08 19:23:22 +0000";
layers = (
{
anchors = (
{
name = _top;
pos = (146,520);
},
{
name = top;
pos = (143,758);
}
);
background = {
anchors = (
{
name = _top;
pos = (146,520);
},
{
name = top;
pos = (143,682);
}
);
shapes = (
{
closed = 1;
nodes = (
(40,736,o),
(86,779,o),
(143,779,cs),
(200,779,o),
(246,736,o),
(246,681,cs),
(246,626,o),
(200,583,o),
(143,583,cs),
(86,583,o),
(40,626,o),
(40,681,cs)
);
},
{
closed = 1;
nodes = (
(108,662,o),
(123,647,o),
(142,647,cs),
(162,647,o),
(177,662,o),
(177,682,cs),
(177,702,o),
(162,717,o),
(142,717,cs),
(123,717,o),
(108,702,o),
(108,682,cs)
);
}
);
};
guides = (
{
name = "UC mark bottom";
pos = (0,607);
},
{
name = "UC mark top";
pos = (0,758);
}
);
layerId = "1C9972D2-AAA2-4EE5-9F28-188B121D2056";
shapes = (
{
closed = 1;
nodes = (
(40,736,o),
(86,779,o),
(143,779,cs),
(200,779,o),
(246,736,o),
(246,681,cs),
(246,626,o),
(200,583,o),
(143,583,cs),
(86,583,o),
(40,626,o),
(40,681,cs)
);
},
{
closed = 1;
nodes = (
(108,662,o),
(123,647,o),
(142,647,cs),
(162,647,o),
(177,662,o),
(177,682,cs),
(177,702,o),
(162,717,o),
(142,717,cs),
(123,717,o),
(108,702,o),
(108,682,cs)
);
}
);
width = 286;
}
);
unicode = 778;
},
{
glyphname = tildecomb;
lastChange = "2025-01-08 19:23:29 +0000";
layers = (
{
anchors = (
{
name = _top;
pos = (173,520);
},
{
name = top;
pos = (170,758);
}
);
background = {
anchors = (
{
name = _top;
pos = (173,520);
},
{
name = top;
pos = (172,682);
}
);
shapes = (
{
closed = 1;
nodes = (
(68,617,l),
(68,660,o),
(76,681,o),
(98,681,cs),
(140,681,o),
(171,618,o),
(232,618,cs),
(285,618,o),
(324,667,o),
(324,756,c),
(256,756,l),
(256,718,o),
(250,691,o),
(225,691,cs),
(193,691,o),
(146,756,o),
(97,756,cs),
(39,756,o),
(0,707,o),
(0,617,c)
);
}
);
};
guides = (
{
name = "UC mark bottom";
pos = (0,607);
},
{
name = "UC mark top";
pos = (0,758);
}
);
layerId = "1C9972D2-AAA2-4EE5-9F28-188B121D2056";
shapes = (
{
closed = 1;
nodes = (
(68,612,l),
(68,655,o),
(76,676,o),
(98,676,cs),
(140,676,o),
(171,613,o),
(232,613,cs),
(285,613,o),
(324,662,o),
(324,751,c),
(256,751,l),
(256,713,o),
(250,686,o),
(225,686,cs),
(193,686,o),
(146,751,o),
(97,751,cs),
(39,751,o),
(0,702,o),
(0,612,c)
);
}
);
width = 324;
}
);
unicode = 771;
},
{
glyphname = macroncomb;
lastChange = "2025-01-08 21:00:49 +0000";
layers = (
{
anchors = (
{
name = _top;
pos = (266,520);
},
{
name = top;
pos = (265,758);
}
);
background = {
anchors = (
{
name = _top;
pos = (266,520);
},
{
name = top;
pos = (263,682);
}
);
shapes = (
{
closed = 1;
nodes = (
(419,651,l),
(419,723,l),
(108,723,l),
(108,651,l)
);
}
);
};
guides = (
{
name = "UC mark bottom";
pos = (0,607);
},
{
name = "UC mark top";
pos = (0,758);
}
);
layerId = "1C9972D2-AAA2-4EE5-9F28-188B121D2056";
shapes = (
{
closed = 1;
nodes = (
(419,651,l),
(419,723,l),
(108,723,l),
(108,651,l)
);
}
);
width = 512;
}
);
unicode = 772;
},
{
glyphname = commaturnedabovecomb;
lastChange = "2025-01-08 19:23:42 +0000";
layers = (
{
anchors = (
{
name = _top;
pos = (100,520);
},
{
name = top;
pos = (94,758);
}
);
background = {
anchors = (
{
name = _top;
pos = (100,520);
},
{
name = top;
pos = (96,682);
}
);
shapes = (
{
closed = 1;
nodes = (
(154,740,l),
(96,740,l),
(168,860,l),
(104,860,l),
(40,752,l),
(40,626,l),
(154,626,l)
);
}
);
};
guides = (
{
name = "UC mark bottom";
pos = (0,607);
},
{
name = "UC mark top";
pos = (0,758);
}
);
layerId = "1C9972D2-AAA2-4EE5-9F28-188B121D2056";
shapes = (
{
closed = 1;
nodes = (
(154,737,l),
(96,737,l),
(168,857,l),
(104,857,l),
(40,749,l),
(40,623,l),
(154,623,l)
);
}
);
width = 208;
}
);
unicode = 786;
},
{
glyphname = commaaccentcomb;
lastChange = "2025-01-08 14:48:04 +0000";
layers = (
{
anchors = (
{
name = _bottom;
pos = (70,-36);
},
{
name = bottom;
pos = (64,-212);
}
);
background = {
anchors = (
{
name = _bottom;
pos = (75,-16);
},
{
name = bottom;
pos = (64,-220);
}
);
shapes = (
{
closed = 1;
nodes = (
(128,14,l),
(128,-112,l),
(64,-220,l),
(0,-220,l),
(72,-100,l),
(14,-100,l),
(14,14,l)
);
}
);
};
layerId = "1C9972D2-AAA2-4EE5-9F28-188B121D2056";
shapes = (
{
closed = 1;
nodes = (
(128,-66,l),
(128,-192,l),
(64,-300,l),
(0,-300,l),
(72,-180,l),
(14,-180,l),
(14,-66,l)
);
}
);
width = 128;
}
);
unicode = 806;
},
{
glyphname = cedillacomb;
lastChange = "2025-01-08 14:09:06 +0000";
layers = (
{
anchors = (
{
name = _bottom;
pos = (225,0);
}
);
background = {
anchors = (
{
name = bottom;
pos = (227,2);
}
);
shapes = (
{
closed = 1;
nodes = (
(271,0,l),
(175,0,l),
(281,-152,l),
(355,-152,l)
);
}
);
};
layerId = "1C9972D2-AAA2-4EE5-9F28-188B121D2056";
shapes = (
{
closed = 1;
nodes = (
(166,-73,l),
(166,-94,l),
(202,-94,ls),
(229,-94,o),
(248,-105,o),
(248,-129,cs),
(248,-153,o),
(230,-167,o),
(200,-167,cs),
(147,-167,l),
(147,-229,l),
(202,-229,ls),
(285,-229,o),
(325,-187,o),
(325,-131,cs),
(325,-75,o),
(281,-49,o),
(244,-45,c),
(260,0,l),
(193,0,l)
);
}
);
width = 419;
}
);
unicode = 807;
},
{
glyphname = ogonekcomb;
lastChange = "2024-12-11 03:28:41 +0000";
layers = (
{
anchors = (
{
name = _ogonek;
pos = (172,0);
},
{
name = bottom;
pos = (175,-201);
}
);
background = {
anchors = (
{
name = _ogonek;
pos = (172,0);
},
{
name = bottom;
pos = (175,-201);
}
);
shapes = (
{
closed = 1;
nodes = (
(175,-201,l),
(175,-129,l),
(160,-129,ls),
(109,-129,o),
(80,-129,o),
(80,-97,cs),
(80,-69,o),
(108,-48,o),
(172,0,c),
(83,0,l),
(44,-34,o),
(4,-74,o),
(4,-114,cs),
(4,-171,o),
(48,-201,o),
(140,-201,cs)
);
}
);
};
layerId = "1C9972D2-AAA2-4EE5-9F28-188B121D2056";
shapes = (
{
closed = 1;
nodes = (
(175,-201,l),
(175,-129,l),
(160,-129,ls),
(109,-129,o),
(80,-129,o),
(80,-97,cs),
(80,-69,o),
(108,-48,o),
(172,0,c),
(83,0,l),
(44,-34,o),
(4,-74,o),
(4,-114,cs),
(4,-171,o),
(48,-201,o),
(140,-201,cs)
);
}
);
width = 179;
}
);
unicode = 808;
},
{
glyphname = strokeshortcomb;
lastChange = "2024-12-11 03:28:41 +0000";
layers = (
{
background = {
shapes = (
{
closed = 1;
nodes = (
(425,267,l),
(425,343,l),
(80,343,l),
(80,267,l)
);
}
);
};
layerId = "1C9972D2-AAA2-4EE5-9F28-188B121D2056";
shapes = (
{
closed = 1;
nodes = (
(425,267,l),
(425,343,l),
(80,343,l),
(80,267,l)
);
}
);
width = 505;
}
);
unicode = 821;
},
{
glyphname = strokelongcomb;
lastChange = "2024-12-11 03:28:41 +0000";
layers = (
{
background = {
shapes = (
{
closed = 1;
nodes = (
(721,277,l),
(721,354,l),
(61,354,l),
(61,277,l)
);
}
);
};
layerId = "1C9972D2-AAA2-4EE5-9F28-188B121D2056";
shapes = (
{
closed = 1;
nodes = (
(721,277,l),
(721,354,l),
(61,354,l),
(61,277,l)
);
}
);
width = 780;
}
);
unicode = 822;
},
{
glyphname = slashshortcomb;
lastChange = "2024-12-11 03:28:41 +0000";
layers = (
{
background = {
shapes = (
{
closed = 1;
nodes = (
(398,429,l),
(398,514,l),
(38,308,l),
(38,223,l)
);
}
);
};
layerId = "1C9972D2-AAA2-4EE5-9F28-188B121D2056";
shapes = (
{
closed = 1;
nodes = (
(398,429,l),
(398,514,l),
(38,308,l),
(38,223,l)
);
}
);
width = 436;
}
);
unicode = 823;
},
{
glyphname = slashlongcomb;
lastChange = "2024-12-11 03:28:41 +0000";
layers = (
{
background = {
shapes = (
{
closed = 1;
nodes = (
(720,629,l),
(659,691,l),
(29,61,l),
(90,0,l)
);
}
);
};
layerId = "1C9972D2-AAA2-4EE5-9F28-188B121D2056";
shapes = (
{
closed = 1;
nodes = (
(720,629,l),
(659,691,l),
(29,61,l),
(90,0,l)
);
}
);
width = 720;
}
);
unicode = 824;
},
{
glyphname = Istroke;
lastChange = "2024-12-11 03:28:41 +0000";
layers = (
{
background = {
shapes = (
{
pos = (66,0);
ref = I;
},
{
closed = 1;
nodes = (
(20,323,l),
(374,323,l),
(374,400,l),
(20,400,l)
);
}
);
};
layerId = "1C9972D2-AAA2-4EE5-9F28-188B121D2056";
shapes = (
{
pos = (66,0);
ref = I;
},
{
closed = 1;
nodes = (
(20,323,l),
(374,323,l),
(374,400,l),
(20,400,l)
);
}
);
width = 394;
}
);
unicode = 407;
},
{
glyphname = istroke;
lastChange = "2024-12-11 03:28:41 +0000";
layers = (
{
background = {
shapes = (
{
pos = (58,0);
ref = i;
},
{
closed = 1;
nodes = (
(331,291,l),
(331,363,l),
(20,363,l),
(20,291,l)
);
}
);
};
layerId = "1C9972D2-AAA2-4EE5-9F28-188B121D2056";
shapes = (
{
pos = (58,0);
ref = i;
},
{
closed = 1;
nodes = (
(331,291,l),
(331,363,l),
(20,363,l),
(20,291,l)
);
}
);
width = 351;
}
);
unicode = 616;
},
{
glyphname = jstroke;
lastChange = "2024-12-11 03:28:41 +0000";
layers = (
{
anchors = (
{
name = bottom;
pos = (143,-191);
},
{
name = top;
pos = (151,520);
}
);
background = {
anchors = (
{
name = bottom;
pos = (143,-191);
},
{
name = top;
pos = (151,520);
}
);
shapes = (
{
closed = 1;
nodes = (
(-20,253,l),
(334,253,l),
(334,330,l),
(-20,330,l)
);
},
{
closed = 1;
nodes = (
(52,-191,ls),
(143,-191,o),
(192,-138,o),
(192,-31,cs),
(192,519,l),
(106,519,l),
(106,-27,ls),
(106,-94,o),
(77,-115,o),
(38,-115,cs),
(18,-115,l),
(18,-191,l)
);
},
{
pos = (83,-9);
ref = dotaccentcomb;
}
);
};
layerId = "1C9972D2-AAA2-4EE5-9F28-188B121D2056";
shapes = (
{
closed = 1;
nodes = (
(-20,253,l),
(334,253,l),
(334,330,l),
(-20,330,l)
);
},
{
closed = 1;
nodes = (
(52,-191,ls),
(143,-191,o),
(192,-138,o),
(192,-31,cs),
(192,519,l),
(106,519,l),
(106,-27,ls),
(106,-94,o),
(77,-115,o),
(38,-115,cs),
(18,-115,l),
(18,-191,l)
);
},
{
pos = (83,-9);
ref = dotaccentcomb;
}
);
width = 314;
}
);
unicode = 585;
},
{
glyphname = istroke.dotless;
lastChange = "2024-12-11 03:28:41 +0000";
layers = (
{
anchors = (
{
name = bottom;
pos = (180,0);
},
{
name = ogonek;
pos = (220,0);
},
{
name = top;
pos = (178,520);
}
);
background = {
anchors = (
{
name = bottom;
pos = (180,0);
},
{
name = ogonek;
pos = (220,0);
},
{
name = top;
pos = (178,520);
}
);
shapes = (
{
closed = 1;
nodes = (
(220,0,l),
(220,520,l),
(135,520,l),
(135,0,l)
);
},
{
closed = 1;
nodes = (
(331,291,l),
(331,363,l),
(20,363,l),
(20,291,l)
);
}
);
};
layerId = "1C9972D2-AAA2-4EE5-9F28-188B121D2056";
shapes = (
{
closed = 1;
nodes = (
(220,0,l),
(220,520,l),
(135,520,l),
(135,0,l)
);
},
{
closed = 1;
nodes = (
(331,291,l),
(331,363,l),
(20,363,l),
(20,291,l)
);
}
);
width = 351;
}
);
},
{
glyphname = jstroke.dotless;
lastChange = "2024-12-11 03:28:41 +0000";
layers = (
{
anchors = (
{
name = bottom;
pos = (143,-191);
},
{
name = top;
pos = (151,520);
}
);
background = {
anchors = (
{
name = bottom;
pos = (143,-191);
},
{
name = top;
pos = (151,520);
}
);
shapes = (
{
closed = 1;
nodes = (
(-20,253,l),
(334,253,l),
(334,330,l),
(-20,330,l)
);
},
{
closed = 1;
nodes = (
(52,-191,ls),
(143,-191,o),
(192,-138,o),
(192,-31,cs),
(192,519,l),
(106,519,l),
(106,-27,ls),
(106,-94,o),
(77,-115,o),
(38,-115,cs),
(18,-115,l),
(18,-191,l)
);
}
);
};
layerId = "1C9972D2-AAA2-4EE5-9F28-188B121D2056";
shapes = (
{
closed = 1;
nodes = (
(-20,253,l),
(334,253,l),
(334,330,l),
(-20,330,l)
);
},
{
closed = 1;
nodes = (
(52,-191,ls),
(143,-191,o),
(192,-138,o),
(192,-31,cs),
(192,519,l),
(106,519,l),
(106,-27,ls),
(106,-94,o),
(77,-115,o),
(38,-115,cs),
(18,-115,l),
(18,-191,l)
);
}
);
width = 314;
}
);
},
{
glyphname = y.ss01;
kernLeft = y;
kernRight = y;
lastChange = "2025-01-08 14:39:45 +0000";
layers = (
{
anchors = (
{
name = top;
pos = (272,520);
}
);
background = {
shapes = (
{
closed = 1;
nodes = (
(97,-204,o),
(156,-203,o),
(183,-195,cs),
(246,-176,o),
(276,-119,o),
(292,-85,cs),
(321,-13,l),
(511,520,l),
(419,520,l),
(272,99,l),
(270,99,l),
(112,520,l),
(16,520,l),
(226,-17,l),
(221,-46,o),
(210,-75,o),
(185,-104,cs),
(166,-125,o),
(127,-132,o),
(78,-125,c),
(78,-196,l)
);
}
);
};
layerId = "1C9972D2-AAA2-4EE5-9F28-188B121D2056";
shapes = (
{
closed = 1;
nodes = (
(97,-204,o),
(156,-203,o),
(183,-195,cs),
(246,-176,o),
(276,-119,o),
(292,-85,cs),
(321,-13,l),
(511,520,l),
(419,520,l),
(272,99,l),
(270,99,l),
(112,520,l),
(16,520,l),
(226,-17,l),
(221,-46,o),
(210,-75,o),
(185,-104,cs),
(166,-125,o),
(127,-132,o),
(78,-125,c),
(78,-196,l)
);
}
);
width = 527;
}
);
},
{
glyphname = "Be-cy";
kernLeft = N;
kernRight = P;
lastChange = "2024-12-11 03:28:41 +0000";
layers = (
{
background = {
shapes = (
{
closed = 1;
nodes = (
(342,0,ls),
(477,0,o),
(564,89,o),
(566,214,cs),
(564,337,o),
(483,423,o),
(340,423,cs),
(156,423,l),
(156,343,l),
(328,343,ls),
(419,343,o),
(474,295,o),
(474,214,cs),
(474,133,o),
(419,82,o),
(328,82,cs),
(148,82,l),
(176,58,l),
(176,642,l),
(150,618,l),
(516,618,l),
(516,700,l),
(86,700,l),
(86,0,l)
);
}
);
};
layerId = "1C9972D2-AAA2-4EE5-9F28-188B121D2056";
shapes = (
{
closed = 1;
nodes = (
(342,0,ls),
(477,0,o),
(564,89,o),
(566,214,cs),
(564,337,o),
(483,423,o),
(340,423,cs),
(156,423,l),
(156,343,l),
(328,343,ls),
(419,343,o),
(474,295,o),
(474,214,cs),
(474,133,o),
(419,82,o),
(328,82,cs),
(148,82,l),
(176,58,l),
(176,642,l),
(150,618,l),
(516,618,l),
(516,700,l),
(86,700,l),
(86,0,l)
);
}
);
width = 606;
}
);
metricLeft = B;
unicode = 1041;
},
{
glyphname = "Ge-cy";
kernLeft = B;
kernRight = T;
lastChange = "2025-01-08 14:33:06 +0000";
layers = (
{
anchors = (
{
name = top;
pos = (313,688);
}
);
background = {
shapes = (
{
closed = 1;
nodes = (
(176,0,l),
(176,652,l),
(140,618,l),
(522,618,l),
(522,700,l),
(86,700,l),
(86,0,l)
);
}
);
};
layerId = "1C9972D2-AAA2-4EE5-9F28-188B121D2056";
shapes = (
{
closed = 1;
nodes = (
(176,0,l),
(176,652,l),
(140,618,l),
(522,618,l),
(522,700,l),
(86,700,l),
(86,0,l)
);
}
);
width = 546;
}
);
metricLeft = B;
metricRight = T;
unicode = 1043;
},
{
glyphname = "Geupturn-cy";
kernLeft = B;
kernRight = T;
lastChange = "2024-12-11 03:28:41 +0000";
layers = (
{
background = {
shapes = (
{
closed = 1;
nodes = (
(522,618,l),
(522,819,l),
(434,819,l),
(434,618,l)
);
},
{
ref = "Ge-cy";
}
);
};
layerId = "1C9972D2-AAA2-4EE5-9F28-188B121D2056";
shapes = (
{
closed = 1;
nodes = (
(522,618,l),
(522,819,l),
(434,819,l),
(434,618,l)
);
},
{
ref = "Ge-cy";
}
);
width = 546;
}
);
unicode = 1168;
},
{
glyphname = "De-cy";
kernLeft = A;
kernRight = N;
lastChange = "2024-12-11 03:28:41 +0000";
layers = (
{
background = {
shapes = (
{
closed = 1;
nodes = (
(637,67,l),
(637,700,l),
(192,700,l),
(171,343,ls),
(163,200,o),
(139,119,o),
(82,81,c),
(188,81,l),
(233,126,o),
(247,188,o),
(257,341,cs),
(277,654,l),
(236,618,l),
(583,618,l),
(548,654,l),
(548,67,l)
);
},
{
closed = 1;
nodes = (
(116,-134,l),
(116,35,l),
(81,0,l),
(672,0,l),
(637,35,l),
(637,-134,l),
(723,-134,l),
(723,83,l),
(30,83,l),
(30,-134,l)
);
}
);
};
layerId = "1C9972D2-AAA2-4EE5-9F28-188B121D2056";
shapes = (
{
closed = 1;
nodes = (
(637,67,l),
(637,700,l),
(192,700,l),
(171,343,ls),
(163,200,o),
(139,119,o),
(82,81,c),
(188,81,l),
(233,126,o),
(247,188,o),
(257,341,cs),
(277,654,l),
(236,618,l),
(583,618,l),
(548,654,l),
(548,67,l)
);
},
{
closed = 1;
nodes = (
(116,-134,l),
(116,35,l),
(81,0,l),
(672,0,l),
(637,35,l),
(637,-134,l),
(723,-134,l),
(723,83,l),
(30,83,l),
(30,-134,l)
);
}
);
width = 753;
}
);
unicode = 1044;
},
{
glyphname = "Io-cy";
kernLeft = E;
kernRight = E;
lastChange = "2025-01-07 18:59:59 +0000";
layers = (
{
background = {
shapes = (
{
closed = 1;
nodes = (
(445,801,l),
(445,901,l),
(345,901,l),
(345,801,l)
);
},
{
ref = E;
},
{
closed = 1;
nodes = (
(273,801,l),
(273,901,l),
(173,901,l),
(173,801,l)
);
}
);
};
guides = (
{
name = "UC mark bottom";
pos = (0,775);
},
{
name = "UC mark top";
pos = (0,926);
}
);
layerId = "1C9972D2-AAA2-4EE5-9F28-188B121D2056";
shapes = (
{
closed = 1;
nodes = (
(445,801,l),
(445,901,l),
(345,901,l),
(345,801,l)
);
},
{
ref = E;
},
{
closed = 1;
nodes = (
(273,801,l),
(273,901,l),
(173,901,l),
(173,801,l)
);
}
);
width = 592;
}
);
metricLeft = E;
metricRight = E;
unicode = 1025;
},
{
glyphname = "Zhe-cy";
kernLeft = X;
kernRight = K;
lastChange = "2025-01-08 14:34:27 +0000";
layers = (
{
anchors = (
{
name = top;
pos = (489,688);
}
);
background = {
shapes = (
{
closed = 1;
nodes = (
(146,0,l),
(460,364,l),
(154,700,l),
(42,700,l),
(374,334,l),
(374,394,l),
(36,0,l)
);
},
{
closed = 1;
nodes = (
(530,0,l),
(530,700,l),
(440,700,l),
(440,0,l)
);
},
{
closed = 1;
nodes = (
(564,327,l),
(564,408,l),
(403,408,l),
(403,327,l)
);
},
{
closed = 1;
nodes = (
(934,0,l),
(598,396,l),
(598,336,l),
(928,700,l),
(816,700,l),
(512,364,l),
(824,0,l)
);
}
);
};
layerId = "1C9972D2-AAA2-4EE5-9F28-188B121D2056";
shapes = (
{
closed = 1;
nodes = (
(146,0,l),
(460,364,l),
(154,700,l),
(42,700,l),
(374,334,l),
(374,394,l),
(36,0,l)
);
},
{
closed = 1;
nodes = (
(530,0,l),
(530,700,l),
(440,700,l),
(440,0,l)
);
},
{
closed = 1;
nodes = (
(564,327,l),
(564,408,l),
(403,408,l),
(403,327,l)
);
},
{
closed = 1;
nodes = (
(934,0,l),
(598,396,l),
(598,336,l),
(928,700,l),
(816,700,l),
(512,364,l),
(824,0,l)
);
}
);
width = 970;
}
);
metricLeft = W;
metricRight = W;
unicode = 1046;
},
{
glyphname = "Ze-cy";
kernLeft = O;
kernRight = B;
lastChange = "2025-01-08 14:34:50 +0000";
layers = (
{
anchors = (
{
name = top;
pos = (299,688);
}
);
background = {
shapes = (
{
closed = 1;
nodes = (
(460,-11,o),
(561,73,o),
(561,195,cs),
(561,289,o),
(497,354,o),
(435,370,c),
(486,388,o),
(535,446,o),
(535,525,cs),
(535,640,o),
(442,712,o),
(304,712,cs),
(175,712,o),
(76,644,o),
(59,524,c),
(147,524,l),
(160,592,o),
(220,629,o),
(304,629,cs),
(390,629,o),
(444,590,o),
(444,522,cs),
(444,456,o),
(399,406,o),
(308,406,cs),
(225,406,l),
(225,325,l),
(314,325,ls),
(409,325,o),
(470,276,o),
(470,196,cs),
(470,120,o),
(412,72,o),
(314,72,cs),
(219,72,o),
(155,119,o),
(141,186,c),
(52,186,l),
(69,66,o),
(166,-11,o),
(314,-11,cs)
);
}
);
};
layerId = "1C9972D2-AAA2-4EE5-9F28-188B121D2056";
shapes = (
{
closed = 1;
nodes = (
(460,-11,o),
(561,73,o),
(561,195,cs),
(561,289,o),
(497,354,o),
(435,370,c),
(486,388,o),
(535,446,o),
(535,525,cs),
(535,640,o),
(442,712,o),
(304,712,cs),
(175,712,o),
(76,644,o),
(59,524,c),
(147,524,l),
(160,592,o),
(220,629,o),
(304,629,cs),
(390,629,o),
(444,590,o),
(444,522,cs),
(444,456,o),
(399,406,o),
(308,406,cs),
(225,406,l),
(225,325,l),
(314,325,ls),
(409,325,o),
(470,276,o),
(470,196,cs),
(470,120,o),
(412,72,o),
(314,72,cs),
(219,72,o),
(155,119,o),
(141,186,c),
(52,186,l),
(69,66,o),
(166,-11,o),
(314,-11,cs)
);
}
);
width = 604;
}
);
unicode = 1047;
},
{
glyphname = "Ii-cy";
kernLeft = N;
kernRight = N;
lastChange = "2025-01-08 14:33:21 +0000";
layers = (
{
anchors = (
{
name = top;
pos = (350,688);
}
);
background = {
shapes = (
{
closed = 1;
nodes = (
(174,0,l),
(452,406,ls),
(501,477,o),
(535,537,o),
(556,586,c),
(560,586,l),
(560,541,o),
(558,469,o),
(558,370,cs),
(558,0,l),
(647,0,l),
(647,700,l),
(557,700,l),
(280,296,ls),
(234,229,o),
(199,175,o),
(176,132,c),
(174,132,l),
(174,700,l),
(88,700,l),
(88,0,l)
);
}
);
};
layerId = "1C9972D2-AAA2-4EE5-9F28-188B121D2056";
shapes = (
{
closed = 1;
nodes = (
(174,0,l),
(452,406,ls),
(501,477,o),
(535,537,o),
(556,586,c),
(560,586,l),
(560,541,o),
(558,469,o),
(558,370,cs),
(558,0,l),
(647,0,l),
(647,700,l),
(557,700,l),
(280,296,ls),
(234,229,o),
(199,175,o),
(176,132,c),
(174,132,l),
(174,700,l),
(88,700,l),
(88,0,l)
);
}
);
width = 735;
}
);
unicode = 1048;
},
{
glyphname = "El-cy";
kernLeft = A;
kernRight = H;
lastChange = "2024-12-11 03:28:41 +0000";
layers = (
{
background = {
shapes = (
{
closed = 1;
nodes = (
(160,-5,o),
(219,90,o),
(229,230,cs),
(258,656,l),
(218,618,l),
(553,618,l),
(518,654,l),
(518,0,l),
(607,0,l),
(607,700,l),
(175,700,l),
(143,236,ls),
(139,179,o),
(123,115,o),
(91,94,cs),
(74,83,o),
(52,78,o),
(25,78,cs),
(10,78,l),
(10,-5,l),
(36,-5,ls)
);
}
);
};
layerId = "1C9972D2-AAA2-4EE5-9F28-188B121D2056";
shapes = (
{
closed = 1;
nodes = (
(160,-5,o),
(219,90,o),
(229,230,cs),
(258,656,l),
(218,618,l),
(553,618,l),
(518,654,l),
(518,0,l),
(607,0,l),
(607,700,l),
(175,700,l),
(143,236,ls),
(139,179,o),
(123,115,o),
(91,94,cs),
(74,83,o),
(52,78,o),
(25,78,cs),
(10,78,l),
(10,-5,l),
(36,-5,ls)
);
}
);
width = 693;
}
);
metricRight = H;
unicode = 1051;
},
{
glyphname = "Pe-cy";
kernLeft = H;
kernRight = H;
lastChange = "2024-12-11 03:28:41 +0000";
layers = (
{
background = {
shapes = (
{
closed = 1;
nodes = (
(176,0,l),
(176,662,l),
(130,618,l),
(594,618,l),
(548,662,l),
(548,0,l),
(638,0,l),
(638,700,l),
(86,700,l),
(86,0,l)
);
}
);
};
layerId = "1C9972D2-AAA2-4EE5-9F28-188B121D2056";
shapes = (
{
closed = 1;
nodes = (
(176,0,l),
(176,662,l),
(130,618,l),
(594,618,l),
(548,662,l),
(548,0,l),
(638,0,l),
(638,700,l),
(86,700,l),
(86,0,l)
);
}
);
width = 724;
}
);
metricLeft = H;
metricRight = H;
unicode = 1055;
},
{
glyphname = "U-cy";
kernLeft = X;
kernRight = Y;
lastChange = "2025-01-08 14:33:30 +0000";
layers = (
{
anchors = (
{
name = top;
pos = (318,688);
}
);
background = {
shapes = (
{
closed = 1;
nodes = (
(276,0,l),
(620,700,l),
(522,700,l),
(381,411,ls),
(350,347,o),
(331,307,o),
(326,292,c),
(323,292,l),
(260,415,l),
(112,700,l),
(12,700,l),
(275,200,l),
(178,0,l)
);
}
);
};
layerId = "1C9972D2-AAA2-4EE5-9F28-188B121D2056";
shapes = (
{
closed = 1;
nodes = (
(276,0,l),
(620,700,l),
(522,700,l),
(381,411,ls),
(350,347,o),
(331,307,o),
(326,292,c),
(323,292,l),
(260,415,l),
(112,700,l),
(12,700,l),
(275,200,l),
(178,0,l)
);
}
);
width = 632;
}
);
metricLeft = y;
metricRight = y;
unicode = 1059;
},
{
glyphname = "Ef-cy";
kernLeft = O;
kernRight = O;
lastChange = "2024-12-11 03:28:41 +0000";
layers = (
{
background = {
shapes = (
{
closed = 1;
nodes = (
(452,0,l),
(452,62,l),
(641,62,o),
(774,178,o),
(774,356,cs),
(774,545,o),
(620,651,o),
(452,651,c),
(452,700,l),
(364,700,l),
(364,651,l),
(186,651,o),
(42,541,o),
(42,356,cs),
(42,177,o),
(174,62,o),
(364,62,c),
(364,0,l)
);
},
{
closed = 1;
nodes = (
(228,144,o),
(132,223,o),
(132,356,cs),
(132,487,o),
(225,569,o),
(364,569,c),
(364,144,l)
);
},
{
closed = 1;
nodes = (
(452,569,l),
(591,569,o),
(684,485,o),
(684,356,cs),
(684,223,o),
(586,144,o),
(452,144,c)
);
}
);
};
layerId = "1C9972D2-AAA2-4EE5-9F28-188B121D2056";
shapes = (
{
closed = 1;
nodes = (
(452,0,l),
(452,62,l),
(641,62,o),
(774,178,o),
(774,356,cs),
(774,545,o),
(620,651,o),
(452,651,c),
(452,700,l),
(364,700,l),
(364,651,l),
(186,651,o),
(42,541,o),
(42,356,cs),
(42,177,o),
(174,62,o),
(364,62,c),
(364,0,l)
);
},
{
closed = 1;
nodes = (
(228,144,o),
(132,223,o),
(132,356,cs),
(132,487,o),
(225,569,o),
(364,569,c),
(364,144,l)
);
},
{
closed = 1;
nodes = (
(452,569,l),
(591,569,o),
(684,485,o),
(684,356,cs),
(684,223,o),
(586,144,o),
(452,144,c)
);
}
);
width = 816;
}
);
metricLeft = O;
metricRight = O;
unicode = 1060;
},
{
glyphname = "Che-cy";
kernLeft = M;
kernRight = N;
lastChange = "2025-01-08 14:34:38 +0000";
layers = (
{
anchors = (
{
name = top;
pos = (362,688);
}
);
background = {
shapes = (
{
closed = 1;
nodes = (
(444,262,o),
(504,286,o),
(548,330,c),
(548,416,l),
(508,375,o),
(444,346,o),
(360,346,cs),
(244,346,o),
(176,409,o),
(176,528,cs),
(176,700,l),
(86,700,l),
(86,526,ls),
(86,410,o),
(137,330,o),
(217,291,cs),
(257,272,o),
(302,262,o),
(352,262,cs)
);
},
{
closed = 1;
nodes = (
(604,0,l),
(604,700,l),
(516,700,l),
(516,0,l)
);
}
);
};
layerId = "1C9972D2-AAA2-4EE5-9F28-188B121D2056";
shapes = (
{
closed = 1;
nodes = (
(444,262,o),
(504,286,o),
(548,330,c),
(548,416,l),
(508,375,o),
(444,346,o),
(360,346,cs),
(244,346,o),
(176,409,o),
(176,528,cs),
(176,700,l),
(86,700,l),
(86,526,ls),
(86,410,o),
(137,330,o),
(217,291,cs),
(257,272,o),
(302,262,o),
(352,262,cs)
);
},
{
closed = 1;
nodes = (
(604,0,l),
(604,700,l),
(516,700,l),
(516,0,l)
);
}
);
width = 690;
}
);
metricLeft = M;
metricRight = M;
unicode = 1063;
},
{
glyphname = "Tse-cy";
kernLeft = H;
kernRight = "tse-cy";
lastChange = "2024-12-11 03:28:41 +0000";
layers = (
{
background = {
shapes = (
{
closed = 1;
nodes = (
(720,-134,l),
(720,84,l),
(140,84,l),
(176,50,l),
(176,700,l),
(86,700,l),
(86,0,l),
(670,0,l),
(634,36,l),
(634,-134,l)
);
},
{
closed = 1;
nodes = (
(634,50,l),
(634,700,l),
(546,700,l),
(546,50,l)
);
}
);
};
layerId = "1C9972D2-AAA2-4EE5-9F28-188B121D2056";
shapes = (
{
closed = 1;
nodes = (
(720,-134,l),
(720,84,l),
(140,84,l),
(176,50,l),
(176,700,l),
(86,700,l),
(86,0,l),
(670,0,l),
(634,36,l),
(634,-134,l)
);
},
{
closed = 1;
nodes = (
(634,50,l),
(634,700,l),
(546,700,l),
(546,50,l)
);
}
);
width = 736;
}
);
metricLeft = H;
unicode = 1062;
},
{
glyphname = "Sha-cy";
kernLeft = H;
kernRight = H;
lastChange = "2024-12-11 03:28:41 +0000";
layers = (
{
background = {
shapes = (
{
closed = 1;
nodes = (
(888,0,l),
(888,700,l),
(798,700,l),
(798,50,l),
(834,84,l),
(140,84,l),
(176,50,l),
(176,700,l),
(86,700,l),
(86,0,l)
);
},
{
closed = 1;
nodes = (
(530,48,l),
(530,700,l),
(442,700,l),
(442,48,l)
);
}
);
};
layerId = "1C9972D2-AAA2-4EE5-9F28-188B121D2056";
shapes = (
{
closed = 1;
nodes = (
(888,0,l),
(888,700,l),
(798,700,l),
(798,50,l),
(834,84,l),
(140,84,l),
(176,50,l),
(176,700,l),
(86,700,l),
(86,0,l)
);
},
{
closed = 1;
nodes = (
(530,48,l),
(530,700,l),
(442,700,l),
(442,48,l)
);
}
);
width = 974;
}
);
metricLeft = H;
metricRight = H;
unicode = 1064;
},
{
glyphname = "Shcha-cy";
kernLeft = H;
kernRight = "tse-cy";
lastChange = "2024-12-11 03:28:41 +0000";
layers = (
{
background = {
shapes = (
{
closed = 1;
nodes = (
(970,-132,l),
(970,83,l),
(723,83,l),
(723,0,l),
(875,0,l),
(875,-132,l)
);
},
{
ref = "Sha-cy";
}
);
};
layerId = "1C9972D2-AAA2-4EE5-9F28-188B121D2056";
shapes = (
{
closed = 1;
nodes = (
(970,-132,l),
(970,83,l),
(723,83,l),
(723,0,l),
(875,0,l),
(875,-132,l)
);
},
{
ref = "Sha-cy";
}
);
width = 1014;
}
);
metricLeft = H;
unicode = 1065;
},
{
glyphname = "Dzhe-cy";
kernLeft = H;
kernRight = H;
lastChange = "2024-12-11 03:28:41 +0000";
layers = (
{
background = {
shapes = (
{
closed = 1;
nodes = (
(634,0,l),
(634,84,l),
(140,84,l),
(176,50,l),
(176,700,l),
(86,700,l),
(86,0,l)
);
},
{
closed = 1;
nodes = (
(411,-134,l),
(411,84,l),
(325,84,l),
(325,-134,l)
);
},
{
closed = 1;
nodes = (
(634,50,l),
(634,700,l),
(546,700,l),
(546,50,l)
);
}
);
};
layerId = "1C9972D2-AAA2-4EE5-9F28-188B121D2056";
shapes = (
{
closed = 1;
nodes = (
(634,0,l),
(634,84,l),
(140,84,l),
(176,50,l),
(176,700,l),
(86,700,l),
(86,0,l)
);
},
{
closed = 1;
nodes = (
(411,-134,l),
(411,84,l),
(325,84,l),
(325,-134,l)
);
},
{
closed = 1;
nodes = (
(634,50,l),
(634,700,l),
(546,700,l),
(546,50,l)
);
}
);
width = 720;
}
);
unicode = 1039;
},
{
glyphname = "Softsign-cy";
kernLeft = H;
kernRight = B;
lastChange = "2024-12-11 03:28:41 +0000";
layers = (
{
background = {
shapes = (
{
closed = 1;
nodes = (
(334,0,ls),
(468,0,o),
(566,92,o),
(566,224,cs),
(566,355,o),
(470,446,o),
(332,446,cs),
(132,446,l),
(132,364,l),
(322,364,ls),
(417,364,o),
(474,308,o),
(474,224,cs),
(474,137,o),
(415,82,o),
(322,82,cs),
(148,82,l),
(176,50,l),
(176,700,l),
(86,700,l),
(86,0,l)
);
}
);
};
layerId = "1C9972D2-AAA2-4EE5-9F28-188B121D2056";
shapes = (
{
closed = 1;
nodes = (
(334,0,ls),
(468,0,o),
(566,92,o),
(566,224,cs),
(566,355,o),
(470,446,o),
(332,446,cs),
(132,446,l),
(132,364,l),
(322,364,ls),
(417,364,o),
(474,308,o),
(474,224,cs),
(474,137,o),
(415,82,o),
(322,82,cs),
(148,82,l),
(176,50,l),
(176,700,l),
(86,700,l),
(86,0,l)
);
}
);
width = 614;
}
);
metricLeft = H;
metricRight = B;
unicode = 1068;
},
{
glyphname = "Hardsign-cy";
kernLeft = T;
kernRight = B;
lastChange = "2024-12-11 03:28:41 +0000";
layers = (
{
background = {
shapes = (
{
closed = 1;
nodes = (
(437,0,ls),
(573,0,o),
(669,92,o),
(669,223,cs),
(669,355,o),
(575,445,o),
(435,445,cs),
(236,445,l),
(236,364,l),
(425,364,ls),
(522,364,o),
(578,308,o),
(578,223,cs),
(578,138,o),
(520,81,o),
(425,81,cs),
(251,81,l),
(279,50,l),
(279,700,l),
(35,700,l),
(35,618,l),
(216,618,l),
(190,648,l),
(190,0,l)
);
}
);
};
layerId = "1C9972D2-AAA2-4EE5-9F28-188B121D2056";
shapes = (
{
closed = 1;
nodes = (
(437,0,ls),
(573,0,o),
(669,92,o),
(669,223,cs),
(669,355,o),
(575,445,o),
(435,445,cs),
(236,445,l),
(236,364,l),
(425,364,ls),
(522,364,o),
(578,308,o),
(578,223,cs),
(578,138,o),
(520,81,o),
(425,81,cs),
(251,81,l),
(279,50,l),
(279,700,l),
(35,700,l),
(35,618,l),
(216,618,l),
(190,648,l),
(190,0,l)
);
}
);
width = 673;
}
);
unicode = 1066;
},
{
glyphname = "Ereversed-cy";
kernLeft = X;
kernRight = O;
lastChange = "2025-01-08 14:35:18 +0000";
layers = (
{
anchors = (
{
name = top;
pos = (346,688);
}
);
background = {
shapes = (
{
closed = 1;
nodes = (
(536,-9,o),
(648,150,o),
(650,352,cs),
(648,560,o),
(533,710,o),
(334,712,cs),
(162,710,o),
(67,608,o),
(46,496,c),
(134,496,l),
(161,573,o),
(228,632,o),
(334,632,cs),
(464,632,o),
(558,530,o),
(558,356,cs),
(558,177,o),
(464,71,o),
(334,71,cs),
(218,71,o),
(155,142,o),
(132,210,c),
(42,210,l),
(71,72,o),
(188,-9,o),
(332,-11,cs)
);
},
{
closed = 1;
nodes = (
(616,320,l),
(616,400,l),
(265,400,l),
(265,320,l)
);
}
);
};
layerId = "1C9972D2-AAA2-4EE5-9F28-188B121D2056";
shapes = (
{
closed = 1;
nodes = (
(536,-9,o),
(648,150,o),
(650,352,cs),
(648,560,o),
(533,710,o),
(334,712,cs),
(162,710,o),
(67,608,o),
(46,496,c),
(134,496,l),
(161,573,o),
(228,632,o),
(334,632,cs),
(464,632,o),
(558,530,o),
(558,356,cs),
(558,177,o),
(464,71,o),
(334,71,cs),
(218,71,o),
(155,142,o),
(132,210,c),
(42,210,l),
(71,72,o),
(188,-9,o),
(332,-11,cs)
);
},
{
closed = 1;
nodes = (
(616,320,l),
(616,400,l),
(265,400,l),
(265,320,l)
);
}
);
width = 692;
}
);
metricLeft = O;
metricRight = O;
unicode = 1069;
},
{
glyphname = "Tshe-cy";
kernLeft = T;
kernRight = O;
lastChange = "2024-12-11 03:28:41 +0000";
layers = (
{
background = {
shapes = (
{
closed = 1;
nodes = (
(296,74,l),
(296,144,ls),
(296,236,o),
(353,339,o),
(475,360,cs),
(585,379,o),
(649,315,o),
(649,189,cs),
(649,0,l),
(737,0,l),
(737,189,ls),
(737,304,o),
(694,442,o),
(510,442,cs),
(442,442,o),
(403,424,o),
(346,379,c),
(344,379,l),
(344,533,l),
(266,533,l),
(266,0,l)
);
},
{
ref = T;
}
);
};
layerId = "1C9972D2-AAA2-4EE5-9F28-188B121D2056";
shapes = (
{
closed = 1;
nodes = (
(296,74,l),
(296,144,ls),
(296,236,o),
(353,339,o),
(475,360,cs),
(585,379,o),
(649,315,o),
(649,189,cs),
(649,0,l),
(737,0,l),
(737,189,ls),
(737,304,o),
(694,442,o),
(510,442,cs),
(442,442,o),
(403,424,o),
(346,379,c),
(344,379,l),
(344,533,l),
(266,533,l),
(266,0,l)
);
},
{
ref = T;
}
);
width = 761;
}
);
unicode = 1035;
},
{
glyphname = "Iu-cy";
kernLeft = H;
kernRight = O;
lastChange = "2025-01-08 14:35:31 +0000";
layers = (
{
anchors = (
{
name = top;
pos = (476,688);
}
);
background = {
shapes = (
{
closed = 1;
nodes = (
(792,-12,o),
(924,133,o),
(924,352,cs),
(924,571,o),
(792,712,o),
(606,712,cs),
(416,712,o),
(286,571,o),
(286,352,cs),
(286,133,o),
(416,-12,o),
(606,-12,cs)
);
},
{
closed = 1;
nodes = (
(176,0,l),
(176,704,l),
(86,704,l),
(86,0,l)
);
},
{
closed = 1;
nodes = (
(318,320,l),
(318,404,l),
(156,404,l),
(156,320,l)
);
},
{
closed = 1;
nodes = (
(463,72,o),
(378,187,o),
(378,352,cs),
(378,517,o),
(463,628,o),
(606,628,cs),
(741,628,o),
(834,523,o),
(834,352,cs),
(834,181,o),
(741,72,o),
(606,72,cs)
);
}
);
};
layerId = "1C9972D2-AAA2-4EE5-9F28-188B121D2056";
shapes = (
{
closed = 1;
nodes = (
(792,-12,o),
(924,133,o),
(924,352,cs),
(924,571,o),
(792,712,o),
(606,712,cs),
(416,712,o),
(286,571,o),
(286,352,cs),
(286,133,o),
(416,-12,o),
(606,-12,cs)
);
},
{
closed = 1;
nodes = (
(176,0,l),
(176,704,l),
(86,704,l),
(86,0,l)
);
},
{
closed = 1;
nodes = (
(318,320,l),
(318,404,l),
(156,404,l),
(156,320,l)
);
},
{
closed = 1;
nodes = (
(463,72,o),
(378,187,o),
(378,352,cs),
(378,517,o),
(463,628,o),
(606,628,cs),
(741,628,o),
(834,523,o),
(834,352,cs),
(834,181,o),
(741,72,o),
(606,72,cs)
);
}
);
width = 966;
}
);
metricLeft = H;
metricRight = O;
unicode = 1070;
},
{
glyphname = "Ia-cy";
kernLeft = N;
kernRight = N;
lastChange = "2025-01-08 14:35:34 +0000";
layers = (
{
anchors = (
{
name = top;
pos = (306,688);
}
);
background = {
shapes = (
{
closed = 1;
nodes = (
(534,0,l),
(534,700,l),
(287,700,ls),
(149,700,o),
(53,611,o),
(53,478,cs),
(53,345,o),
(152,256,o),
(283,256,cs),
(468,256,l),
(468,336,l),
(299,336,ls),
(202,336,o),
(144,394,o),
(144,478,cs),
(144,561,o),
(201,619,o),
(298,619,cs),
(472,619,l),
(445,646,l),
(445,0,l)
);
},
{
closed = 1;
nodes = (
(129,0,l),
(312,287,l),
(208,287,l),
(24,0,l)
);
}
);
};
layerId = "1C9972D2-AAA2-4EE5-9F28-188B121D2056";
shapes = (
{
closed = 1;
nodes = (
(534,0,l),
(534,700,l),
(287,700,ls),
(149,700,o),
(53,611,o),
(53,478,cs),
(53,345,o),
(152,256,o),
(283,256,cs),
(468,256,l),
(468,336,l),
(299,336,ls),
(202,336,o),
(144,394,o),
(144,478,cs),
(144,561,o),
(201,619,o),
(298,619,cs),
(472,619,l),
(445,646,l),
(445,0,l)
);
},
{
closed = 1;
nodes = (
(129,0,l),
(312,287,l),
(208,287,l),
(24,0,l)
);
}
);
width = 620;
}
);
metricRight = H;
unicode = 1071;
},
{
glyphname = "Dje-cy";
kernLeft = T;
kernRight = O;
lastChange = "2024-12-11 03:28:41 +0000";
layers = (
{
background = {
shapes = (
{
closed = 1;
nodes = (
(692,-68,o),
(775,96,o),
(757,223,cs),
(739,351,o),
(658,441,o),
(534,441,cs),
(475,441,o),
(400,421,o),
(347,368,c),
(345,368,l),
(345,472,l),
(276,472,l),
(276,0,l),
(336,0,l),
(295,95,o),
(307,179,o),
(343,250,cs),
(427,416,o),
(636,395,o),
(667,222,cs),
(676,172,o),
(667,25,o),
(477,49,c),
(477,-28,l)
);
},
{
alignment = -1;
ref = T;
}
);
};
layerId = "1C9972D2-AAA2-4EE5-9F28-188B121D2056";
shapes = (
{
closed = 1;
nodes = (
(692,-68,o),
(775,96,o),
(757,223,cs),
(739,351,o),
(658,441,o),
(534,441,cs),
(475,441,o),
(400,421,o),
(347,368,c),
(345,368,l),
(345,472,l),
(276,472,l),
(276,0,l),
(336,0,l),
(295,95,o),
(307,179,o),
(343,250,cs),
(427,416,o),
(636,395,o),
(667,222,cs),
(676,172,o),
(667,25,o),
(477,49,c),
(477,-28,l)
);
},
{
alignment = -1;
ref = T;
}
);
width = 801;
}
);
metricLeft = T;
metricRight = O;
unicode = 1026;
},
{
glyphname = "U-cy.ss01";
kernLeft = X;
kernRight = Y;
lastChange = "2024-12-11 03:28:41 +0000";
layers = (
{
background = {
shapes = (
{
closed = 1;
nodes = (
(258,-10,o),
(308,55,o),
(365,189,cs),
(584,700,l),
(486,700,l),
(303,249,l),
(301,249,l),
(110,700,l),
(12,700,l),
(252,148,l),
(224,97,o),
(189,71,o),
(140,71,cs),
(119,71,o),
(104,72,o),
(100,75,c),
(100,-4,l),
(106,-7,o),
(120,-10,o),
(140,-10,cs)
);
}
);
};
layerId = "1C9972D2-AAA2-4EE5-9F28-188B121D2056";
shapes = (
{
closed = 1;
nodes = (
(258,-10,o),
(308,55,o),
(365,189,cs),
(584,700,l),
(486,700,l),
(303,249,l),
(301,249,l),
(110,700,l),
(12,700,l),
(252,148,l),
(224,97,o),
(189,71,o),
(140,71,cs),
(119,71,o),
(104,72,o),
(100,75,c),
(100,-4,l),
(106,-7,o),
(120,-10,o),
(140,-10,cs)
);
}
);
width = 596;
}
);
metricLeft = y;
metricRight = y;
},
{
glyphname = "be-cy";
kernLeft = "be-cy";
kernRight = o;
lastChange = "2024-12-11 03:28:41 +0000";
layers = (
{
background = {
shapes = (
{
closed = 1;
nodes = (
(444,-12,o),
(543,95,o),
(543,248,cs),
(543,413,o),
(443,504,o),
(312,504,cs),
(238,504,o),
(178,476,o),
(141,424,c),
(138,424,l),
(154,533,o),
(199,611,o),
(310,618,cs),
(489,630,l),
(489,709,l),
(294,698,ls),
(110,688,o),
(50,523,o),
(50,296,cs),
(50,98,o),
(151,-12,o),
(304,-12,cs)
);
},
{
closed = 1;
nodes = (
(205,68,o),
(142,140,o),
(142,252,cs),
(142,361,o),
(207,428,o),
(302,428,cs),
(395,428,o),
(456,353,o),
(456,248,cs),
(456,138,o),
(392,68,o),
(300,68,cs)
);
}
);
};
layerId = "1C9972D2-AAA2-4EE5-9F28-188B121D2056";
shapes = (
{
closed = 1;
nodes = (
(444,-12,o),
(543,95,o),
(543,248,cs),
(543,413,o),
(443,504,o),
(312,504,cs),
(238,504,o),
(178,476,o),
(141,424,c),
(138,424,l),
(154,533,o),
(199,611,o),
(310,618,cs),
(489,630,l),
(489,709,l),
(294,698,ls),
(110,688,o),
(50,523,o),
(50,296,cs),
(50,98,o),
(151,-12,o),
(304,-12,cs)
);
},
{
closed = 1;
nodes = (
(205,68,o),
(142,140,o),
(142,252,cs),
(142,361,o),
(207,428,o),
(302,428,cs),
(395,428,o),
(456,353,o),
(456,248,cs),
(456,138,o),
(392,68,o),
(300,68,cs)
);
}
);
width = 581;
}
);
metricRight = o;
unicode = 1073;
},
{
glyphname = "ve-cy";
kernLeft = n;
kernRight = ve;
lastChange = "2024-12-11 03:28:41 +0000";
layers = (
{
background = {
shapes = (
{
closed = 1;
nodes = (
(290,0,ls),
(394,0,o),
(458,61,o),
(458,148,cs),
(458,215,o),
(419,260,o),
(372,273,c),
(372,275,l),
(405,291,o),
(436,330,o),
(436,386,cs),
(436,465,o),
(379,520,o),
(278,520,cs),
(64,520,l),
(64,0,l)
);
},
{
closed = 1;
nodes = (
(148,482,l),
(114,444,l),
(270,444,ls),
(322,444,o),
(350,420,o),
(350,376,cs),
(350,332,o),
(321,304,o),
(270,304,cs),
(122,304,l),
(122,230,l),
(280,230,ls),
(340,230,o),
(372,203,o),
(372,154,cs),
(372,106,o),
(336,76,o),
(280,76,cs),
(114,76,l),
(148,38,l)
);
}
);
};
layerId = "1C9972D2-AAA2-4EE5-9F28-188B121D2056";
shapes = (
{
closed = 1;
nodes = (
(290,0,ls),
(394,0,o),
(458,61,o),
(458,148,cs),
(458,215,o),
(419,260,o),
(372,273,c),
(372,275,l),
(405,291,o),
(436,330,o),
(436,386,cs),
(436,465,o),
(379,520,o),
(278,520,cs),
(64,520,l),
(64,0,l)
);
},
{
closed = 1;
nodes = (
(148,482,l),
(114,444,l),
(270,444,ls),
(322,444,o),
(350,420,o),
(350,376,cs),
(350,332,o),
(321,304,o),
(270,304,cs),
(122,304,l),
(122,230,l),
(280,230,ls),
(340,230,o),
(372,203,o),
(372,154,cs),
(372,106,o),
(336,76,o),
(280,76,cs),
(114,76,l),
(148,38,l)
);
}
);
width = 500;
},
{
associatedMasterId = "1C9972D2-AAA2-4EE5-9F28-188B121D2056";
layerId = "A2873047-0ED6-4C67-9B4D-3870B51BD5C6";
name = "new Layer";
width = 600;
}
);
unicode = 1074;
},
{
glyphname = "ge-cy";
kernLeft = r;
kernRight = r;
lastChange = "2025-01-08 14:21:30 +0000";
layers = (
{
anchors = (
{
name = top;
pos = (245,520);
}
);
background = {
shapes = (
{
closed = 1;
nodes = (
(150,0,l),
(150,478,l),
(116,444,l),
(398,444,l),
(398,520,l),
(64,520,l),
(64,0,l)
);
}
);
};
layerId = "1C9972D2-AAA2-4EE5-9F28-188B121D2056";
shapes = (
{
closed = 1;
nodes = (
(150,0,l),
(150,478,l),
(116,444,l),
(398,444,l),
(398,520,l),
(64,520,l),
(64,0,l)
);
}
);
width = 432;
}
);
metricLeft = r;
unicode = 1075;
},
{
glyphname = "geupturn-cy";
kernLeft = r;
kernRight = r;
lastChange = "2024-12-11 03:28:41 +0000";
layers = (
{
background = {
shapes = (
{
closed = 1;
nodes = (
(398,444,l),
(398,594,l),
(312,594,l),
(312,444,l)
);
},
{
ref = "ge-cy";
}
);
};
layerId = "1C9972D2-AAA2-4EE5-9F28-188B121D2056";
shapes = (
{
closed = 1;
nodes = (
(398,444,l),
(398,594,l),
(312,594,l),
(312,444,l)
);
},
{
ref = "ge-cy";
}
);
width = 432;
}
);
unicode = 1169;
},
{
glyphname = "de-cy";
kernLeft = o;
kernRight = v;
lastChange = "2024-12-11 03:28:41 +0000";
layers = (
{
background = {
shapes = (
{
closed = 1;
nodes = (
(500,60,l),
(500,520,l),
(140,520,l),
(118,251,ls),
(110,151,o),
(85,82,o),
(46,73,c),
(151,73,l),
(184,105,o),
(193,157,o),
(201,249,cs),
(220,480,l),
(182,444,l),
(452,444,l),
(414,480,l),
(414,60,l)
);
},
{
closed = 1;
nodes = (
(98,-128,l),
(98,35,l),
(64,0,l),
(525,0,l),
(491,35,l),
(491,-128,l),
(574,-128,l),
(574,78,l),
(15,78,l),
(15,-128,l)
);
}
);
};
layerId = "1C9972D2-AAA2-4EE5-9F28-188B121D2056";
shapes = (
{
closed = 1;
nodes = (
(500,60,l),
(500,520,l),
(140,520,l),
(118,251,ls),
(110,151,o),
(85,82,o),
(46,73,c),
(151,73,l),
(184,105,o),
(193,157,o),
(201,249,cs),
(220,480,l),
(182,444,l),
(452,444,l),
(414,480,l),
(414,60,l)
);
},
{
closed = 1;
nodes = (
(98,-128,l),
(98,35,l),
(64,0,l),
(525,0,l),
(491,35,l),
(491,-128,l),
(574,-128,l),
(574,78,l),
(15,78,l),
(15,-128,l)
);
}
);
width = 597;
}
);
unicode = 1076;
},
{
glyphname = "io-cy";
kernLeft = e;
kernRight = e;
lastChange = "2025-01-07 18:52:13 +0000";
layers = (
{
background = {
shapes = (
{
closed = 1;
nodes = (
(412,629,l),
(412,729,l),
(312,729,l),
(312,629,l)
);
},
{
ref = e;
},
{
closed = 1;
nodes = (
(240,629,l),
(240,729,l),
(140,729,l),
(140,629,l)
);
}
);
};
guides = (
{
name = "UC mark bottom";
pos = (0,607);
},
{
name = "UC mark top";
pos = (0,758);
}
);
layerId = "1C9972D2-AAA2-4EE5-9F28-188B121D2056";
shapes = (
{
closed = 1;
nodes = (
(412,629,l),
(412,729,l),
(312,729,l),
(312,629,l)
);
},
{
ref = e;
},
{
closed = 1;
nodes = (
(240,629,l),
(240,729,l),
(140,729,l),
(140,629,l)
);
}
);
width = 534;
}
);
metricLeft = e;
metricRight = e;
unicode = 1105;
},
{
glyphname = "zhe-cy";
kernLeft = x;
kernRight = x;
lastChange = "2025-01-08 14:38:35 +0000";
layers = (
{
anchors = (
{
name = top;
pos = (358,520);
}
);
background = {
shapes = (
{
closed = 1;
nodes = (
(704,0,l),
(472,292,l),
(472,260,l),
(700,520,l),
(596,520,l),
(380,274,l),
(598,0,l)
);
},
{
closed = 1;
nodes = (
(114,0,l),
(330,274,l),
(114,520,l),
(10,520,l),
(240,258,l),
(240,290,l),
(8,0,l)
);
},
{
closed = 1;
nodes = (
(398,0,l),
(398,520,l),
(314,520,l),
(314,0,l)
);
},
{
closed = 1;
nodes = (
(457,240,l),
(457,313,l),
(258,313,l),
(258,240,l)
);
}
);
};
layerId = "1C9972D2-AAA2-4EE5-9F28-188B121D2056";
shapes = (
{
closed = 1;
nodes = (
(704,0,l),
(472,292,l),
(472,260,l),
(700,520,l),
(596,520,l),
(380,274,l),
(598,0,l)
);
},
{
closed = 1;
nodes = (
(114,0,l),
(330,274,l),
(114,520,l),
(10,520,l),
(240,258,l),
(240,290,l),
(8,0,l)
);
},
{
closed = 1;
nodes = (
(398,0,l),
(398,520,l),
(314,520,l),
(314,0,l)
);
},
{
closed = 1;
nodes = (
(457,240,l),
(457,313,l),
(258,313,l),
(258,240,l)
);
}
);
width = 712;
}
);
unicode = 1078;
},
{
glyphname = "ze-cy";
kernLeft = x;
kernRight = "ze-cy";
lastChange = "2025-01-08 14:38:40 +0000";
layers = (
{
anchors = (
{
name = top;
pos = (235,520);
}
);
background = {
shapes = (
{
closed = 1;
nodes = (
(352,-12,o),
(432,53,o),
(432,146,cs),
(432,212,o),
(389,249,o),
(344,263,c),
(344,266,l),
(381,281,o),
(412,317,o),
(412,372,cs),
(412,467,o),
(337,528,o),
(234,528,cs),
(131,528,o),
(50,469,o),
(36,370,c),
(116,370,l),
(127,414,o),
(167,452,o),
(230,452,cs),
(287,452,o),
(326,416,o),
(326,368,cs),
(326,321,o),
(292,294,o),
(232,294,cs),
(158,294,l),
(158,220,l),
(236,220,ls),
(308,220,o),
(346,195,o),
(346,146,cs),
(346,95,o),
(304,66,o),
(236,66,cs),
(169,66,o),
(123,93,o),
(112,144,c),
(26,144,l),
(40,45,o),
(122,-12,o),
(234,-12,cs)
);
}
);
};
layerId = "1C9972D2-AAA2-4EE5-9F28-188B121D2056";
shapes = (
{
closed = 1;
nodes = (
(352,-12,o),
(432,53,o),
(432,146,cs),
(432,212,o),
(389,249,o),
(344,263,c),
(344,266,l),
(381,281,o),
(412,317,o),
(412,372,cs),
(412,467,o),
(337,528,o),
(234,528,cs),
(131,528,o),
(50,469,o),
(36,370,c),
(116,370,l),
(127,414,o),
(167,452,o),
(230,452,cs),
(287,452,o),
(326,416,o),
(326,368,cs),
(326,321,o),
(292,294,o),
(232,294,cs),
(158,294,l),
(158,220,l),
(236,220,ls),
(308,220,o),
(346,195,o),
(346,146,cs),
(346,95,o),
(304,66,o),
(236,66,cs),
(169,66,o),
(123,93,o),
(112,144,c),
(26,144,l),
(40,45,o),
(122,-12,o),
(234,-12,cs)
);
}
);
width = 474;
}
);
unicode = 1079;
},
{
glyphname = "ii-cy";
kernLeft = n;
kernRight = u;
lastChange = "2025-01-08 14:21:15 +0000";
layers = (
{
anchors = (
{
name = top;
pos = (275,520);
}
);
background = {
shapes = (
{
closed = 1;
nodes = (
(148,0,l),
(432,420,l),
(406,420,l),
(406,0,l),
(490,0,l),
(490,520,l),
(406,520,l),
(122,96,l),
(148,96,l),
(148,520,l),
(64,520,l),
(64,0,l)
);
}
);
};
layerId = "1C9972D2-AAA2-4EE5-9F28-188B121D2056";
shapes = (
{
closed = 1;
nodes = (
(148,0,l),
(432,420,l),
(406,420,l),
(406,0,l),
(490,0,l),
(490,520,l),
(406,520,l),
(122,96,l),
(148,96,l),
(148,520,l),
(64,520,l),
(64,0,l)
);
}
);
width = 554;
}
);
metricLeft = n;
metricRight = u;
unicode = 1080;
},
{
glyphname = "ka-cy";
kernLeft = k;
kernRight = k;
lastChange = "2025-01-08 14:22:04 +0000";
layers = (
{
anchors = (
{
name = top;
pos = (265,520);
}
);
background = {
shapes = (
{
closed = 1;
nodes = (
(480,0,l),
(228,290,l),
(228,266,l),
(476,520,l),
(368,520,l),
(128,276,l),
(368,0,l)
);
},
{
closed = 1;
nodes = (
(150,0,l),
(150,520,l),
(64,520,l),
(64,0,l)
);
},
{
closed = 1;
nodes = (
(201,240,l),
(201,313,l),
(110,313,l),
(110,240,l)
);
}
);
};
layerId = "1C9972D2-AAA2-4EE5-9F28-188B121D2056";
shapes = (
{
closed = 1;
nodes = (
(480,0,l),
(228,290,l),
(228,266,l),
(476,520,l),
(368,520,l),
(128,276,l),
(368,0,l)
);
},
{
closed = 1;
nodes = (
(150,0,l),
(150,520,l),
(64,520,l),
(64,0,l)
);
},
{
closed = 1;
nodes = (
(201,240,l),
(201,313,l),
(110,313,l),
(110,240,l)
);
}
);
width = 486;
}
);
metricLeft = k;
metricRight = k;
unicode = 1082;
},
{
glyphname = "el-cy";
kernLeft = o;
kernRight = u;
lastChange = "2024-12-11 03:28:41 +0000";
layers = (
{
background = {
shapes = (
{
closed = 1;
nodes = (
(154,-2,o),
(187,80,o),
(196,190,cs),
(220,480,l),
(182,444,l),
(436,444,l),
(402,480,l),
(402,0,l),
(488,0,l),
(488,520,l),
(140,520,l),
(114,196,ls),
(107,105,o),
(86,77,o),
(26,77,cs),
(12,77,l),
(12,-2,l),
(36,-2,ls)
);
}
);
};
layerId = "1C9972D2-AAA2-4EE5-9F28-188B121D2056";
shapes = (
{
closed = 1;
nodes = (
(154,-2,o),
(187,80,o),
(196,190,cs),
(220,480,l),
(182,444,l),
(436,444,l),
(402,480,l),
(402,0,l),
(488,0,l),
(488,520,l),
(140,520,l),
(114,196,ls),
(107,105,o),
(86,77,o),
(26,77,cs),
(12,77,l),
(12,-2,l),
(36,-2,ls)
);
}
);
width = 552;
}
);
metricRight = u;
unicode = 1083;
},
{
glyphname = "em-cy";
kernLeft = m;
kernRight = u;
lastChange = "2024-12-11 03:28:41 +0000";
layers = (
{
background = {
shapes = (
{
closed = 1;
nodes = (
(147,0,l),
(147,219,ls),
(147,259,o),
(147,356,o),
(144,377,c),
(147,377,l),
(315,0,l),
(387,0,l),
(551,372,l),
(554,372,l),
(554,0,l),
(637,0,l),
(637,520,l),
(514,520,l),
(352,102,l),
(349,102,l),
(167,520,l),
(64,520,l),
(64,0,l)
);
}
);
};
layerId = "1C9972D2-AAA2-4EE5-9F28-188B121D2056";
shapes = (
{
closed = 1;
nodes = (
(147,0,l),
(147,219,ls),
(147,259,o),
(147,356,o),
(144,377,c),
(147,377,l),
(315,0,l),
(387,0,l),
(551,372,l),
(554,372,l),
(554,0,l),
(637,0,l),
(637,520,l),
(514,520,l),
(352,102,l),
(349,102,l),
(167,520,l),
(64,520,l),
(64,0,l)
);
}
);
width = 701;
}
);
metricLeft = m;
metricRight = u;
unicode = 1084;
},
{
glyphname = "en-cy";
kernLeft = n;
kernRight = u;
lastChange = "2025-01-08 19:37:43 +0000";
layers = (
{
anchors = (
{
name = top;
pos = (278,520);
}
);
background = {
shapes = (
{
closed = 1;
nodes = (
(484,0,l),
(484,520,l),
(398,520,l),
(398,0,l)
);
},
{
closed = 1;
nodes = (
(150,0,l),
(150,520,l),
(64,520,l),
(64,0,l)
);
},
{
closed = 1;
nodes = (
(414,238,l),
(414,316,l),
(134,316,l),
(134,238,l)
);
}
);
};
layerId = "1C9972D2-AAA2-4EE5-9F28-188B121D2056";
shapes = (
{
closed = 1;
nodes = (
(484,0,l),
(484,520,l),
(398,520,l),
(398,0,l)
);
},
{
closed = 1;
nodes = (
(150,0,l),
(150,520,l),
(64,520,l),
(64,0,l)
);
},
{
closed = 1;
nodes = (
(414,238,l),
(414,316,l),
(134,316,l),
(134,238,l)
);
}
);
width = 548;
}
);
metricLeft = m;
metricRight = u;
unicode = 1085;
},
{
glyphname = "pe-cy";
kernLeft = n;
kernRight = u;
lastChange = "2024-12-11 03:28:41 +0000";
layers = (
{
background = {
shapes = (
{
closed = 1;
nodes = (
(150,0,l),
(150,478,l),
(114,444,l),
(430,444,l),
(396,478,l),
(396,0,l),
(482,0,l),
(482,520,l),
(64,520,l),
(64,0,l)
);
}
);
};
layerId = "1C9972D2-AAA2-4EE5-9F28-188B121D2056";
shapes = (
{
closed = 1;
nodes = (
(150,0,l),
(150,478,l),
(114,444,l),
(430,444,l),
(396,478,l),
(396,0,l),
(482,0,l),
(482,520,l),
(64,520,l),
(64,0,l)
);
}
);
width = 541;
}
);
metricLeft = n;
metricRight = n;
unicode = 1087;
},
{
glyphname = "er-cy";
kernLeft = p;
kernRight = p;
lastChange = "2024-12-11 03:28:41 +0000";
layers = (
{
background = {
shapes = (
{
closed = 1;
nodes = (
(148,-186,l),
(148,68,l),
(150,68,l),
(183,15,o),
(235,-12,o),
(306,-12,cs),
(443,-12,o),
(539,89,o),
(539,258,cs),
(539,426,o),
(438,532,o),
(311,532,cs),
(249,532,o),
(195,508,o),
(148,453,c),
(146,453,l),
(146,520,l),
(64,520,l),
(64,-186,l)
);
},
{
closed = 1;
nodes = (
(193,66,o),
(147,149,o),
(147,262,cs),
(147,389,o),
(212,454,o),
(301,454,cs),
(397,454,o),
(451,366,o),
(451,262,cs),
(451,148,o),
(401,66,o),
(301,66,cs)
);
}
);
};
layerId = "1C9972D2-AAA2-4EE5-9F28-188B121D2056";
shapes = (
{
closed = 1;
nodes = (
(148,-186,l),
(148,68,l),
(150,68,l),
(183,15,o),
(235,-12,o),
(306,-12,cs),
(443,-12,o),
(539,89,o),
(539,258,cs),
(539,426,o),
(438,532,o),
(311,532,cs),
(249,532,o),
(195,508,o),
(148,453,c),
(146,453,l),
(146,520,l),
(64,520,l),
(64,-186,l)
);
},
{
closed = 1;
nodes = (
(193,66,o),
(147,149,o),
(147,262,cs),
(147,389,o),
(212,454,o),
(301,454,cs),
(397,454,o),
(451,366,o),
(451,262,cs),
(451,148,o),
(401,66,o),
(301,66,cs)
);
}
);
width = 577;
}
);
unicode = 1088;
},
{
glyphname = "es-cy";
kernLeft = o;
kernRight = c;
lastChange = "2024-12-11 03:28:41 +0000";
layers = (
{
background = {
shapes = (
{
closed = 1;
nodes = (
(395,-10,o),
(477,68,o),
(492,168,c),
(406,168,l),
(393,113,o),
(351,70,o),
(278,70,cs),
(186,70,o),
(126,146,o),
(126,260,cs),
(126,374,o),
(188,450,o),
(276,450,cs),
(348,450,o),
(390,404,o),
(406,352,c),
(492,352,l),
(475,459,o),
(385,530,o),
(276,530,cs),
(132,530,o),
(38,416,o),
(38,260,cs),
(38,95,o),
(139,-10,o),
(276,-10,cs)
);
}
);
};
layerId = "1C9972D2-AAA2-4EE5-9F28-188B121D2056";
shapes = (
{
closed = 1;
nodes = (
(395,-10,o),
(477,68,o),
(492,168,c),
(406,168,l),
(393,113,o),
(351,70,o),
(278,70,cs),
(186,70,o),
(126,146,o),
(126,260,cs),
(126,374,o),
(188,450,o),
(276,450,cs),
(348,450,o),
(390,404,o),
(406,352,c),
(492,352,l),
(475,459,o),
(385,530,o),
(276,530,cs),
(132,530,o),
(38,416,o),
(38,260,cs),
(38,95,o),
(139,-10,o),
(276,-10,cs)
);
}
);
width = 530;
}
);
unicode = 1089;
},
{
glyphname = "te-cy";
kernLeft = te;
kernRight = r;
lastChange = "2024-12-11 03:28:41 +0000";
layers = (
{
background = {
shapes = (
{
closed = 1;
nodes = (
(280,0,l),
(280,474,l),
(194,474,l),
(194,0,l)
);
},
{
closed = 1;
nodes = (
(452,444,l),
(452,520,l),
(26,520,l),
(26,444,l)
);
}
);
};
layerId = "1C9972D2-AAA2-4EE5-9F28-188B121D2056";
shapes = (
{
closed = 1;
nodes = (
(280,0,l),
(280,474,l),
(194,474,l),
(194,0,l)
);
},
{
closed = 1;
nodes = (
(452,444,l),
(452,520,l),
(26,520,l),
(26,444,l)
);
}
);
width = 478;
}
);
unicode = 1090;
},
{
glyphname = "ef-cy";
kernLeft = o;
kernRight = o;
lastChange = "2024-12-11 03:28:41 +0000";
layers = (
{
background = {
shapes = (
{
closed = 1;
nodes = (
(384,-192,l),
(384,-12,l),
(529,-12,o),
(644,97,o),
(644,255,cs),
(644,456,o),
(493,532,o),
(384,532,c),
(384,704,l),
(300,704,l),
(300,532,l),
(144,532,o),
(38,427,o),
(38,255,cs),
(38,102,o),
(146,-12,o),
(300,-12,c),
(300,-192,l)
);
},
{
closed = 1;
nodes = (
(197,66,o),
(126,146,o),
(126,255,cs),
(126,401,o),
(209,454,o),
(300,454,c),
(300,66,l)
);
},
{
closed = 1;
nodes = (
(384,454,l),
(466,454,o),
(558,407,o),
(558,255,cs),
(558,146,o),
(485,66,o),
(384,66,c)
);
}
);
};
guides = (
{
angle = 180;
pos = (342,-192);
}
);
layerId = "1C9972D2-AAA2-4EE5-9F28-188B121D2056";
shapes = (
{
closed = 1;
nodes = (
(384,-192,l),
(384,-12,l),
(529,-12,o),
(644,97,o),
(644,255,cs),
(644,456,o),
(493,532,o),
(384,532,c),
(384,704,l),
(300,704,l),
(300,532,l),
(144,532,o),
(38,427,o),
(38,255,cs),
(38,102,o),
(146,-12,o),
(300,-12,c),
(300,-192,l)
);
},
{
closed = 1;
nodes = (
(197,66,o),
(126,146,o),
(126,255,cs),
(126,401,o),
(209,454,o),
(300,454,c),
(300,66,l)
);
},
{
closed = 1;
nodes = (
(384,454,l),
(466,454,o),
(558,407,o),
(558,255,cs),
(558,146,o),
(485,66,o),
(384,66,c)
);
}
);
width = 682;
}
);
metricLeft = o;
metricRight = o;
unicode = 1092;
},
{
glyphname = "che-cy";
kernLeft = n;
kernRight = u;
lastChange = "2025-01-08 14:38:57 +0000";
layers = (
{
anchors = (
{
name = top;
pos = (235,520);
}
);
background = {
shapes = (
{
closed = 1;
nodes = (
(310,180,o),
(352,203,o),
(384,236,c),
(384,310,l),
(348,277,o),
(311,258,o),
(248,258,cs),
(170,258,o),
(124,300,o),
(124,384,cs),
(124,520,l),
(38,520,l),
(38,382,ls),
(38,251,o),
(114,180,o),
(238,180,cs)
);
},
{
closed = 1;
nodes = (
(436,0,l),
(436,520,l),
(350,520,l),
(350,0,l)
);
}
);
};
layerId = "1C9972D2-AAA2-4EE5-9F28-188B121D2056";
shapes = (
{
closed = 1;
nodes = (
(310,180,o),
(352,203,o),
(384,236,c),
(384,310,l),
(348,277,o),
(311,258,o),
(248,258,cs),
(170,258,o),
(124,300,o),
(124,384,cs),
(124,520,l),
(38,520,l),
(38,382,ls),
(38,251,o),
(114,180,o),
(238,180,cs)
);
},
{
closed = 1;
nodes = (
(436,0,l),
(436,520,l),
(350,520,l),
(350,0,l)
);
}
);
width = 500;
}
);
metricLeft = d;
metricRight = u;
unicode = 1095;
},
{
glyphname = "tse-cy";
kernLeft = n;
kernRight = "tse-cy";
lastChange = "2024-12-11 03:28:41 +0000";
layers = (
{
background = {
shapes = (
{
closed = 1;
nodes = (
(552,-128,l),
(552,78,l),
(114,78,l),
(150,44,l),
(150,520,l),
(64,520,l),
(64,0,l),
(504,0,l),
(470,36,l),
(470,-128,l)
);
},
{
closed = 1;
nodes = (
(478,58,l),
(478,520,l),
(392,520,l),
(392,58,l)
);
}
);
};
layerId = "1C9972D2-AAA2-4EE5-9F28-188B121D2056";
shapes = (
{
closed = 1;
nodes = (
(552,-128,l),
(552,78,l),
(114,78,l),
(150,44,l),
(150,520,l),
(64,520,l),
(64,0,l),
(504,0,l),
(470,36,l),
(470,-128,l)
);
},
{
closed = 1;
nodes = (
(478,58,l),
(478,520,l),
(392,520,l),
(392,58,l)
);
}
);
width = 572;
}
);
metricLeft = n;
unicode = 1094;
},
{
glyphname = "sha-cy";
kernLeft = n;
kernRight = u;
lastChange = "2024-12-11 03:28:41 +0000";
layers = (
{
background = {
shapes = (
{
closed = 1;
nodes = (
(710,0,l),
(710,520,l),
(624,520,l),
(624,44,l),
(658,78,l),
(114,78,l),
(150,44,l),
(150,520,l),
(64,520,l),
(64,0,l)
);
},
{
closed = 1;
nodes = (
(430,50,l),
(430,520,l),
(344,520,l),
(344,50,l)
);
}
);
};
layerId = "1C9972D2-AAA2-4EE5-9F28-188B121D2056";
shapes = (
{
closed = 1;
nodes = (
(710,0,l),
(710,520,l),
(624,520,l),
(624,44,l),
(658,78,l),
(114,78,l),
(150,44,l),
(150,520,l),
(64,520,l),
(64,0,l)
);
},
{
closed = 1;
nodes = (
(430,50,l),
(430,520,l),
(344,520,l),
(344,50,l)
);
}
);
width = 774;
}
);
metricLeft = m;
metricRight = m;
unicode = 1096;
},
{
glyphname = "shcha-cy";
kernLeft = n;
kernRight = "tse-cy";
lastChange = "2024-12-11 03:28:41 +0000";
layers = (
{
background = {
shapes = (
{
closed = 1;
nodes = (
(784,-154,l),
(784,72,l),
(640,72,l),
(640,0,l),
(710,0,l),
(710,-154,l)
);
},
{
ref = "sha-cy";
}
);
};
layerId = "1C9972D2-AAA2-4EE5-9F28-188B121D2056";
shapes = (
{
closed = 1;
nodes = (
(784,-154,l),
(784,72,l),
(640,72,l),
(640,0,l),
(710,0,l),
(710,-154,l)
);
},
{
ref = "sha-cy";
}
);
width = 804;
}
);
metricLeft = m;
unicode = 1097;
},
{
glyphname = "dzhe-cy";
kernLeft = n;
kernRight = n;
lastChange = "2024-12-11 03:28:41 +0000";
layers = (
{
background = {
shapes = (
{
closed = 1;
nodes = (
(478,0,l),
(478,78,l),
(114,78,l),
(150,44,l),
(150,520,l),
(64,520,l),
(64,0,l)
);
},
{
closed = 1;
nodes = (
(317,-87,l),
(317,63,l),
(231,63,l),
(231,-87,l)
);
},
{
closed = 1;
nodes = (
(478,58,l),
(478,520,l),
(392,520,l),
(392,58,l)
);
}
);
};
layerId = "1C9972D2-AAA2-4EE5-9F28-188B121D2056";
shapes = (
{
closed = 1;
nodes = (
(478,0,l),
(478,78,l),
(114,78,l),
(150,44,l),
(150,520,l),
(64,520,l),
(64,0,l)
);
},
{
closed = 1;
nodes = (
(317,-87,l),
(317,63,l),
(231,63,l),
(231,-87,l)
);
},
{
closed = 1;
nodes = (
(478,58,l),
(478,520,l),
(392,520,l),
(392,58,l)
);
}
);
width = 542;
}
);
unicode = 1119;
},
{
glyphname = "softsign-cy";
kernLeft = n;
kernRight = b;
lastChange = "2024-12-11 03:28:41 +0000";
layers = (
{
background = {
shapes = (
{
closed = 1;
nodes = (
(262,0,ls),
(364,0,o),
(440,69,o),
(440,172,cs),
(440,275,o),
(366,342,o),
(262,342,cs),
(140,342,l),
(140,266,l),
(252,266,ls),
(315,266,o),
(354,228,o),
(354,172,cs),
(354,116,o),
(315,76,o),
(252,76,cs),
(114,76,l),
(150,42,l),
(150,520,l),
(64,520,l),
(64,0,l)
);
}
);
};
layerId = "1C9972D2-AAA2-4EE5-9F28-188B121D2056";
shapes = (
{
closed = 1;
nodes = (
(262,0,ls),
(364,0,o),
(440,69,o),
(440,172,cs),
(440,275,o),
(366,342,o),
(262,342,cs),
(140,342,l),
(140,266,l),
(252,266,ls),
(315,266,o),
(354,228,o),
(354,172,cs),
(354,116,o),
(315,76,o),
(252,76,cs),
(114,76,l),
(150,42,l),
(150,520,l),
(64,520,l),
(64,0,l)
);
}
);
width = 476;
}
);
metricLeft = n;
unicode = 1100;
},
{
glyphname = "yeru-cy";
kernLeft = i;
kernRight = i;
lastChange = "2025-01-08 21:14:18 +0000";
layers = (
{
anchors = (
{
name = top;
pos = (344,520);
}
);
background = {
shapes = (
{
closed = 1;
nodes = (
(626,0,l),
(626,520,l),
(536,520,l),
(536,0,l)
);
},
{
ref = "softsign-cy";
}
);
};
layerId = "1C9972D2-AAA2-4EE5-9F28-188B121D2056";
shapes = (
{
closed = 1;
nodes = (
(626,0,l),
(626,520,l),
(536,520,l),
(536,0,l)
);
},
{
ref = "softsign-cy";
}
);
width = 685;
}
);
metricLeft = n;
metricRight = n;
unicode = 1099;
},
{
glyphname = "hardsign-cy";
kernLeft = h;
kernRight = b;
lastChange = "2024-12-11 03:28:41 +0000";
layers = (
{
background = {
shapes = (
{
closed = 1;
nodes = (
(368,0,ls),
(471,0,o),
(546,70,o),
(546,173,cs),
(546,273,o),
(476,341,o),
(369,341,cs),
(246,341,l),
(246,265,l),
(358,265,ls),
(422,265,o),
(460,229,o),
(460,173,cs),
(460,117,o),
(422,76,o),
(358,76,cs),
(221,76,l),
(256,41,l),
(256,520,l),
(32,520,l),
(32,444,l),
(206,444,l),
(170,480,l),
(170,0,l)
);
}
);
};
layerId = "1C9972D2-AAA2-4EE5-9F28-188B121D2056";
shapes = (
{
closed = 1;
nodes = (
(368,0,ls),
(471,0,o),
(546,70,o),
(546,173,cs),
(546,273,o),
(476,341,o),
(369,341,cs),
(246,341,l),
(246,265,l),
(358,265,ls),
(422,265,o),
(460,229,o),
(460,173,cs),
(460,117,o),
(422,76,o),
(358,76,cs),
(221,76,l),
(256,41,l),
(256,520,l),
(32,520,l),
(32,444,l),
(206,444,l),
(170,480,l),
(170,0,l)
);
}
);
width = 584;
}
);
metricRight = b;
unicode = 1098;
},
{
glyphname = "nje-cy";
kernLeft = n;
kernRight = o;
lastChange = "2024-12-11 03:33:19 +0000";
layers = (
{
background = {
shapes = (
{
closed = 1;
nodes = (
(484,0,l),
(484,520,l),
(398,520,l),
(398,0,l)
);
},
{
closed = 1;
nodes = (
(150,0,l),
(150,520,l),
(64,520,l),
(64,0,l)
);
},
{
closed = 1;
nodes = (
(414,238,l),
(414,316,l),
(134,316,l),
(134,238,l)
);
},
{
closed = 1;
nodes = (
(596,0,ls),
(698,0,o),
(774,69,o),
(774,172,cs),
(774,275,o),
(700,342,o),
(596,342,cs),
(474,342,l),
(474,266,l),
(586,266,ls),
(649,266,o),
(688,228,o),
(688,172,cs),
(688,116,o),
(649,76,o),
(586,76,cs),
(448,76,l),
(484,42,l),
(484,520,l),
(398,520,l),
(398,0,l)
);
}
);
};
layerId = "1C9972D2-AAA2-4EE5-9F28-188B121D2056";
shapes = (
{
closed = 1;
nodes = (
(150,0,l),
(150,520,l),
(64,520,l),
(64,0,l)
);
},
{
closed = 1;
nodes = (
(414,238,l),
(414,316,l),
(134,316,l),
(134,238,l)
);
},
{
closed = 1;
nodes = (
(596,0,ls),
(698,0,o),
(774,69,o),
(774,172,cs),
(774,275,o),
(700,342,o),
(596,342,cs),
(474,342,l),
(474,266,l),
(586,266,ls),
(649,266,o),
(688,228,o),
(688,172,cs),
(688,116,o),
(649,76,o),
(586,76,cs),
(448,76,l),
(484,42,l),
(484,520,l),
(398,520,l),
(398,0,l)
);
}
);
width = 810;
}
);
unicode = 1114;
},
{
glyphname = "e-cy";
kernLeft = e;
kernRight = e;
lastChange = "2024-12-11 03:28:41 +0000";
layers = (
{
background = {
shapes = (
{
closed = 1;
nodes = (
(403,-12,o),
(478,65,o),
(492,158,c),
(408,158,l),
(397,107,o),
(355,66,o),
(276,66,cs),
(188,66,o),
(126,133,o),
(126,256,cs),
(126,373,o),
(186,438,o),
(274,438,cs),
(350,438,o),
(391,398,o),
(404,354,c),
(488,354,l),
(474,451,o),
(386,516,o),
(274,516,cs),
(131,516,o),
(38,412,o),
(38,252,cs),
(38,94,o),
(133,-12,o),
(276,-12,cs)
);
},
{
closed = 1;
nodes = (
(340,298,l),
(92,298,l),
(92,224,l),
(340,224,l)
);
}
);
};
layerId = "1C9972D2-AAA2-4EE5-9F28-188B121D2056";
shapes = (
{
closed = 1;
nodes = (
(403,-12,o),
(478,65,o),
(492,158,c),
(408,158,l),
(397,107,o),
(355,66,o),
(276,66,cs),
(188,66,o),
(126,133,o),
(126,256,cs),
(126,373,o),
(186,438,o),
(274,438,cs),
(350,438,o),
(391,398,o),
(404,354,c),
(488,354,l),
(474,451,o),
(386,516,o),
(274,516,cs),
(131,516,o),
(38,412,o),
(38,252,cs),
(38,94,o),
(133,-12,o),
(276,-12,cs)
);
},
{
closed = 1;
nodes = (
(340,298,l),
(92,298,l),
(92,224,l),
(340,224,l)
);
}
);
width = 530;
}
);
unicode = 1108;
},
{
glyphname = "ereversed-cy";
kernLeft = o;
kernRight = o;
lastChange = "2025-01-08 20:31:14 +0000";
layers = (
{
anchors = (
{
name = top;
pos = (257,520);
}
);
background = {
shapes = (
{
closed = 1;
nodes = (
(397,-12,o),
(492,94,o),
(492,252,cs),
(492,412,o),
(399,516,o),
(256,516,cs),
(144,516,o),
(56,451,o),
(42,354,c),
(126,354,l),
(139,398,o),
(180,438,o),
(256,438,cs),
(344,438,o),
(404,373,o),
(404,256,cs),
(404,133,o),
(342,66,o),
(254,66,cs),
(175,66,o),
(133,107,o),
(122,158,c),
(38,158,l),
(52,65,o),
(127,-12,o),
(254,-12,cs)
);
},
{
closed = 1;
nodes = (
(438,224,l),
(438,298,l),
(190,298,l),
(190,224,l)
);
}
);
};
layerId = "1C9972D2-AAA2-4EE5-9F28-188B121D2056";
shapes = (
{
closed = 1;
nodes = (
(397,-12,o),
(492,94,o),
(492,252,cs),
(492,412,o),
(399,532,o),
(256,532,cs),
(144,532,o),
(56,457,o),
(42,360,c),
(126,360,l),
(139,404,o),
(180,454,o),
(256,454,cs),
(344,454,o),
(404,373,o),
(404,256,cs),
(404,133,o),
(342,66,o),
(254,66,cs),
(175,66,o),
(133,107,o),
(122,158,c),
(38,158,l),
(52,65,o),
(127,-12,o),
(254,-12,cs)
);
},
{
closed = 1;
nodes = (
(438,224,l),
(438,298,l),
(190,298,l),
(190,224,l)
);
}
);
width = 530;
}
);
metricLeft = o;
metricRight = o;
unicode = 1101;
},
{
glyphname = "yi-cy";
kernLeft = idieresis;
kernRight = idieresis;
lastChange = "2025-01-08 14:22:25 +0000";
layers = (
{
anchors = (
{
name = top;
pos = (202,520);
}
);
background = {
shapes = (
{
closed = 1;
nodes = (
(244,0,l),
(244,520,l),
(158,520,l),
(158,0,l)
);
},
{
pos = (18,-156);
ref = dieresis;
}
);
};
guides = (
{
name = "UC mark bottom";
pos = (0,607);
},
{
name = "UC mark top";
pos = (0,758);
},
{
name = "UC mark bottom";
pos = (0,607);
},
{
name = "UC mark top";
pos = (0,758);
}
);
layerId = "1C9972D2-AAA2-4EE5-9F28-188B121D2056";
shapes = (
{
closed = 1;
nodes = (
(244,0,l),
(244,520,l),
(158,520,l),
(158,0,l)
);
},
{
pos = (18,-23);
ref = dieresis;
}
);
width = 394;
}
);
unicode = 1111;
},
{
glyphname = "tshe-cy";
kernLeft = t;
kernRight = a;
lastChange = "2024-12-11 03:28:41 +0000";
layers = (
{
background = {
shapes = (
{
closed = 1;
nodes = (
(397,598,l),
(397,675,l),
(60,675,l),
(60,598,l)
);
},
{
pos = (106,0);
ref = h;
}
);
};
layerId = "1C9972D2-AAA2-4EE5-9F28-188B121D2056";
shapes = (
{
closed = 1;
nodes = (
(397,598,l),
(397,675,l),
(60,675,l),
(60,598,l)
);
},
{
pos = (106,0);
ref = h;
}
);
width = 654;
}
);
unicode = 1115;
},
{
glyphname = "iu-cy";
kernLeft = n;
kernRight = o;
lastChange = "2025-01-08 14:39:24 +0000";
layers = (
{
anchors = (
{
name = top;
pos = (405,520);
}
);
background = {
shapes = (
{
closed = 1;
nodes = (
(625,-12,o),
(717,98,o),
(717,254,cs),
(717,410,o),
(625,532,o),
(480,532,cs),
(334,532,o),
(242,410,o),
(242,254,cs),
(242,98,o),
(339,-12,o),
(480,-12,cs)
);
},
{
closed = 1;
nodes = (
(150,0,l),
(150,520,l),
(64,520,l),
(64,0,l)
);
},
{
closed = 1;
nodes = (
(282,224,l),
(282,302,l),
(134,302,l),
(134,224,l)
);
},
{
closed = 1;
nodes = (
(388,66,o),
(330,140,o),
(330,254,cs),
(330,366,o),
(390,452,o),
(480,452,cs),
(572,452,o),
(629,366,o),
(629,254,cs),
(629,140,o),
(574,66,o),
(480,66,cs)
);
}
);
};
layerId = "1C9972D2-AAA2-4EE5-9F28-188B121D2056";
shapes = (
{
closed = 1;
nodes = (
(625,-12,o),
(717,98,o),
(717,254,cs),
(717,410,o),
(625,532,o),
(480,532,cs),
(334,532,o),
(242,410,o),
(242,254,cs),
(242,98,o),
(339,-12,o),
(480,-12,cs)
);
},
{
closed = 1;
nodes = (
(150,0,l),
(150,520,l),
(64,520,l),
(64,0,l)
);
},
{
closed = 1;
nodes = (
(282,224,l),
(282,302,l),
(134,302,l),
(134,224,l)
);
},
{
closed = 1;
nodes = (
(388,66,o),
(330,140,o),
(330,254,cs),
(330,366,o),
(390,452,o),
(480,452,cs),
(572,452,o),
(629,366,o),
(629,254,cs),
(629,140,o),
(574,66,o),
(480,66,cs)
);
}
);
width = 755;
}
);
metricLeft = n;
metricRight = o;
unicode = 1102;
},
{
glyphname = "ia-cy";
kernLeft = a;
kernRight = u;
lastChange = "2025-01-08 14:39:32 +0000";
layers = (
{
anchors = (
{
name = top;
pos = (262,520);
}
);
background = {
shapes = (
{
closed = 1;
nodes = (
(432,0,l),
(432,520,l),
(232,520,ls),
(121,520,o),
(54,450,o),
(54,354,cs),
(54,257,o),
(121,188,o),
(232,188,cs),
(362,188,l),
(362,262,l),
(242,262,ls),
(177,262,o),
(140,299,o),
(140,354,cs),
(140,407,o),
(178,446,o),
(242,446,cs),
(390,446,l),
(346,492,l),
(346,0,l)
);
},
{
closed = 1;
nodes = (
(126,0,l),
(286,228,l),
(186,228,l),
(26,0,l)
);
}
);
};
layerId = "1C9972D2-AAA2-4EE5-9F28-188B121D2056";
shapes = (
{
closed = 1;
nodes = (
(432,0,l),
(432,520,l),
(232,520,ls),
(121,520,o),
(54,450,o),
(54,354,cs),
(54,257,o),
(121,188,o),
(232,188,cs),
(362,188,l),
(362,262,l),
(242,262,ls),
(177,262,o),
(140,299,o),
(140,354,cs),
(140,407,o),
(178,446,o),
(242,446,cs),
(390,446,l),
(346,492,l),
(346,0,l)
);
},
{
closed = 1;
nodes = (
(126,0,l),
(286,228,l),
(186,228,l),
(26,0,l)
);
}
);
width = 496;
}
);
metricRight = u;
unicode = 1103;
},
{
glyphname = "dje-cy";
kernLeft = t;
kernRight = h;
lastChange = "2024-12-11 03:28:41 +0000";
layers = (
{
background = {
shapes = (
{
closed = 1;
nodes = (
(454,-190,ls),
(545,-190,o),
(594,-137,o),
(594,-30,cs),
(594,180,l),
(508,180,l),
(508,-26,ls),
(508,-93,o),
(479,-114,o),
(440,-114,cs),
(420,-114,l),
(420,-190,l)
);
},
{
ref = "tshe-cy";
}
);
};
layerId = "1C9972D2-AAA2-4EE5-9F28-188B121D2056";
shapes = (
{
closed = 1;
nodes = (
(454,-190,ls),
(545,-190,o),
(594,-137,o),
(594,-30,cs),
(594,180,l),
(508,180,l),
(508,-26,ls),
(508,-93,o),
(479,-114,o),
(440,-114,cs),
(420,-114,l),
(420,-190,l)
);
},
{
ref = "tshe-cy";
}
);
width = 654;
}
);
unicode = 1106;
},
{
glyphname = "be-cy.ss01";
kernLeft = "be-cy";
kernRight = o;
lastChange = "2024-12-11 03:28:41 +0000";
layers = (
{
background = {
shapes = (
{
closed = 1;
nodes = (
(206,68,o),
(143,140,o),
(143,252,cs),
(143,361,o),
(208,427,o),
(303,427,cs),
(396,427,o),
(457,353,o),
(457,248,cs),
(457,138,o),
(393,68,o),
(301,68,cs)
);
},
{
closed = 1;
nodes = (
(351,596,ls),
(412,601,o),
(524,621,o),
(532,742,c),
(445,742,l),
(432,696,o),
(378,680,o),
(345,677,cs),
(293,673,ls),
(106,659,o),
(46,524,o),
(52,297,cs),
(57,99,o),
(152,-12,o),
(305,-12,cs),
(445,-12,o),
(544,95,o),
(544,248,cs),
(544,413,o),
(429,504,o),
(313,504,cs),
(239,504,o),
(179,476,o),
(142,424,c),
(139,424,l),
(152,532,o),
(194,582,o),
(305,592,cs)
);
}
);
};
layerId = "1C9972D2-AAA2-4EE5-9F28-188B121D2056";
shapes = (
{
closed = 1;
nodes = (
(206,68,o),
(143,140,o),
(143,252,cs),
(143,361,o),
(208,427,o),
(303,427,cs),
(396,427,o),
(457,353,o),
(457,248,cs),
(457,138,o),
(393,68,o),
(301,68,cs)
);
},
{
closed = 1;
nodes = (
(351,596,ls),
(412,601,o),
(524,621,o),
(532,742,c),
(445,742,l),
(432,696,o),
(378,680,o),
(345,677,cs),
(293,673,ls),
(106,659,o),
(46,524,o),
(52,297,cs),
(57,99,o),
(152,-12,o),
(305,-12,cs),
(445,-12,o),
(544,95,o),
(544,248,cs),
(544,413,o),
(429,504,o),
(313,504,cs),
(239,504,o),
(179,476,o),
(142,424,c),
(139,424,l),
(152,532,o),
(194,582,o),
(305,592,cs)
);
}
);
width = 582;
}
);
metricRight = o;
},
{
glyphname = zero;
kernLeft = zero;
kernRight = zero;
lastChange = "2024-12-11 03:28:41 +0000";
layers = (
{
background = {
shapes = (
{
closed = 1;
nodes = (
(129,712,o),
(53,525,o),
(53,352,cs),
(53,140,o),
(154,-12,o),
(320,-12,cs),
(477,-12,o),
(584,122,o),
(584,352,cs),
(584,554,o),
(497,712,o),
(318,712,cs)
);
},
{
closed = 1;
nodes = (
(189,70,o),
(143,215,o),
(143,352,cs),
(143,513,o),
(209,631,o),
(319,631,cs),
(460,631,o),
(494,463,o),
(494,352,cs),
(494,210,o),
(445,70,o),
(320,70,cs)
);
}
);
};
layerId = "1C9972D2-AAA2-4EE5-9F28-188B121D2056";
shapes = (
{
closed = 1;
nodes = (
(129,712,o),
(53,525,o),
(53,352,cs),
(53,140,o),
(154,-12,o),
(320,-12,cs),
(477,-12,o),
(584,122,o),
(584,352,cs),
(584,554,o),
(497,712,o),
(318,712,cs)
);
},
{
closed = 1;
nodes = (
(189,70,o),
(143,215,o),
(143,352,cs),
(143,513,o),
(209,631,o),
(319,631,cs),
(460,631,o),
(494,463,o),
(494,352,cs),
(494,210,o),
(445,70,o),
(320,70,cs)
);
}
);
width = 638;
}
);
unicode = 48;
},
{
glyphname = one;
kernLeft = one;
kernRight = one;
lastChange = "2024-12-11 03:28:41 +0000";
layers = (
{
background = {
shapes = (
{
closed = 1;
nodes = (
(314,0,l),
(314,700,l),
(232,700,l),
(42,569,l),
(42,475,l),
(223,596,l),
(226,596,l),
(226,0,l)
);
}
);
};
layerId = "1C9972D2-AAA2-4EE5-9F28-188B121D2056";
shapes = (
{
closed = 1;
nodes = (
(314,0,l),
(314,700,l),
(232,700,l),
(42,569,l),
(42,475,l),
(223,596,l),
(226,596,l),
(226,0,l)
);
}
);
width = 400;
}
);
metricLeft = O;
metricRight = H;
note = one;
unicode = 49;
},
{
glyphname = two;
kernLeft = two;
kernRight = two;
lastChange = "2024-12-11 03:28:41 +0000";
layers = (
{
background = {
shapes = (
{
closed = 1;
nodes = (
(48,69,l),
(48,0,l),
(529,0,l),
(529,82,l),
(170,82,l),
(170,85,l),
(401,295,ls),
(478,365,o),
(511,424,o),
(511,509,cs),
(511,631,o),
(411,712,o),
(282,712,cs),
(151,712,o),
(47,614,o),
(47,514,c),
(139,514,l),
(139,577,o),
(197,631,o),
(282,631,cs),
(367,631,o),
(419,585,o),
(419,509,cs),
(419,442,o),
(380,389,o),
(345,356,cs)
);
}
);
};
layerId = "1C9972D2-AAA2-4EE5-9F28-188B121D2056";
shapes = (
{
closed = 1;
nodes = (
(48,69,l),
(48,0,l),
(529,0,l),
(529,82,l),
(170,82,l),
(170,85,l),
(401,295,ls),
(478,365,o),
(511,424,o),
(511,509,cs),
(511,631,o),
(411,712,o),
(282,712,cs),
(151,712,o),
(47,614,o),
(47,514,c),
(139,514,l),
(139,577,o),
(197,631,o),
(282,631,cs),
(367,631,o),
(419,585,o),
(419,509,cs),
(419,442,o),
(380,389,o),
(345,356,cs)
);
}
);
width = 581;
}
);
note = two;
unicode = 50;
},
{
glyphname = three;
kernLeft = three;
kernRight = three;
lastChange = "2024-12-11 03:28:41 +0000";
layers = (
{
background = {
shapes = (
{
closed = 1;
nodes = (
(126,522,l),
(138,590,o),
(199,630,o),
(282,630,cs),
(368,630,o),
(422,584,o),
(422,516,cs),
(422,449,o),
(377,400,o),
(286,400,cs),
(196,400,l),
(196,320,l),
(292,320,ls),
(387,320,o),
(448,279,o),
(448,200,cs),
(448,121,o),
(388,70,o),
(292,70,cs),
(198,70,o),
(132,117,o),
(120,184,c),
(30,184,l),
(30,64,o),
(144,-12,o),
(292,-12,cs),
(439,-12,o),
(540,75,o),
(540,198,cs),
(540,299,o),
(466,351,o),
(416,365,c),
(416,367,l),
(468,386,o),
(514,443,o),
(514,518,cs),
(514,633,o),
(417,714,o),
(282,714,cs),
(153,714,o),
(38,643,o),
(38,522,c)
);
}
);
};
layerId = "1C9972D2-AAA2-4EE5-9F28-188B121D2056";
shapes = (
{
closed = 1;
nodes = (
(126,522,l),
(138,590,o),
(199,630,o),
(282,630,cs),
(368,630,o),
(422,584,o),
(422,516,cs),
(422,449,o),
(377,400,o),
(286,400,cs),
(196,400,l),
(196,320,l),
(292,320,ls),
(387,320,o),
(448,279,o),
(448,200,cs),
(448,121,o),
(388,70,o),
(292,70,cs),
(198,70,o),
(132,117,o),
(120,184,c),
(30,184,l),
(30,64,o),
(144,-12,o),
(292,-12,cs),
(439,-12,o),
(540,75,o),
(540,198,cs),
(540,299,o),
(466,351,o),
(416,365,c),
(416,367,l),
(468,386,o),
(514,443,o),
(514,518,cs),
(514,633,o),
(417,714,o),
(282,714,cs),
(153,714,o),
(38,643,o),
(38,522,c)
);
}
);
width = 590;
}
);
note = three;
unicode = 51;
},
{
glyphname = four;
kernLeft = four;
kernRight = four;
lastChange = "2024-12-11 03:28:41 +0000";
layers = (
{
background = {
shapes = (
{
closed = 1;
nodes = (
(467,173,l),
(559,173,l),
(559,255,l),
(467,255,l),
(467,700,l),
(325,700,l),
(40,255,l),
(40,173,l),
(381,173,l),
(381,0,l),
(467,0,l)
);
},
{
closed = 1;
nodes = (
(375,620,l),
(381,620,l),
(381,255,l),
(131,255,l)
);
}
);
};
layerId = "1C9972D2-AAA2-4EE5-9F28-188B121D2056";
shapes = (
{
closed = 1;
nodes = (
(467,173,l),
(559,173,l),
(559,255,l),
(467,255,l),
(467,700,l),
(325,700,l),
(40,255,l),
(40,173,l),
(381,173,l),
(381,0,l),
(467,0,l)
);
},
{
closed = 1;
nodes = (
(375,620,l),
(381,620,l),
(381,255,l),
(131,255,l)
);
}
);
width = 589;
}
);
note = four;
unicode = 52;
},
{
glyphname = five;
kernLeft = five;
kernRight = five;
lastChange = "2024-12-11 03:28:41 +0000";
layers = (
{
background = {
shapes = (
{
closed = 1;
nodes = (
(534,364,o),
(425,458,o),
(310,458,cs),
(254,458,o),
(198,449,o),
(143,398,c),
(141,398,l),
(166,618,l),
(492,618,l),
(492,700,l),
(99,700,l),
(57,322,l),
(160,322,l),
(192,351,o),
(224,380,o),
(288,380,cs),
(390,380,o),
(446,305,o),
(446,226,cs),
(446,157,o),
(408,70,o),
(292,70,cs),
(188,70,o),
(130,141,o),
(130,184,c),
(42,184,l),
(42,126,o),
(123,-12,o),
(294,-12,cs),
(431,-12,o),
(534,96,o),
(534,230,cs)
);
}
);
};
layerId = "1C9972D2-AAA2-4EE5-9F28-188B121D2056";
shapes = (
{
closed = 1;
nodes = (
(534,364,o),
(425,458,o),
(310,458,cs),
(254,458,o),
(198,449,o),
(143,398,c),
(141,398,l),
(166,618,l),
(492,618,l),
(492,700,l),
(99,700,l),
(57,322,l),
(160,322,l),
(192,351,o),
(224,380,o),
(288,380,cs),
(390,380,o),
(446,305,o),
(446,226,cs),
(446,157,o),
(408,70,o),
(292,70,cs),
(188,70,o),
(130,141,o),
(130,184,c),
(42,184,l),
(42,126,o),
(123,-12,o),
(294,-12,cs),
(431,-12,o),
(534,96,o),
(534,230,cs)
);
}
);
width = 576;
}
);
metricLeft = O;
metricRight = O;
note = five;
unicode = 53;
},
{
glyphname = six;
kernLeft = zero;
kernRight = zero;
lastChange = "2024-12-11 03:28:41 +0000";
layers = (
{
background = {
shapes = (
{
closed = 1;
nodes = (
(451,-12,o),
(556,90,o),
(556,228,cs),
(556,360,o),
(459,458,o),
(324,458,cs),
(234,458,o),
(160,415,o),
(129,348,c),
(128,348,l),
(128,528,o),
(195,630,o),
(312,630,cs),
(381,630,o),
(438,595,o),
(456,530,c),
(544,530,l),
(523,639,o),
(432,712,o),
(312,712,cs),
(143,712,o),
(42,574,o),
(42,338,cs),
(42,262,o),
(53,200,o),
(76,146,cs),
(119,46,o),
(202,-12,o),
(308,-12,cs)
);
},
{
closed = 1;
nodes = (
(217,70,o),
(148,137,o),
(148,226,cs),
(148,316,o),
(218,378,o),
(310,378,cs),
(403,378,o),
(466,316,o),
(466,224,cs),
(466,136,o),
(396,70,o),
(306,70,cs)
);
}
);
};
layerId = "1C9972D2-AAA2-4EE5-9F28-188B121D2056";
shapes = (
{
closed = 1;
nodes = (
(451,-12,o),
(556,90,o),
(556,228,cs),
(556,360,o),
(459,458,o),
(324,458,cs),
(234,458,o),
(160,415,o),
(129,348,c),
(128,348,l),
(128,528,o),
(195,630,o),
(312,630,cs),
(381,630,o),
(438,595,o),
(456,530,c),
(544,530,l),
(523,639,o),
(432,712,o),
(312,712,cs),
(143,712,o),
(42,574,o),
(42,338,cs),
(42,262,o),
(53,200,o),
(76,146,cs),
(119,46,o),
(202,-12,o),
(308,-12,cs)
);
},
{
closed = 1;
nodes = (
(217,70,o),
(148,137,o),
(148,226,cs),
(148,316,o),
(218,378,o),
(310,378,cs),
(403,378,o),
(466,316,o),
(466,224,cs),
(466,136,o),
(396,70,o),
(306,70,cs)
);
}
);
width = 598;
}
);
metricLeft = O;
metricRight = O;
note = six;
unicode = 54;
},
{
glyphname = seven;
kernLeft = seven;
kernRight = seven;
lastChange = "2024-12-11 03:28:41 +0000";
layers = (
{
background = {
shapes = (
{
closed = 1;
nodes = (
(378,618,l),
(378,615,l),
(98,0,l),
(194,0,l),
(472,628,l),
(472,700,l),
(34,700,l),
(34,618,l)
);
}
);
};
layerId = "1C9972D2-AAA2-4EE5-9F28-188B121D2056";
shapes = (
{
closed = 1;
nodes = (
(378,618,l),
(378,615,l),
(98,0,l),
(194,0,l),
(472,628,l),
(472,700,l),
(34,700,l),
(34,618,l)
);
}
);
width = 512;
}
);
note = seven;
unicode = 55;
},
{
glyphname = eight;
kernLeft = eight;
kernRight = eight;
lastChange = "2024-12-11 03:28:41 +0000";
layers = (
{
background = {
shapes = (
{
closed = 1;
nodes = (
(456,-12,o),
(562,68,o),
(562,190,cs),
(562,273,o),
(515,349,o),
(424,370,c),
(424,372,l),
(500,398,o),
(534,456,o),
(534,530,cs),
(534,636,o),
(438,712,o),
(308,712,cs),
(176,712,o),
(80,635,o),
(80,530,cs),
(80,456,o),
(106,397,o),
(182,372,c),
(182,370,l),
(91,348,o),
(52,274,o),
(52,190,cs),
(52,69,o),
(158,-12,o),
(308,-12,cs)
);
},
{
closed = 1;
nodes = (
(210,72,o),
(140,118,o),
(140,194,cs),
(140,270,o),
(210,326,o),
(308,326,cs),
(404,326,o),
(474,271,o),
(474,194,cs),
(474,118,o),
(404,72,o),
(308,72,cs)
);
},
{
closed = 1;
nodes = (
(226,407,o),
(168,452,o),
(168,520,cs),
(168,590,o),
(226,631,o),
(308,631,cs),
(388,631,o),
(446,590,o),
(446,520,cs),
(446,452,o),
(388,407,o),
(308,407,cs)
);
}
);
};
layerId = "1C9972D2-AAA2-4EE5-9F28-188B121D2056";
shapes = (
{
closed = 1;
nodes = (
(456,-12,o),
(562,68,o),
(562,190,cs),
(562,273,o),
(515,349,o),
(424,370,c),
(424,372,l),
(500,398,o),
(534,456,o),
(534,530,cs),
(534,636,o),
(438,712,o),
(308,712,cs),
(176,712,o),
(80,635,o),
(80,530,cs),
(80,456,o),
(106,397,o),
(182,372,c),
(182,370,l),
(91,348,o),
(52,274,o),
(52,190,cs),
(52,69,o),
(158,-12,o),
(308,-12,cs)
);
},
{
closed = 1;
nodes = (
(210,72,o),
(140,118,o),
(140,194,cs),
(140,270,o),
(210,326,o),
(308,326,cs),
(404,326,o),
(474,271,o),
(474,194,cs),
(474,118,o),
(404,72,o),
(308,72,cs)
);
},
{
closed = 1;
nodes = (
(226,407,o),
(168,452,o),
(168,520,cs),
(168,590,o),
(226,631,o),
(308,631,cs),
(388,631,o),
(446,590,o),
(446,520,cs),
(446,452,o),
(388,407,o),
(308,407,cs)
);
}
);
width = 614;
}
);
note = eight;
unicode = 56;
},
{
glyphname = zero.ss01;
kernLeft = zero;
kernRight = zero;
lastChange = "2024-12-11 03:28:41 +0000";
layers = (
{
background = {
shapes = (
{
closed = 1;
nodes = (
(128,206,l),
(128,100,l),
(504,483,l),
(504,596,l)
);
},
{
ref = zero;
}
);
};
layerId = "1C9972D2-AAA2-4EE5-9F28-188B121D2056";
shapes = (
{
closed = 1;
nodes = (
(128,206,l),
(128,100,l),
(504,483,l),
(504,596,l)
);
},
{
ref = zero;
}
);
width = 615;
}
);
},
{
glyphname = one.ss01;
kernLeft = one;
lastChange = "2025-01-07 21:12:46 +0000";
layers = (
{
background = {
shapes = (
{
alignment = -1;
pos = (-10,0);
ref = one;
},
{
closed = 1;
nodes = (
(30,0,l),
(465,0,l),
(465,82,l),
(30,82,l)
);
}
);
};
layerId = "1C9972D2-AAA2-4EE5-9F28-188B121D2056";
shapes = (
{
alignment = -1;
pos = (-10,0);
ref = one;
},
{
closed = 1;
nodes = (
(30,0,l),
(465,0,l),
(465,82,l),
(30,82,l)
);
}
);
width = 495;
}
);
},
{
glyphname = four.ss01;
kernLeft = four;
kernRight = four;
lastChange = "2024-12-11 03:28:41 +0000";
layers = (
{
background = {
shapes = (
{
closed = 1;
nodes = (
(446,700,l),
(343,700,l),
(40,217,l),
(40,135,l),
(399,135,l),
(399,0,l),
(485,0,l),
(485,135,l),
(577,135,l),
(577,217,l),
(485,217,l),
(485,460,l),
(399,460,l),
(399,217,l),
(131,217,l)
);
}
);
};
layerId = "1C9972D2-AAA2-4EE5-9F28-188B121D2056";
shapes = (
{
closed = 1;
nodes = (
(446,700,l),
(343,700,l),
(40,217,l),
(40,135,l),
(399,135,l),
(399,0,l),
(485,0,l),
(485,135,l),
(577,135,l),
(577,217,l),
(485,217,l),
(485,460,l),
(399,460,l),
(399,217,l),
(131,217,l)
);
}
);
width = 607;
}
);
},
{
glyphname = period;
kernLeft = comma;
kernRight = period;
lastChange = "2024-12-11 03:28:41 +0000";
layers = (
{
background = {
shapes = (
{
closed = 1;
nodes = (
(58,0,l),
(172,0,l),
(172,114,l),
(58,114,l)
);
}
);
};
guides = (
{
angle = 180;
pos = (-26,104);
}
);
layerId = "1C9972D2-AAA2-4EE5-9F28-188B121D2056";
shapes = (
{
closed = 1;
nodes = (
(58,0,l),
(172,0,l),
(172,114,l),
(58,114,l)
);
}
);
width = 230;
}
);
note = period;
unicode = 46;
},
{
glyphname = comma;
kernLeft = comma;
kernRight = comma;
lastChange = "2024-12-11 03:28:41 +0000";
layers = (
{
background = {
shapes = (
{
closed = 1;
nodes = (
(58,0,l),
(116,0,l),
(44,-120,l),
(108,-120,l),
(172,-12,l),
(172,114,l),
(58,114,l)
);
}
);
};
layerId = "1C9972D2-AAA2-4EE5-9F28-188B121D2056";
shapes = (
{
closed = 1;
nodes = (
(58,0,l),
(116,0,l),
(44,-120,l),
(108,-120,l),
(172,-12,l),
(172,114,l),
(58,114,l)
);
}
);
width = 230;
}
);
note = comma;
unicode = 44;
},
{
glyphname = exclam;
kernLeft = exclam;
lastChange = "2024-12-11 03:28:41 +0000";
layers = (
{
background = {
shapes = (
{
closed = 1;
nodes = (
(194,206,l),
(194,710,l),
(106,710,l),
(106,206,l)
);
},
{
pos = (35,0);
ref = period;
}
);
};
layerId = "1C9972D2-AAA2-4EE5-9F28-188B121D2056";
shapes = (
{
closed = 1;
nodes = (
(194,206,l),
(194,710,l),
(106,710,l),
(106,206,l)
);
},
{
pos = (35,0);
ref = period;
}
);
width = 325;
}
);
note = exclam;
unicode = 33;
},
{
glyphname = question;
kernLeft = question;
kernRight = question;
lastChange = "2024-12-11 03:28:41 +0000";
layers = (
{
background = {
shapes = (
{
pos = (130,0);
ref = period;
},
{
closed = 1;
nodes = (
(290,253,o),
(305,287,o),
(360,334,c),
(426,402,o),
(456,468,o),
(456,532,cs),
(456,640,o),
(377,714,o),
(254,714,cs),
(123,714,o),
(46,630,o),
(46,502,c),
(134,502,l),
(134,586,o),
(183,632,o),
(254,632,cs),
(323,632,o),
(368,595,o),
(368,532,cs),
(368,483,o),
(347,431,o),
(298,390,cs),
(225,329,o),
(202,279,o),
(202,192,c),
(290,192,l)
);
}
);
};
layerId = "1C9972D2-AAA2-4EE5-9F28-188B121D2056";
shapes = (
{
pos = (130,0);
ref = period;
},
{
closed = 1;
nodes = (
(290,253,o),
(305,287,o),
(360,334,c),
(426,402,o),
(456,468,o),
(456,532,cs),
(456,640,o),
(377,714,o),
(254,714,cs),
(123,714,o),
(46,630,o),
(46,502,c),
(134,502,l),
(134,586,o),
(183,632,o),
(254,632,cs),
(323,632,o),
(368,595,o),
(368,532,cs),
(368,483,o),
(347,431,o),
(298,390,cs),
(225,329,o),
(202,279,o),
(202,192,c),
(290,192,l)
);
}
);
width = 526;
}
);
note = question;
unicode = 63;
},
{
glyphname = bullet;
kernLeft = bullet;
lastChange = "2024-12-11 03:28:41 +0000";
layers = (
{
background = {
shapes = (
{
closed = 1;
nodes = (
(80,198,l),
(294,198,l),
(294,412,l),
(80,412,l)
);
}
);
};
layerId = "1C9972D2-AAA2-4EE5-9F28-188B121D2056";
shapes = (
{
closed = 1;
nodes = (
(80,198,l),
(294,198,l),
(294,412,l),
(80,412,l)
);
}
);
width = 374;
}
);
unicode = 8226;
},
{
glyphname = asterisk;
kernLeft = asterisk;
lastChange = "2024-12-11 03:28:41 +0000";
layers = (
{
background = {
shapes = (
{
closed = 1;
nodes = (
(233,609,l),
(351,657,l),
(374,590,l),
(249,562,l),
(332,452,l),
(277,411,l),
(202,529,l),
(132,411,l),
(76,452,l),
(158,562,l),
(35,590,l),
(56,658,l),
(176,609,l),
(176,743,l),
(233,743,l)
);
}
);
};
layerId = "1C9972D2-AAA2-4EE5-9F28-188B121D2056";
shapes = (
{
closed = 1;
nodes = (
(233,609,l),
(351,657,l),
(374,590,l),
(249,562,l),
(332,452,l),
(277,411,l),
(202,529,l),
(132,411,l),
(76,452,l),
(158,562,l),
(35,590,l),
(56,658,l),
(176,609,l),
(176,743,l),
(233,743,l)
);
}
);
width = 409;
}
);
note = asterisk;
unicode = 42;
},
{
glyphname = numbersign;
kernLeft = numbersign;
kernRight = numbersign;
lastChange = "2024-12-11 03:28:41 +0000";
layers = (
{
background = {
shapes = (
{
closed = 1;
nodes = (
(372,708,l),
(286,708,l),
(234,516,l),
(74,516,l),
(74,434,l),
(211,434,l),
(170,275,l),
(10,275,l),
(10,193,l),
(146,193,l),
(96,1,l),
(182,1,l),
(233,193,l),
(391,193,l),
(341,1,l),
(427,1,l),
(478,193,l),
(640,193,l),
(640,275,l),
(501,275,l),
(542,434,l),
(704,434,l),
(704,516,l),
(566,516,l),
(617,708,l),
(531,708,l),
(479,516,l),
(321,516,l)
);
},
{
closed = 1;
nodes = (
(256,275,l),
(297,434,l),
(456,434,l),
(415,275,l)
);
}
);
};
layerId = "1C9972D2-AAA2-4EE5-9F28-188B121D2056";
shapes = (
{
closed = 1;
nodes = (
(372,708,l),
(286,708,l),
(234,516,l),
(74,516,l),
(74,434,l),
(211,434,l),
(170,275,l),
(10,275,l),
(10,193,l),
(146,193,l),
(96,1,l),
(182,1,l),
(233,193,l),
(391,193,l),
(341,1,l),
(427,1,l),
(478,193,l),
(640,193,l),
(640,275,l),
(501,275,l),
(542,434,l),
(704,434,l),
(704,516,l),
(566,516,l),
(617,708,l),
(531,708,l),
(479,516,l),
(321,516,l)
);
},
{
closed = 1;
nodes = (
(256,275,l),
(297,434,l),
(456,434,l),
(415,275,l)
);
}
);
width = 714;
}
);
note = numbersign;
unicode = 35;
},
{
glyphname = slash;
kernLeft = slash;
kernRight = slash;
lastChange = "2024-12-11 03:28:41 +0000";
layers = (
{
background = {
shapes = (
{
closed = 1;
nodes = (
(268,714,l),
(6,-68,l),
(94,-68,l),
(356,714,l)
);
}
);
};
guides = (
{
pos = (-160,713);
},
{
pos = (-199,-127);
}
);
layerId = "1C9972D2-AAA2-4EE5-9F28-188B121D2056";
shapes = (
{
closed = 1;
nodes = (
(268,714,l),
(6,-68,l),
(94,-68,l),
(356,714,l)
);
}
);
width = 359;
}
);
note = slash;
unicode = 47;
},
{
glyphname = backslash;
kernLeft = backslash;
kernRight = backslash;
lastChange = "2024-12-11 03:28:41 +0000";
layers = (
{
background = {
shapes = (
{
closed = 1;
nodes = (
(266,-68,l),
(354,-68,l),
(92,714,l),
(4,714,l)
);
}
);
};
guides = (
{
pos = (272,714);
},
{
pos = (232,-126);
}
);
layerId = "1C9972D2-AAA2-4EE5-9F28-188B121D2056";
shapes = (
{
closed = 1;
nodes = (
(266,-68,l),
(354,-68,l),
(92,714,l),
(4,714,l)
);
}
);
width = 360;
}
);
unicode = 92;
},
{
glyphname = hyphen;
kernLeft = hyphen;
kernRight = hyphen;
lastChange = "2025-01-07 20:26:29 +0000";
layers = (
{
background = {
shapes = (
{
closed = 1;
nodes = (
(329,240,l),
(329,316,l),
(70,316,l),
(70,240,l)
);
}
);
};
layerId = "1C9972D2-AAA2-4EE5-9F28-188B121D2056";
shapes = (
{
closed = 1;
nodes = (
(329,240,l),
(329,316,l),
(70,316,l),
(70,240,l)
);
}
);
width = 399;
}
);
note = hyphen;
unicode = 45;
},
{
glyphname = endash;
kernLeft = hyphen;
kernRight = hyphen;
lastChange = "2024-12-11 03:28:41 +0000";
layers = (
{
background = {
shapes = (
{
closed = 1;
nodes = (
(480,240,l),
(480,316,l),
(40,316,l),
(40,240,l)
);
}
);
};
layerId = "1C9972D2-AAA2-4EE5-9F28-188B121D2056";
shapes = (
{
closed = 1;
nodes = (
(480,240,l),
(480,316,l),
(40,316,l),
(40,240,l)
);
}
);
width = 520;
}
);
unicode = 8211;
},
{
glyphname = emdash;
kernLeft = hyphen;
kernRight = hyphen;
lastChange = "2024-12-11 03:28:41 +0000";
layers = (
{
background = {
shapes = (
{
closed = 1;
nodes = (
(820,238,l),
(820,320,l),
(40,320,l),
(40,238,l)
);
}
);
};
layerId = "1C9972D2-AAA2-4EE5-9F28-188B121D2056";
shapes = (
{
closed = 1;
nodes = (
(820,238,l),
(820,320,l),
(40,320,l),
(40,238,l)
);
}
);
width = 860;
}
);
unicode = 8212;
},
{
glyphname = parenleft;
kernLeft = parenleft;
kernRight = parenleft;
lastChange = "2024-12-11 03:28:41 +0000";
layers = (
{
background = {
shapes = (
{
closed = 1;
nodes = (
(244,712,l),
(197,659,o),
(164,595,o),
(144,532,cs),
(118,457,o),
(104,376,o),
(104,292,cs),
(104,214,o),
(117,127,o),
(144,54,c),
(164,-12,o),
(199,-76,o),
(244,-128,c),
(336,-128,l),
(307,-88,o),
(256,-10,o),
(238,46,c),
(202,131,o),
(190,200,o),
(190,292,cs),
(190,384,o),
(202,453,o),
(238,538,c),
(257,596,o),
(308,673,o),
(336,712,c)
);
}
);
};
guides = (
{
pos = (-2,714);
},
{
pos = (-40,-126);
},
{
pos = (-12,746);
}
);
layerId = "1C9972D2-AAA2-4EE5-9F28-188B121D2056";
shapes = (
{
closed = 1;
nodes = (
(244,712,l),
(197,659,o),
(164,595,o),
(144,532,cs),
(118,457,o),
(104,376,o),
(104,292,cs),
(104,214,o),
(117,127,o),
(144,54,c),
(164,-12,o),
(199,-76,o),
(244,-128,c),
(336,-128,l),
(307,-88,o),
(256,-10,o),
(238,46,c),
(202,131,o),
(190,200,o),
(190,292,cs),
(190,384,o),
(202,453,o),
(238,538,c),
(257,596,o),
(308,673,o),
(336,712,c)
);
}
);
width = 384;
}
);
note = parenleft;
unicode = 40;
},
{
glyphname = braceleft;
kernLeft = braceleft;
kernRight = braceleft;
lastChange = "2024-12-11 03:28:41 +0000";
layers = (
{
background = {
shapes = (
{
closed = 1;
nodes = (
(386,-144,l),
(290,-144,ls),
(198,-144,o),
(162,-89,o),
(162,-6,cs),
(162,190,ls),
(162,235,o),
(123,264,o),
(64,264,c),
(64,340,l),
(118,340,o),
(148,367,o),
(148,408,cs),
(148,604,ls),
(148,688,o),
(199,744,o),
(296,744,cs),
(386,744,l),
(386,668,l),
(294,668,ls),
(247,668,o),
(230,642,o),
(230,598,cs),
(230,418,ls),
(230,352,o),
(199,286,o),
(130,286,c),
(130,316,l),
(197,316,o),
(244,249,o),
(244,186,cs),
(244,4,ls),
(244,-41,o),
(248,-66,o),
(294,-66,cs),
(386,-66,l)
);
}
);
};
guides = (
{
pos = (-42,746);
},
{
pos = (-80,-144);
}
);
layerId = "1C9972D2-AAA2-4EE5-9F28-188B121D2056";
shapes = (
{
closed = 1;
nodes = (
(386,-144,l),
(290,-144,ls),
(198,-144,o),
(162,-89,o),
(162,-6,cs),
(162,190,ls),
(162,235,o),
(123,264,o),
(64,264,c),
(64,340,l),
(118,340,o),
(148,367,o),
(148,408,cs),
(148,604,ls),
(148,688,o),
(199,744,o),
(296,744,cs),
(386,744,l),
(386,668,l),
(294,668,ls),
(247,668,o),
(230,642,o),
(230,598,cs),
(230,418,ls),
(230,352,o),
(199,286,o),
(130,286,c),
(130,316,l),
(197,316,o),
(244,249,o),
(244,186,cs),
(244,4,ls),
(244,-41,o),
(248,-66,o),
(294,-66,cs),
(386,-66,l)
);
}
);
width = 406;
}
);
unicode = 123;
},
{
glyphname = braceright;
kernLeft = parenright;
kernRight = parenright;
lastChange = "2024-12-11 03:28:41 +0000";
layers = (
{
background = {
shapes = (
{
closed = 1;
nodes = (
(112,-66,ls),
(156,-66,o),
(176,-41,o),
(176,4,cs),
(176,186,ls),
(176,249,o),
(208,316,o),
(276,316,c),
(276,286,l),
(206,286,o),
(178,352,o),
(178,418,cs),
(178,598,ls),
(178,642,o),
(157,668,o),
(112,668,cs),
(20,668,l),
(20,744,l),
(110,744,ls),
(206,744,o),
(260,688,o),
(260,604,cs),
(260,408,ls),
(260,367,o),
(286,340,o),
(342,340,c),
(342,264,l),
(282,264,o),
(258,235,o),
(258,190,cs),
(258,-6,ls),
(258,-89,o),
(207,-144,o),
(116,-144,cs),
(20,-144,l),
(20,-66,l)
);
}
);
};
guides = (
{
pos = (-16,714);
},
{
pos = (-54,-126);
},
{
angle = 180;
pos = (38,634);
},
{
angle = 180;
pos = (38,-46);
}
);
layerId = "1C9972D2-AAA2-4EE5-9F28-188B121D2056";
shapes = (
{
closed = 1;
nodes = (
(112,-66,ls),
(156,-66,o),
(176,-41,o),
(176,4,cs),
(176,186,ls),
(176,249,o),
(208,316,o),
(276,316,c),
(276,286,l),
(206,286,o),
(178,352,o),
(178,418,cs),
(178,598,ls),
(178,642,o),
(157,668,o),
(112,668,cs),
(20,668,l),
(20,744,l),
(110,744,ls),
(206,744,o),
(260,688,o),
(260,604,cs),
(260,408,ls),
(260,367,o),
(286,340,o),
(342,340,c),
(342,264,l),
(282,264,o),
(258,235,o),
(258,190,cs),
(258,-6,ls),
(258,-89,o),
(207,-144,o),
(116,-144,cs),
(20,-144,l),
(20,-66,l)
);
}
);
width = 406;
}
);
unicode = 125;
},
{
glyphname = bracketleft;
kernLeft = parenleft;
kernRight = parenleft;
lastChange = "2024-12-11 03:28:41 +0000";
layers = (
{
background = {
shapes = (
{
closed = 1;
nodes = (
(120,-144,l),
(120,746,l),
(334,746,l),
(334,670,l),
(202,670,l),
(202,-68,l),
(334,-68,l),
(334,-144,l)
);
}
);
};
guides = (
{
pos = (-20,746);
},
{
pos = (-60,-144);
},
{
angle = 180;
pos = (32,634);
},
{
angle = 180;
pos = (32,-46);
}
);
layerId = "1C9972D2-AAA2-4EE5-9F28-188B121D2056";
shapes = (
{
closed = 1;
nodes = (
(120,-144,l),
(120,746,l),
(334,746,l),
(334,670,l),
(202,670,l),
(202,-68,l),
(334,-68,l),
(334,-144,l)
);
}
);
width = 374;
}
);
unicode = 91;
},
{
glyphname = bracketright;
kernLeft = parenright;
kernRight = parenright;
lastChange = "2024-12-11 03:28:41 +0000";
layers = (
{
background = {
shapes = (
{
closed = 1;
nodes = (
(40,-68,l),
(172,-68,l),
(172,670,l),
(40,670,l),
(40,746,l),
(254,746,l),
(254,-144,l),
(40,-144,l)
);
}
);
};
guides = (
{
pos = (-124,714);
},
{
pos = (-162,-126);
}
);
layerId = "1C9972D2-AAA2-4EE5-9F28-188B121D2056";
shapes = (
{
closed = 1;
nodes = (
(40,-68,l),
(172,-68,l),
(172,670,l),
(40,670,l),
(40,746,l),
(254,746,l),
(254,-144,l),
(40,-144,l)
);
}
);
width = 374;
}
);
unicode = 93;
},
{
glyphname = guilsinglleft;
kernLeft = less;
kernRight = less;
lastChange = "2024-12-11 03:28:41 +0000";
layers = (
{
background = {
shapes = (
{
closed = 1;
nodes = (
(118,262,l),
(246,84,l),
(154,84,l),
(46,226,l),
(46,304,l),
(154,442,l),
(248,442,l)
);
}
);
};
layerId = "1C9972D2-AAA2-4EE5-9F28-188B121D2056";
shapes = (
{
closed = 1;
nodes = (
(118,262,l),
(246,84,l),
(154,84,l),
(46,226,l),
(46,304,l),
(154,442,l),
(248,442,l)
);
}
);
width = 300;
}
);
unicode = 8249;
},
{
glyphname = quotesingle;
kernLeft = quotesingle;
kernRight = quotesingle;
lastChange = "2024-12-11 03:28:41 +0000";
layers = (
{
background = {
shapes = (
{
closed = 1;
nodes = (
(60,520,l),
(142,520,l),
(142,713,l),
(60,713,l)
);
}
);
};
layerId = "1C9972D2-AAA2-4EE5-9F28-188B121D2056";
shapes = (
{
closed = 1;
nodes = (
(60,520,l),
(142,520,l),
(142,713,l),
(60,713,l)
);
}
);
width = 203;
}
);
note = quotesingle;
unicode = 39;
},
{
glyphname = at;
kernLeft = at;
kernRight = at;
lastChange = "2024-12-11 03:28:41 +0000";
layers = (
{
background = {
shapes = (
{
closed = 1;
nodes = (
(64,37,o),
(248,-69,o),
(429,-96,cs),
(477,-103,o),
(552,-100,o),
(626,-72,c),
(626,-8,l),
(567,-34,o),
(503,-38,o),
(437,-28,cs),
(258,-2,o),
(138,88,o),
(138,296,cs),
(138,503,o),
(260,646,o),
(460,646,cs),
(635,646,o),
(776,535,o),
(776,370,cs),
(776,234,o),
(760,162,o),
(686,162,cs),
(632,162,o),
(628,197,o),
(628,238,cs),
(628,496,l),
(556,496,l),
(556,441,l),
(554,441,l),
(529,481,o),
(496,506,o),
(443,506,cs),
(346,506,o),
(264,429,o),
(264,306,cs),
(264,189,o),
(332,100,o),
(422,100,cs),
(464,100,o),
(525,111,o),
(570,185,c),
(572,185,l),
(581,126,o),
(637,94,o),
(696,94,cs),
(830,94,o),
(850,253,o),
(850,370,cs),
(850,455,o),
(797,562,o),
(728,618,cs),
(659,674,o),
(570,712,o),
(470,712,cs),
(211,712,o),
(64,529,o),
(64,290,cs)
);
},
{
closed = 1;
nodes = (
(342,399,o),
(399,442,o),
(448,442,cs),
(494,442,o),
(556,401,o),
(556,308,cs),
(556,219,o),
(492,166,o),
(438,166,cs),
(384,166,o),
(342,218,o),
(342,306,cs)
);
}
);
};
layerId = "1C9972D2-AAA2-4EE5-9F28-188B121D2056";
shapes = (
{
closed = 1;
nodes = (
(64,37,o),
(248,-69,o),
(429,-96,cs),
(477,-103,o),
(552,-100,o),
(626,-72,c),
(626,-8,l),
(567,-34,o),
(503,-38,o),
(437,-28,cs),
(258,-2,o),
(138,88,o),
(138,296,cs),
(138,503,o),
(260,646,o),
(460,646,cs),
(635,646,o),
(776,535,o),
(776,370,cs),
(776,234,o),
(760,162,o),
(686,162,cs),
(632,162,o),
(628,197,o),
(628,238,cs),
(628,496,l),
(556,496,l),
(556,441,l),
(554,441,l),
(529,481,o),
(496,506,o),
(443,506,cs),
(346,506,o),
(264,429,o),
(264,306,cs),
(264,189,o),
(332,100,o),
(422,100,cs),
(464,100,o),
(525,111,o),
(570,185,c),
(572,185,l),
(581,126,o),
(637,94,o),
(696,94,cs),
(830,94,o),
(850,253,o),
(850,370,cs),
(850,455,o),
(797,562,o),
(728,618,cs),
(659,674,o),
(570,712,o),
(470,712,cs),
(211,712,o),
(64,529,o),
(64,290,cs)
);
},
{
closed = 1;
nodes = (
(342,399,o),
(399,442,o),
(448,442,cs),
(494,442,o),
(556,401,o),
(556,308,cs),
(556,219,o),
(492,166,o),
(438,166,cs),
(384,166,o),
(342,218,o),
(342,306,cs)
);
}
);
width = 916;
}
);
note = at;
unicode = 64;
},
{
glyphname = ampersand;
lastChange = "2024-12-11 03:28:41 +0000";
layers = (
{
background = {
shapes = (
{
closed = 1;
nodes = (
(568,0,l),
(678,0,l),
(554,134,l),
(658,255,l),
(658,370,l),
(502,184,l),
(344,372,l),
(344,374,l),
(450,432,o),
(494,484,o),
(494,555,cs),
(494,646,o),
(420,712,o),
(316,712,cs),
(216,712,o),
(140,646,o),
(140,556,cs),
(140,508,o),
(165,462,o),
(226,396,c),
(226,394,l),
(200,378,l),
(108,331,o),
(64,267,o),
(64,185,cs),
(64,70,o),
(160,-12,o),
(298,-12,cs),
(381,-12,o),
(443,23,o),
(504,76,c)
);
},
{
closed = 1;
nodes = (
(272,342,l),
(452,130,l),
(415,91,o),
(380,60,o),
(306,60,cs),
(212,60,o),
(148,109,o),
(148,191,cs),
(148,246,o),
(176,283,o),
(247,328,cs)
);
},
{
closed = 1;
nodes = (
(244,479,o),
(222,515,o),
(222,552,cs),
(222,606,o),
(263,644,o),
(316,644,cs),
(370,644,o),
(410,607,o),
(410,553,cs),
(410,506,o),
(382,467,o),
(298,426,c)
);
}
);
};
layerId = "1C9972D2-AAA2-4EE5-9F28-188B121D2056";
shapes = (
{
closed = 1;
nodes = (
(568,0,l),
(678,0,l),
(554,134,l),
(658,255,l),
(658,370,l),
(502,184,l),
(344,372,l),
(344,374,l),
(450,432,o),
(494,484,o),
(494,555,cs),
(494,646,o),
(420,712,o),
(316,712,cs),
(216,712,o),
(140,646,o),
(140,556,cs),
(140,508,o),
(165,462,o),
(226,396,c),
(226,394,l),
(200,378,l),
(108,331,o),
(64,267,o),
(64,185,cs),
(64,70,o),
(160,-12,o),
(298,-12,cs),
(381,-12,o),
(443,23,o),
(504,76,c)
);
},
{
closed = 1;
nodes = (
(272,342,l),
(452,130,l),
(415,91,o),
(380,60,o),
(306,60,cs),
(212,60,o),
(148,109,o),
(148,191,cs),
(148,246,o),
(176,283,o),
(247,328,cs)
);
},
{
closed = 1;
nodes = (
(244,479,o),
(222,515,o),
(222,552,cs),
(222,606,o),
(263,644,o),
(316,644,cs),
(370,644,o),
(410,607,o),
(410,553,cs),
(410,506,o),
(382,467,o),
(298,426,c)
);
}
);
width = 742;
}
);
note = ampersand;
unicode = 38;
},
{
glyphname = paragraph;
lastChange = "2024-12-11 03:28:41 +0000";
layers = (
{
background = {
shapes = (
{
closed = 1;
nodes = (
(271,700,l),
(182,700,ls),
(67,700,o),
(-3,624,o),
(-3,521,cs),
(-3,418,o),
(69,342,o),
(184,342,c),
(184,-132,l),
(271,-132,l)
);
},
{
closed = 1;
nodes = (
(342,-133,l),
(430,-133,l),
(430,700,l),
(342,700,l)
);
}
);
};
layerId = "1C9972D2-AAA2-4EE5-9F28-188B121D2056";
shapes = (
{
closed = 1;
nodes = (
(271,700,l),
(182,700,ls),
(67,700,o),
(-3,624,o),
(-3,521,cs),
(-3,418,o),
(69,342,o),
(184,342,c),
(184,-132,l),
(271,-132,l)
);
},
{
closed = 1;
nodes = (
(342,-133,l),
(430,-133,l),
(430,700,l),
(342,700,l)
);
}
);
width = 562;
}
);
note = paragraph;
unicode = 182;
},
{
glyphname = section;
lastChange = "2024-12-11 03:28:41 +0000";
layers = (
{
background = {
shapes = (
{
closed = 1;
nodes = (
(40,215,o),
(101,163,o),
(183,147,cs),
(278,128,ls),
(331,117,o),
(359,92,o),
(359,47,cs),
(359,-4,o),
(315,-39,o),
(252,-39,cs),
(187,-39,o),
(148,-11,o),
(136,43,c),
(50,43,l),
(65,-61,o),
(141,-115,o),
(250,-115,cs),
(363,-115,o),
(445,-44,o),
(445,54,cs),
(445,103,o),
(418,147,o),
(381,175,c),
(381,177,l),
(427,201,o),
(471,237,o),
(471,300,cs),
(471,380,o),
(412,439,o),
(325,458,cs),
(237,477,ls),
(190,487,o),
(154,509,o),
(154,554,cs),
(154,604,o),
(187,636,o),
(249,636,cs),
(305,636,o),
(349,610,o),
(362,564,c),
(447,564,l),
(434,654,o),
(353,712,o),
(250,712,cs),
(138,712,o),
(68,641,o),
(68,548,cs),
(68,483,o),
(105,454,o),
(143,429,c),
(143,426,l),
(94,403,o),
(40,364,o),
(40,298,cs)
);
},
{
closed = 1;
nodes = (
(209,224,ls),
(157,234,o),
(126,272,o),
(126,314,cs),
(126,358,o),
(161,386,o),
(202,403,c),
(297,383,ls),
(350,372,o),
(385,331,o),
(385,287,cs),
(385,246,o),
(355,220,o),
(320,202,c)
);
}
);
};
layerId = "1C9972D2-AAA2-4EE5-9F28-188B121D2056";
shapes = (
{
closed = 1;
nodes = (
(40,215,o),
(101,163,o),
(183,147,cs),
(278,128,ls),
(331,117,o),
(359,92,o),
(359,47,cs),
(359,-4,o),
(315,-39,o),
(252,-39,cs),
(187,-39,o),
(148,-11,o),
(136,43,c),
(50,43,l),
(65,-61,o),
(141,-115,o),
(250,-115,cs),
(363,-115,o),
(445,-44,o),
(445,54,cs),
(445,103,o),
(418,147,o),
(381,175,c),
(381,177,l),
(427,201,o),
(471,237,o),
(471,300,cs),
(471,380,o),
(412,439,o),
(325,458,cs),
(237,477,ls),
(190,487,o),
(154,509,o),
(154,554,cs),
(154,604,o),
(187,636,o),
(249,636,cs),
(305,636,o),
(349,610,o),
(362,564,c),
(447,564,l),
(434,654,o),
(353,712,o),
(250,712,cs),
(138,712,o),
(68,641,o),
(68,548,cs),
(68,483,o),
(105,454,o),
(143,429,c),
(143,426,l),
(94,403,o),
(40,364,o),
(40,298,cs)
);
},
{
closed = 1;
nodes = (
(209,224,ls),
(157,234,o),
(126,272,o),
(126,314,cs),
(126,358,o),
(161,386,o),
(202,403,c),
(297,383,ls),
(350,372,o),
(385,331,o),
(385,287,cs),
(385,246,o),
(355,220,o),
(320,202,c)
);
}
);
width = 511;
}
);
unicode = 167;
},
{
glyphname = copyright;
lastChange = "2024-12-11 03:28:41 +0000";
layers = (
{
background = {
shapes = (
{
closed = 1;
nodes = (
(668,-94,o),
(836,79,o),
(836,310,cs),
(836,538,o),
(668,712,o),
(444,712,cs),
(216,712,o),
(42,540,o),
(42,312,cs),
(42,81,o),
(216,-94,o),
(444,-94,cs)
);
},
{
closed = 1;
nodes = (
(257,-22,o),
(114,121,o),
(114,312,cs),
(114,500,o),
(257,640,o),
(444,640,cs),
(627,640,o),
(760,498,o),
(760,310,cs),
(760,119,o),
(626,-22,o),
(444,-22,cs)
);
},
{
closed = 1;
nodes = (
(630,380,l),
(619,454,o),
(555,522,o),
(450,522,cs),
(328,522,o),
(252,437,o),
(252,308,cs),
(252,174,o),
(328,92,o),
(450,92,cs),
(554,92,o),
(619,154,o),
(630,232,c),
(562,232,l),
(550,182,o),
(507,154,o),
(450,154,cs),
(371,154,o),
(322,212,o),
(322,308,cs),
(322,400,o),
(371,460,o),
(450,460,cs),
(512,460,o),
(552,423,o),
(562,380,c)
);
}
);
};
layerId = "1C9972D2-AAA2-4EE5-9F28-188B121D2056";
shapes = (
{
closed = 1;
nodes = (
(668,-94,o),
(836,79,o),
(836,310,cs),
(836,538,o),
(668,712,o),
(444,712,cs),
(216,712,o),
(42,540,o),
(42,312,cs),
(42,81,o),
(216,-94,o),
(444,-94,cs)
);
},
{
closed = 1;
nodes = (
(257,-22,o),
(114,121,o),
(114,312,cs),
(114,500,o),
(257,640,o),
(444,640,cs),
(627,640,o),
(760,498,o),
(760,310,cs),
(760,119,o),
(626,-22,o),
(444,-22,cs)
);
},
{
closed = 1;
nodes = (
(630,380,l),
(619,454,o),
(555,522,o),
(450,522,cs),
(328,522,o),
(252,437,o),
(252,308,cs),
(252,174,o),
(328,92,o),
(450,92,cs),
(554,92,o),
(619,154,o),
(630,232,c),
(562,232,l),
(550,182,o),
(507,154,o),
(450,154,cs),
(371,154,o),
(322,212,o),
(322,308,cs),
(322,400,o),
(371,460,o),
(450,460,cs),
(512,460,o),
(552,423,o),
(562,380,c)
);
}
);
width = 878;
}
);
metricLeft = O;
metricRight = O;
unicode = 169;
},
{
glyphname = registered;
lastChange = "2024-12-11 03:28:41 +0000";
layers = (
{
background = {
shapes = (
{
closed = 1;
nodes = (
(430,226,o),
(540,332,o),
(540,470,cs),
(540,607,o),
(430,712,o),
(292,712,cs),
(151,712,o),
(42,605,o),
(42,470,cs),
(42,332,o),
(151,226,o),
(292,226,cs)
);
},
{
closed = 1;
nodes = (
(184,276,o),
(98,362,o),
(98,470,cs),
(98,577,o),
(184,662,o),
(290,662,cs),
(399,662,o),
(484,577,o),
(484,470,cs),
(484,362,o),
(399,276,o),
(292,276,cs)
);
},
{
closed = 1;
nodes = (
(248,356,l),
(248,442,l),
(288,442,l),
(342,356,l),
(404,356,l),
(338,450,l),
(372,455,o),
(392,482,o),
(392,520,cs),
(392,560,o),
(360,590,o),
(312,590,cs),
(198,590,l),
(198,356,l)
);
},
{
closed = 1;
nodes = (
(248,550,l),
(302,550,ls),
(327,550,o),
(342,538,o),
(342,516,cs),
(342,494,o),
(326,480,o),
(302,480,cs),
(248,480,l)
);
}
);
};
layerId = "1C9972D2-AAA2-4EE5-9F28-188B121D2056";
shapes = (
{
closed = 1;
nodes = (
(430,226,o),
(540,332,o),
(540,470,cs),
(540,607,o),
(430,712,o),
(292,712,cs),
(151,712,o),
(42,605,o),
(42,470,cs),
(42,332,o),
(151,226,o),
(292,226,cs)
);
},
{
closed = 1;
nodes = (
(184,276,o),
(98,362,o),
(98,470,cs),
(98,577,o),
(184,662,o),
(290,662,cs),
(399,662,o),
(484,577,o),
(484,470,cs),
(484,362,o),
(399,276,o),
(292,276,cs)
);
},
{
closed = 1;
nodes = (
(248,356,l),
(248,442,l),
(288,442,l),
(342,356,l),
(404,356,l),
(338,450,l),
(372,455,o),
(392,482,o),
(392,520,cs),
(392,560,o),
(360,590,o),
(312,590,cs),
(198,590,l),
(198,356,l)
);
},
{
closed = 1;
nodes = (
(248,550,l),
(302,550,ls),
(327,550,o),
(342,538,o),
(342,516,cs),
(342,494,o),
(326,480,o),
(302,480,cs),
(248,480,l)
);
}
);
width = 582;
}
);
metricLeft = O;
metricRight = O;
unicode = 174;
},
{
glyphname = trademark;
kernLeft = trademark;
lastChange = "2024-12-11 03:28:41 +0000";
layers = (
{
background = {
shapes = (
{
closed = 1;
nodes = (
(324,648,l),
(324,700,l),
(24,700,l),
(24,648,l),
(144,648,l),
(144,338,l),
(204,338,l),
(204,648,l)
);
},
{
closed = 1;
nodes = (
(406,632,l),
(408,632,l),
(516,340,l),
(574,340,l),
(684,630,l),
(686,630,l),
(682,602,o),
(682,552,o),
(682,520,cs),
(682,338,l),
(740,338,l),
(740,700,l),
(653,700,l),
(548,418,l),
(546,418,l),
(439,700,l),
(350,700,l),
(350,338,l),
(408,338,l),
(408,520,l)
);
}
);
};
layerId = "1C9972D2-AAA2-4EE5-9F28-188B121D2056";
shapes = (
{
closed = 1;
nodes = (
(324,648,l),
(324,700,l),
(24,700,l),
(24,648,l),
(144,648,l),
(144,338,l),
(204,338,l),
(204,648,l)
);
},
{
closed = 1;
nodes = (
(406,632,l),
(408,632,l),
(516,340,l),
(574,340,l),
(684,630,l),
(686,630,l),
(682,602,o),
(682,552,o),
(682,520,cs),
(682,338,l),
(740,338,l),
(740,700,l),
(653,700,l),
(548,418,l),
(546,418,l),
(439,700,l),
(350,700,l),
(350,338,l),
(408,338,l),
(408,520,l)
);
}
);
width = 764;
}
);
unicode = 8482;
},
{
glyphname = degree;
lastChange = "2024-12-11 03:28:41 +0000";
layers = (
{
background = {
shapes = (
{
closed = 1;
nodes = (
(246,432,o),
(308,494,o),
(308,570,cs),
(308,649,o),
(246,712,o),
(168,712,cs),
(90,712,o),
(30,649,o),
(30,570,cs),
(30,494,o),
(90,432,o),
(168,432,cs)
);
},
{
closed = 1;
nodes = (
(128,494,o),
(90,530,o),
(90,570,cs),
(90,615,o),
(128,650,o),
(168,650,cs),
(211,650,o),
(246,615,o),
(246,570,cs),
(246,530,o),
(211,494,o),
(168,494,cs)
);
}
);
};
layerId = "1C9972D2-AAA2-4EE5-9F28-188B121D2056";
shapes = (
{
closed = 1;
nodes = (
(246,432,o),
(308,494,o),
(308,570,cs),
(308,649,o),
(246,712,o),
(168,712,cs),
(90,712,o),
(30,649,o),
(30,570,cs),
(30,494,o),
(90,432,o),
(168,432,cs)
);
},
{
closed = 1;
nodes = (
(128,494,o),
(90,530,o),
(90,570,cs),
(90,615,o),
(128,650,o),
(168,650,cs),
(211,650,o),
(246,615,o),
(246,570,cs),
(246,530,o),
(211,494,o),
(168,494,cs)
);
}
);
width = 338;
}
);
unicode = 176;
},
{
glyphname = bar;
lastChange = "2024-12-11 03:28:41 +0000";
layers = (
{
background = {
shapes = (
{
closed = 1;
nodes = (
(90,0,l),
(178,0,l),
(178,700,l),
(90,700,l)
);
}
);
};
layerId = "1C9972D2-AAA2-4EE5-9F28-188B121D2056";
shapes = (
{
closed = 1;
nodes = (
(90,0,l),
(178,0,l),
(178,700,l),
(90,700,l)
);
}
);
width = 268;
}
);
unicode = 124;
},
{
glyphname = numero;
lastChange = "2024-12-11 03:28:41 +0000";
layers = (
{
background = {
shapes = (
{
alignment = -1;
ref = N;
},
{
closed = 1;
nodes = (
(993,398,o),
(1062,465,o),
(1062,550,cs),
(1062,638,o),
(993,708,o),
(906,708,cs),
(819,708,o),
(754,638,o),
(754,550,cs),
(754,465,o),
(819,398,o),
(906,398,cs)
);
},
{
closed = 1;
nodes = (
(866,476,o),
(828,512,o),
(828,552,cs),
(828,597,o),
(866,632,o),
(906,632,cs),
(951,632,o),
(984,597,o),
(984,552,cs),
(984,512,o),
(949,476,o),
(906,476,cs)
);
},
{
closed = 1;
nodes = (
(769,240,l),
(1049,240,l),
(1049,318,l),
(769,318,l)
);
}
);
};
layerId = "1C9972D2-AAA2-4EE5-9F28-188B121D2056";
shapes = (
{
alignment = -1;
ref = N;
},
{
closed = 1;
nodes = (
(993,398,o),
(1062,465,o),
(1062,550,cs),
(1062,638,o),
(993,708,o),
(906,708,cs),
(819,708,o),
(754,638,o),
(754,550,cs),
(754,465,o),
(819,398,o),
(906,398,cs)
);
},
{
closed = 1;
nodes = (
(866,476,o),
(828,512,o),
(828,552,cs),
(828,597,o),
(866,632,o),
(906,632,cs),
(951,632,o),
(984,597,o),
(984,552,cs),
(984,512,o),
(949,476,o),
(906,476,cs)
);
},
{
closed = 1;
nodes = (
(769,240,l),
(1049,240,l),
(1049,318,l),
(769,318,l)
);
}
);
width = 1150;
}
);
unicode = 8470;
},
{
glyphname = cent;
lastChange = "2024-12-11 03:28:41 +0000";
layers = (
{
background = {
shapes = (
{
ref = c;
},
{
closed = 1;
nodes = (
(228,491,l),
(314,491,l),
(314,616,l),
(228,616,l)
);
},
{
closed = 1;
nodes = (
(228,-87,l),
(314,-87,l),
(314,38,l),
(228,38,l)
);
}
);
};
layerId = "1C9972D2-AAA2-4EE5-9F28-188B121D2056";
shapes = (
{
ref = c;
},
{
closed = 1;
nodes = (
(228,491,l),
(314,491,l),
(314,616,l),
(228,616,l)
);
},
{
closed = 1;
nodes = (
(228,-87,l),
(314,-87,l),
(314,38,l),
(228,38,l)
);
}
);
width = 530;
}
);
unicode = 162;
},
{
glyphname = dollar;
kernLeft = S;
kernRight = S;
lastChange = "2024-12-11 03:28:41 +0000";
layers = (
{
background = {
shapes = (
{
pos = (6,0);
ref = S;
},
{
closed = 1;
nodes = (
(285,-79,l),
(351,-79,l),
(351,794,l),
(285,794,l)
);
}
);
};
layerId = "1C9972D2-AAA2-4EE5-9F28-188B121D2056";
shapes = (
{
pos = (6,0);
ref = S;
},
{
closed = 1;
nodes = (
(285,-79,l),
(351,-79,l),
(351,794,l),
(285,794,l)
);
}
);
width = 620;
}
);
note = dollar;
unicode = 36;
},
{
glyphname = euro;
kernLeft = C;
kernRight = C;
lastChange = "2024-12-11 03:28:41 +0000";
layers = (
{
background = {
shapes = (
{
closed = 1;
nodes = (
(42,382,l),
(444,382,l),
(444,444,l),
(42,444,l)
);
},
{
closed = 1;
nodes = (
(42,260,l),
(444,260,l),
(444,321,l),
(42,321,l)
);
},
{
closed = 1;
nodes = (
(535,220,l),
(519,151,o),
(467,70,o),
(373,70,cs),
(262,70,o),
(191,185,o),
(191,352,cs),
(191,478,o),
(225,628,o),
(369,628,cs),
(479,628,o),
(514,540,o),
(535,486,c),
(625,486,l),
(600,590,o),
(521,710,o),
(373,710,cs),
(188,710,o),
(106,537,o),
(106,352,cs),
(106,175,o),
(191,-11,o),
(380,-11,cs),
(515,-11,o),
(598,88,o),
(625,220,c)
);
}
);
};
layerId = "1C9972D2-AAA2-4EE5-9F28-188B121D2056";
shapes = (
{
closed = 1;
nodes = (
(42,382,l),
(444,382,l),
(444,444,l),
(42,444,l)
);
},
{
closed = 1;
nodes = (
(42,260,l),
(444,260,l),
(444,321,l),
(42,321,l)
);
},
{
closed = 1;
nodes = (
(535,220,l),
(519,151,o),
(467,70,o),
(373,70,cs),
(262,70,o),
(191,185,o),
(191,352,cs),
(191,478,o),
(225,628,o),
(369,628,cs),
(479,628,o),
(514,540,o),
(535,486,c),
(625,486,l),
(600,590,o),
(521,710,o),
(373,710,cs),
(188,710,o),
(106,537,o),
(106,352,cs),
(106,175,o),
(191,-11,o),
(380,-11,cs),
(515,-11,o),
(598,88,o),
(625,220,c)
);
}
);
width = 669;
}
);
metricLeft = C;
metricRight = C;
unicode = 8364;
},
{
glyphname = ruble;
kernLeft = P;
kernRight = P;
lastChange = "2024-12-11 03:28:41 +0000";
layers = (
{
background = {
shapes = (
{
closed = 1;
nodes = (
(152,700,l),
(152,0,l),
(242,0,l),
(242,640,l),
(222,620,l),
(388,620,ls),
(482,620,o),
(540,566,o),
(540,486,cs),
(540,399,o),
(483,352,o),
(388,352,cs),
(61,352,l),
(61,272,l),
(400,272,ls),
(492,272,o),
(566,293,o),
(603,369,cs),
(622,406,o),
(631,445,o),
(632,486,cs),
(630,609,o),
(540,700,o),
(398,700,cs)
);
},
{
closed = 1;
nodes = (
(59,137,l),
(490,137,l),
(490,202,l),
(59,202,l)
);
}
);
};
layerId = "1C9972D2-AAA2-4EE5-9F28-188B121D2056";
shapes = (
{
closed = 1;
nodes = (
(152,700,l),
(152,0,l),
(242,0,l),
(242,640,l),
(222,620,l),
(388,620,ls),
(482,620,o),
(540,566,o),
(540,486,cs),
(540,399,o),
(483,352,o),
(388,352,cs),
(61,352,l),
(61,272,l),
(400,272,ls),
(492,272,o),
(566,293,o),
(603,369,cs),
(622,406,o),
(631,445,o),
(632,486,cs),
(630,609,o),
(540,700,o),
(398,700,cs)
);
},
{
closed = 1;
nodes = (
(59,137,l),
(490,137,l),
(490,202,l),
(59,202,l)
);
}
);
width = 676;
}
);
metricRight = P;
unicode = 8381;
},
{
glyphname = sterling;
lastChange = "2024-12-11 03:28:41 +0000";
layers = (
{
background = {
shapes = (
{
closed = 1;
nodes = (
(554,531,l),
(539,629,o),
(431,712,o),
(319,712,cs),
(187,712,o),
(88,618,o),
(88,498,cs),
(88,388,o),
(163,337,o),
(177,240,cs),
(189,158,o),
(138,91,o),
(50,91,c),
(50,0,l),
(526,0,l),
(526,82,l),
(162,82,l),
(162,66,l),
(225,76,o),
(265,129,o),
(265,210,cs),
(265,320,o),
(176,395,o),
(176,498,cs),
(176,591,o),
(247,630,o),
(319,630,cs),
(404,630,o),
(454,577,o),
(466,531,c)
);
},
{
closed = 1;
nodes = (
(40,315,l),
(446,315,l),
(446,377,l),
(40,377,l)
);
}
);
};
layerId = "1C9972D2-AAA2-4EE5-9F28-188B121D2056";
shapes = (
{
closed = 1;
nodes = (
(554,531,l),
(539,629,o),
(431,712,o),
(319,712,cs),
(187,712,o),
(88,618,o),
(88,498,cs),
(88,388,o),
(163,337,o),
(177,240,cs),
(189,158,o),
(138,91,o),
(50,91,c),
(50,0,l),
(526,0,l),
(526,82,l),
(162,82,l),
(162,66,l),
(225,76,o),
(265,129,o),
(265,210,cs),
(265,320,o),
(176,395,o),
(176,498,cs),
(176,591,o),
(247,630,o),
(319,630,cs),
(404,630,o),
(454,577,o),
(466,531,c)
);
},
{
closed = 1;
nodes = (
(40,315,l),
(446,315,l),
(446,377,l),
(40,377,l)
);
}
);
width = 589;
}
);
unicode = 163;
},
{
glyphname = yen;
lastChange = "2024-12-11 03:28:41 +0000";
layers = (
{
background = {
shapes = (
{
closed = 1;
nodes = (
(354,0,l),
(354,306,l),
(264,306,l),
(264,0,l)
);
},
{
closed = 1;
nodes = (
(16,700,l),
(272,267,l),
(346,267,l),
(602,700,l),
(501,700,l),
(296,355,l),
(322,355,l),
(117,700,l)
);
},
{
closed = 1;
nodes = (
(107,274,l),
(502,274,l),
(502,336,l),
(107,336,l)
);
},
{
closed = 1;
nodes = (
(107,126,l),
(502,126,l),
(502,188,l),
(107,188,l)
);
}
);
};
layerId = "1C9972D2-AAA2-4EE5-9F28-188B121D2056";
shapes = (
{
closed = 1;
nodes = (
(354,0,l),
(354,306,l),
(264,306,l),
(264,0,l)
);
},
{
closed = 1;
nodes = (
(16,700,l),
(272,267,l),
(346,267,l),
(602,700,l),
(501,700,l),
(296,355,l),
(322,355,l),
(117,700,l)
);
},
{
closed = 1;
nodes = (
(107,274,l),
(502,274,l),
(502,336,l),
(107,336,l)
);
},
{
closed = 1;
nodes = (
(107,126,l),
(502,126,l),
(502,188,l),
(107,188,l)
);
}
);
width = 618;
}
);
unicode = 165;
},
{
glyphname = plus;
lastChange = "2024-12-11 03:28:41 +0000";
layers = (
{
background = {
shapes = (
{
closed = 1;
nodes = (
(237,550,l),
(237,349,l),
(48,349,l),
(48,272,l),
(237,272,l),
(237,81,l),
(319,81,l),
(319,272,l),
(507,272,l),
(507,349,l),
(319,349,l),
(319,550,l)
);
}
);
};
guides = (
{
pos = (-5,345);
},
{
pos = (1,273);
}
);
layerId = "1C9972D2-AAA2-4EE5-9F28-188B121D2056";
shapes = (
{
closed = 1;
nodes = (
(237,550,l),
(237,349,l),
(48,349,l),
(48,272,l),
(237,272,l),
(237,81,l),
(319,81,l),
(319,272,l),
(507,272,l),
(507,349,l),
(319,349,l),
(319,550,l)
);
}
);
width = 554;
}
);
note = plus;
unicode = 43;
},
{
glyphname = minus;
kernLeft = strokeshortcomb;
kernRight = strokeshortcomb;
lastChange = "2024-12-11 03:28:41 +0000";
layers = (
{
background = {
shapes = (
{
closed = 1;
nodes = (
(516,349,l),
(37,349,l),
(37,272,l),
(516,272,l)
);
}
);
};
guides = (
{
pos = (24,426);
},
{
pos = (32,132);
}
);
layerId = "1C9972D2-AAA2-4EE5-9F28-188B121D2056";
shapes = (
{
closed = 1;
nodes = (
(516,349,l),
(37,349,l),
(37,272,l),
(516,272,l)
);
}
);
width = 554;
}
);
unicode = 8722;
},
{
glyphname = greater;
lastChange = "2024-12-11 03:28:41 +0000";
layers = (
{
background = {
shapes = (
{
closed = 1;
nodes = (
(66,549,l),
(66,468,l),
(402,317,l),
(402,313,l),
(66,162,l),
(66,80,l),
(491,277,l),
(491,352,l)
);
}
);
};
layerId = "1C9972D2-AAA2-4EE5-9F28-188B121D2056";
shapes = (
{
closed = 1;
nodes = (
(66,549,l),
(66,468,l),
(402,317,l),
(402,313,l),
(66,162,l),
(66,80,l),
(491,277,l),
(491,352,l)
);
}
);
width = 554;
}
);
unicode = 62;
},
{
glyphname = asciitilde;
lastChange = "2024-12-11 03:28:41 +0000";
layers = (
{
background = {
shapes = (
{
closed = 1;
nodes = (
(123,214,l),
(123,268,o),
(128,299,o),
(161,299,cs),
(214,299,o),
(299,214,o),
(375,214,cs),
(442,214,o),
(491,275,o),
(491,387,c),
(405,387,l),
(405,339,o),
(395,296,o),
(366,296,cs),
(326,296,o),
(248,381,o),
(160,381,cs),
(87,381,o),
(38,327,o),
(38,214,c)
);
}
);
};
layerId = "1C9972D2-AAA2-4EE5-9F28-188B121D2056";
shapes = (
{
closed = 1;
nodes = (
(123,214,l),
(123,268,o),
(128,299,o),
(161,299,cs),
(214,299,o),
(299,214,o),
(375,214,cs),
(442,214,o),
(491,275,o),
(491,387,c),
(405,387,l),
(405,339,o),
(395,296,o),
(366,296,cs),
(326,296,o),
(248,381,o),
(160,381,cs),
(87,381,o),
(38,327,o),
(38,214,c)
);
}
);
width = 529;
}
);
unicode = 126;
},
{
glyphname = asciicircum;
lastChange = "2024-12-11 03:28:41 +0000";
layers = (
{
background = {
shapes = (
{
closed = 1;
nodes = (
(491,441,l),
(346,700,l),
(246,700,l),
(101,441,l),
(176,441,l),
(295,646,l),
(297,646,l),
(416,441,l)
);
}
);
};
layerId = "1C9972D2-AAA2-4EE5-9F28-188B121D2056";
shapes = (
{
closed = 1;
nodes = (
(491,441,l),
(346,700,l),
(246,700,l),
(101,441,l),
(176,441,l),
(295,646,l),
(297,646,l),
(416,441,l)
);
}
);
width = 600;
}
);
unicode = 94;
},
{
glyphname = percent;
kernLeft = percent;
kernRight = percent;
lastChange = "2024-12-11 03:28:41 +0000";
layers = (
{
background = {
shapes = (
{
closed = 1;
nodes = (
(565,700,l),
(131,0,l),
(215,0,l),
(645,700,l)
);
},
{
closed = 1;
nodes = (
(263,358,o),
(327,418,o),
(327,542,cs),
(327,647,o),
(263,712,o),
(183,712,cs),
(103,712,o),
(35,647,o),
(35,536,cs),
(35,418,o),
(103,358,o),
(183,358,cs)
);
},
{
closed = 1;
nodes = (
(120,424,o),
(105,491,o),
(105,536,cs),
(105,581,o),
(118,646,o),
(183,646,cs),
(243,646,o),
(257,581,o),
(257,536,cs),
(257,491,o),
(245,424,o),
(183,424,cs)
);
},
{
closed = 1;
nodes = (
(694,-12,o),
(758,48,o),
(758,172,cs),
(758,277,o),
(694,342,o),
(614,342,cs),
(534,342,o),
(466,277,o),
(466,166,cs),
(466,48,o),
(534,-12,o),
(614,-12,cs)
);
},
{
closed = 1;
nodes = (
(551,54,o),
(536,121,o),
(536,166,cs),
(536,211,o),
(549,276,o),
(614,276,cs),
(674,276,o),
(688,211,o),
(688,166,cs),
(688,121,o),
(676,54,o),
(614,54,cs)
);
}
);
};
layerId = "1C9972D2-AAA2-4EE5-9F28-188B121D2056";
shapes = (
{
closed = 1;
nodes = (
(565,700,l),
(131,0,l),
(215,0,l),
(645,700,l)
);
},
{
closed = 1;
nodes = (
(263,358,o),
(327,418,o),
(327,542,cs),
(327,647,o),
(263,712,o),
(183,712,cs),
(103,712,o),
(35,647,o),
(35,536,cs),
(35,418,o),
(103,358,o),
(183,358,cs)
);
},
{
closed = 1;
nodes = (
(120,424,o),
(105,491,o),
(105,536,cs),
(105,581,o),
(118,646,o),
(183,646,cs),
(243,646,o),
(257,581,o),
(257,536,cs),
(257,491,o),
(245,424,o),
(183,424,cs)
);
},
{
closed = 1;
nodes = (
(694,-12,o),
(758,48,o),
(758,172,cs),
(758,277,o),
(694,342,o),
(614,342,cs),
(534,342,o),
(466,277,o),
(466,166,cs),
(466,48,o),
(534,-12,o),
(614,-12,cs)
);
},
{
closed = 1;
nodes = (
(551,54,o),
(536,121,o),
(536,166,cs),
(536,211,o),
(549,276,o),
(614,276,cs),
(674,276,o),
(688,211,o),
(688,166,cs),
(688,121,o),
(676,54,o),
(614,54,cs)
);
}
);
width = 793;
}
);
note = percent;
unicode = 37;
},
{
glyphname = dieresis;
lastChange = "2025-01-07 19:06:26 +0000";
layers = (
{
anchors = (
{
name = _top;
pos = (186,520);
},
{
name = top;
pos = (186,869);
}
);
background = {
anchors = (
{
name = _top;
pos = (186,520);
},
{
name = top;
pos = (186,869);
}
);
shapes = (
{
closed = 1;
nodes = (
(220,787,l),
(319,787,l),
(319,886,l),
(220,886,l)
);
},
{
closed = 1;
nodes = (
(48,787,l),
(147,787,l),
(147,886,l),
(48,886,l)
);
}
);
};
layerId = "1C9972D2-AAA2-4EE5-9F28-188B121D2056";
shapes = (
{
closed = 1;
nodes = (
(220,657,l),
(319,657,l),
(319,756,l),
(220,756,l)
);
},
{
closed = 1;
nodes = (
(48,657,l),
(147,657,l),
(147,756,l),
(48,756,l)
);
}
);
width = 367;
}
);
unicode = 168;
},
{
glyphname = graveaccent;
lastChange = "2024-12-11 03:28:41 +0000";
layers = (
{
anchors = (
{
name = _top;
pos = (190,520);
},
{
name = top;
pos = (174,766);
}
);
background = {
anchors = (
{
name = _top;
pos = (190,520);
},
{
name = top;
pos = (174,766);
}
);
shapes = (
{
closed = 1;
nodes = (
(136,766,l),
(40,766,l),
(146,614,l),
(220,614,l)
);
}
);
};
layerId = "1C9972D2-AAA2-4EE5-9F28-188B121D2056";
shapes = (
{
closed = 1;
nodes = (
(136,766,l),
(40,766,l),
(146,614,l),
(220,614,l)
);
}
);
width = 260;
}
);
unicode = 96;
},
{
glyphname = ring;
lastChange = "2024-12-11 03:28:41 +0000";
layers = (
{
background = {
shapes = (
{
closed = 1;
nodes = (
(10,806,o),
(56,764,o),
(114,764,cs),
(170,764,o),
(216,806,o),
(216,862,cs),
(216,916,o),
(170,960,o),
(114,960,cs),
(56,960,o),
(10,916,o),
(10,862,cs)
);
},
{
closed = 1;
nodes = (
(70,887,o),
(88,906,o),
(111,906,cs),
(136,906,o),
(154,887,o),
(154,863,cs),
(154,838,o),
(136,822,o),
(111,822,cs),
(88,822,o),
(70,838,o),
(70,863,cs)
);
}
);
};
layerId = "1C9972D2-AAA2-4EE5-9F28-188B121D2056";
shapes = (
{
closed = 1;
nodes = (
(10,806,o),
(56,764,o),
(114,764,cs),
(170,764,o),
(216,806,o),
(216,862,cs),
(216,916,o),
(170,960,o),
(114,960,cs),
(56,960,o),
(10,916,o),
(10,862,cs)
);
},
{
closed = 1;
nodes = (
(70,887,o),
(88,906,o),
(111,906,cs),
(136,906,o),
(154,887,o),
(154,863,cs),
(154,838,o),
(136,822,o),
(111,822,cs),
(88,822,o),
(70,838,o),
(70,863,cs)
);
}
);
width = 226;
}
);
note = "recipe: offset curve 30, no auto; then redrawn two circles manually for perfect fit.";
unicode = 730;
userData = {
"interface.width-adjustments" = (
-16
);
};
},
{
glyphname = tilde;
lastChange = "2024-12-11 03:28:41 +0000";
layers = (
{
background = {
shapes = (
{
closed = 1;
nodes = (
(78,788,l),
(78,806,ls),
(78,826,o),
(87,854,o),
(108,854,cs),
(121,854,o),
(137,845,o),
(164,816,cs),
(183,796,o),
(213,788,o),
(242,788,cs),
(299,788,o),
(334,851,o),
(334,908,cs),
(334,926,l),
(266,926,l),
(266,904,ls),
(266,884,o),
(253,862,o),
(234,862,cs),
(218,862,o),
(204,875,o),
(188,890,cs),
(165,911,o),
(135,926,o),
(106,926,cs),
(49,926,o),
(10,870,o),
(10,814,cs),
(10,788,l)
);
}
);
};
layerId = "1C9972D2-AAA2-4EE5-9F28-188B121D2056";
shapes = (
{
closed = 1;
nodes = (
(78,788,l),
(78,806,ls),
(78,826,o),
(87,854,o),
(108,854,cs),
(121,854,o),
(137,845,o),
(164,816,cs),
(183,796,o),
(213,788,o),
(242,788,cs),
(299,788,o),
(334,851,o),
(334,908,cs),
(334,926,l),
(266,926,l),
(266,904,ls),
(266,884,o),
(253,862,o),
(234,862,cs),
(218,862,o),
(204,875,o),
(188,890,cs),
(165,911,o),
(135,926,o),
(106,926,cs),
(49,926,o),
(10,870,o),
(10,814,cs),
(10,788,l)
);
}
);
width = 344;
}
);
unicode = 732;
userData = {
interface.gridadjust.original = "{'width': 1352, 'leftMargin': 175, 'rightMargin': 194}";
"interface.width-adjustments" = (
-16
);
};
},
{
glyphname = macron;
lastChange = "2024-12-11 03:28:41 +0000";
layers = (
{
background = {
shapes = (
{
closed = 1;
nodes = (
(322,820,l),
(322,892,l),
(10,892,l),
(10,820,l)
);
}
);
};
layerId = "1C9972D2-AAA2-4EE5-9F28-188B121D2056";
shapes = (
{
closed = 1;
nodes = (
(322,820,l),
(322,892,l),
(10,892,l),
(10,820,l)
);
}
);
width = 332;
}
);
unicode = 175;
userData = {
interface.gridadjust.original = "{'width': 1310, 'leftMargin': 198, 'rightMargin': 173}";
"interface.width-adjustments" = (
-16
);
};
},
{
category = Mark;
glyphname = tildesubcomb;
lastChange = "2024-12-11 03:28:41 +0000";
layers = (
{
anchors = (
{
name = _bottom;
pos = (204,0);
}
);
background = {
anchors = (
{
name = _bottom;
pos = (204,0);
}
);
shapes = (
{
closed = 1;
nodes = (
(118,-237,l),
(118,-219,ls),
(118,-199,o),
(127,-171,o),
(148,-171,cs),
(161,-171,o),
(177,-180,o),
(204,-209,cs),
(223,-229,o),
(253,-237,o),
(282,-237,cs),
(339,-237,o),
(374,-174,o),
(374,-117,cs),
(374,-99,l),
(306,-99,l),
(306,-121,ls),
(306,-141,o),
(293,-163,o),
(274,-163,cs),
(258,-163,o),
(244,-150,o),
(228,-135,cs),
(205,-114,o),
(175,-99,o),
(146,-99,cs),
(89,-99,o),
(50,-155,o),
(50,-211,cs),
(50,-237,l)
);
}
);
};
layerId = "1C9972D2-AAA2-4EE5-9F28-188B121D2056";
shapes = (
{
closed = 1;
nodes = (
(118,-237,l),
(118,-219,ls),
(118,-199,o),
(127,-171,o),
(148,-171,cs),
(161,-171,o),
(177,-180,o),
(204,-209,cs),
(223,-229,o),
(253,-237,o),
(282,-237,cs),
(339,-237,o),
(374,-174,o),
(374,-117,cs),
(374,-99,l),
(306,-99,l),
(306,-121,ls),
(306,-141,o),
(293,-163,o),
(274,-163,cs),
(258,-163,o),
(244,-150,o),
(228,-135,cs),
(205,-114,o),
(175,-99,o),
(146,-99,cs),
(89,-99,o),
(50,-155,o),
(50,-211,cs),
(50,-237,l)
);
}
);
width = 424;
}
);
unicode = 61127;
},
